<svg id="institutions" xmlns="http://www.w3.org/2000/svg" width="210" height="160" viewBox="0 0 210 160"><defs><style>.cls-1{fill:#4f2683;}.cls-2{fill:none;}</style></defs><title>inst_gpls</title><circle class="cls-1" cx="82.8" cy="49.76" r="1.49"/><circle class="cls-1" cx="95.9" cy="83.05" r="1.49"/><path class="cls-1" d="M99,62.31c0,0.36,0,.39-0.18.49a7.66,7.66,0,0,1-3.26.61c-3.31,0-6.25-1.57-6.25-5.3a5.06,5.06,0,0,1,2.35-4.42,6.54,6.54,0,0,1,3.64-.88,16.59,16.59,0,0,1,2.4.21,9.31,9.31,0,0,0,1.07.15c0.16,0,.19.07,0.19,0.16a18.35,18.35,0,0,0-.09,2.22c0,0.22,0,.28-0.15.28s-0.12-.07-0.14-0.18a1.89,1.89,0,0,0-.46-1.12,4.32,4.32,0,0,0-3-1.06,3.91,3.91,0,0,0-2.68.84,4,4,0,0,0-1.24,3.31c0,2.91,1.85,5.08,4.71,5.08a3,3,0,0,0,1.15-.15,0.48,0.48,0,0,0,.26-0.5V60.8c0-.67,0-1.19,0-1.6a0.66,0.66,0,0,0-.58-0.77,2.69,2.69,0,0,0-.53,0c-0.12,0-.2,0-0.2-0.11s0.09-.14.29-0.14c0.7,0,1.56,0,2,0s1.13,0,1.58,0c0.17,0,.27,0,0.27.14s-0.08.11-.18,0.11a2.1,2.1,0,0,0-.36,0,0.65,0.65,0,0,0-.52.77c0,0.41,0,.95,0,1.62v1.49Z"/><path class="cls-1" d="M102.8,58.31c0-1.6,0-1.89,0-2.23a0.52,0.52,0,0,0-.45-0.6,2.12,2.12,0,0,0-.41,0c-0.12,0-.18,0-0.18-0.09s0.08-.1.23-0.1c0.56,0,1.22,0,1.51,0h2.63l0.45-.06a0.82,0.82,0,0,1,.17,0c0.05,0,.06,0,0.06.1s0,0.2-.08.68c0,0.1,0,.57-0.06.69a0.11,0.11,0,0,1-.1.12c-0.08,0-.1-0.05-0.1-0.15a1.22,1.22,0,0,0-.06-0.38,0.68,0.68,0,0,0-.71-0.38c-0.18,0-1.28,0-1.49,0-0.05,0-.07,0-0.07.11v2.66c0,0.07,0,.12.07,0.12,0.23,0,1.44,0,1.68,0a0.73,0.73,0,0,0,.5-0.16,0.3,0.3,0,0,1,.17-0.14,0.07,0.07,0,0,1,.07.09c0,0.06,0,.23-0.08.77,0,0.21,0,.63,0,0.7s0,0.2-.09.2a0.09,0.09,0,0,1-.1-0.1,2.52,2.52,0,0,0,0-.38,0.56,0.56,0,0,0-.59-0.41c-0.2,0-1.24,0-1.5,0,0,0-.06,0-0.06.11v0.83c0,0.36,0,1.32,0,1.63,0,0.73.19,0.88,1.26,0.88a2.67,2.67,0,0,0,1-.13,0.9,0.9,0,0,0,.47-0.78c0-.11,0-0.16.12-0.16s0.08,0.08.08,0.19a8.06,8.06,0,0,1-.14,1.17c-0.07.27-.17,0.27-0.57,0.27-1.59,0-2.29-.06-2.91-0.06-0.24,0-.91,0-1.32,0-0.14,0-.21,0-0.21-0.11s0-.09.17-0.09a1.76,1.76,0,0,0,.37,0,0.57,0.57,0,0,0,.31-0.58c0.05-.44.05-1.27,0.05-2.24V58.31Z"/><path class="cls-1" d="M109.09,59.23a4,4,0,0,1,4.34-4.12c2.62,0,4.25,1.53,4.25,3.93a4.16,4.16,0,0,1-4.36,4.31A4,4,0,0,1,109.09,59.23Zm7.12,0.2c0-2.35-1.36-3.82-3.08-3.82-1.21,0-2.59.67-2.59,3.29,0,2.19,1.21,3.92,3.23,3.92C114.5,62.83,116.21,62.47,116.21,59.43Z"/><path class="cls-1" d="M120.14,58.31c0-1.6,0-1.89,0-2.23a0.52,0.52,0,0,0-.45-0.6,2.1,2.1,0,0,0-.41,0c-0.11,0-.18,0-0.18-0.09s0.07-.1.23-0.1c0.55,0,1.22,0,1.44,0l1.48,0a3.35,3.35,0,0,1,1.94.45,1.82,1.82,0,0,1,.72,1.44,3,3,0,0,1-1.39,2.35c0.94,1.18,1.66,2.11,2.28,2.77A2.12,2.12,0,0,0,127,63a1.57,1.57,0,0,0,.3,0c0.09,0,.13,0,0.13.09s-0.07.11-.2,0.11h-1A2.16,2.16,0,0,1,125,63a5.1,5.1,0,0,1-1.44-1.55c-0.42-.58-0.9-1.29-1-1.45a0.23,0.23,0,0,0-.19-0.07l-0.91,0a0.07,0.07,0,0,0-.09.08v0.15c0,1,0,1.81.06,2.25a0.51,0.51,0,0,0,.41.58l0.51,0c0.09,0,.13,0,0.13.09s-0.07.11-.21,0.11c-0.61,0-1.39,0-1.55,0s-0.86,0-1.28,0c-0.14,0-.21,0-0.21-0.11s0-.09.17-0.09a1.8,1.8,0,0,0,.38,0,0.57,0.57,0,0,0,.31-0.58c0.05-.44.05-1.27,0.05-2.24V58.31Zm1.24,0.83a0.16,0.16,0,0,0,.1.19,2.76,2.76,0,0,0,.8.1,1,1,0,0,0,.75-0.18,1.85,1.85,0,0,0,.62-1.58A1.68,1.68,0,0,0,122,55.75a2.32,2.32,0,0,0-.56,0,0.12,0.12,0,0,0-.1.15v3.2Z"/><path class="cls-1" d="M135.25,62.5c0,0.28,0,.3-0.13.38a5.94,5.94,0,0,1-2.53.47c-2.58,0-4.86-1.22-4.86-4.12a3.93,3.93,0,0,1,1.83-3.44,5.11,5.11,0,0,1,2.83-.69,12.84,12.84,0,0,1,1.86.17,7.42,7.42,0,0,0,.83.12c0.12,0,.15.05,0.15,0.13a13.63,13.63,0,0,0-.08,1.73c0,0.17,0,.22-0.11.22s-0.1-.05-0.11-0.14a1.49,1.49,0,0,0-.36-0.88,3.37,3.37,0,0,0-2.34-.82,3.06,3.06,0,0,0-2.09.65,3.14,3.14,0,0,0-1,2.58,3.65,3.65,0,0,0,3.66,4,2.29,2.29,0,0,0,.89-0.12,0.37,0.37,0,0,0,.2-0.39v-1c0-.52,0-0.93,0-1.24a0.51,0.51,0,0,0-.45-0.6,2.34,2.34,0,0,0-.41,0c-0.09,0-.16,0-0.16-0.08s0.07-.11.22-0.11c0.54,0,1.21,0,1.52,0l1.23,0c0.14,0,.21,0,0.21.11s-0.06.08-.14,0.08l-0.29,0a0.5,0.5,0,0,0-.4.6c0,0.32,0,.74,0,1.27V62.5Z"/><path class="cls-1" d="M138.56,58.31c0-1.6,0-1.89,0-2.23a0.53,0.53,0,0,0-.36-0.59,1.53,1.53,0,0,0-.38,0c-0.11,0-.17,0-0.17-0.11s0.09-.08.25-0.08l1.37,0,1.28,0c0.14,0,.22,0,0.22.08s-0.06.11-.17,0.11a1.66,1.66,0,0,0-.31,0,0.51,0.51,0,0,0-.39.6c0,0.34,0,.63,0,2.23v1.85c0,1,0,1.85,0,2.3a0.46,0.46,0,0,0,.42.51,4.62,4.62,0,0,0,.53,0c0.12,0,.17,0,0.17.09s-0.09.11-.2,0.11c-0.69,0-1.36,0-1.64,0s-0.9,0-1.32,0c-0.14,0-.21,0-0.21-0.11s0-.09.17-0.09a1.79,1.79,0,0,0,.38,0,0.47,0.47,0,0,0,.3-0.53c0.06-.44.06-1.27,0.06-2.29V58.31Z"/><path class="cls-1" d="M144.52,60.47a0.09,0.09,0,0,0-.1.08l-0.57,1.5a2.08,2.08,0,0,0-.15.64c0,0.19.09,0.33,0.42,0.33h0.16c0.12,0,.16,0,0.16.09s-0.06.11-.18,0.11l-1.11,0c-0.12,0-.7,0-1.24,0-0.13,0-.2,0-0.2-0.11s0-.09.13-0.09l0.33,0a1.18,1.18,0,0,0,.89-0.95l2.64-6.6A0.51,0.51,0,0,1,146,55a0.42,0.42,0,0,1,.26.34c0.25,0.58,1.94,4.87,2.61,6.47,0.4,0.95.71,1.09,0.93,1.15a2.23,2.23,0,0,0,.44,0c0.09,0,.14,0,0.14.09s-0.09.11-.48,0.11-1.15,0-2,0c-0.19,0-.31,0-0.31-0.08s0-.09.15-0.09a0.17,0.17,0,0,0,.09-0.24L147,60.54a0.1,0.1,0,0,0-.11-0.07h-2.35Zm2.14-.53c0.05,0,.06,0,0.05-0.06l-0.95-2.6a0.1,0.1,0,0,0-.06-0.1,0.12,0.12,0,0,0-.06.1l-1,2.59s0,0.07,0,.07h1.93Z"/><path class="cls-1" d="M157.81,56.92c0-2.06,0-2.43,0-2.87a0.66,0.66,0,0,0-.58-0.77,2.93,2.93,0,0,0-.53,0c-0.15,0-.23,0-0.23-0.12s0.1-.12.3-0.12c0.72,0,1.57,0,1.95,0,0.55,0,1.33,0,2,0a3.29,3.29,0,0,1,2.52.77,2.35,2.35,0,0,1,.68,1.61,3.18,3.18,0,0,1-3.33,3.27,2,2,0,0,1-.28,0,0.15,0.15,0,0,1-.16-0.12c0-.11.09-0.15,0.38-0.15a2.13,2.13,0,0,0,1.81-2.23,2.61,2.61,0,0,0-.8-2,2,2,0,0,0-1.35-.53,1.84,1.84,0,0,0-.53.05,0.25,0.25,0,0,0-.11.26V59.3c0,1.25,0,2.31.07,2.89a0.65,0.65,0,0,0,.53.73,5.74,5.74,0,0,0,.69.06c0.15,0,.22,0,0.22.11s-0.11.13-.26,0.13c-0.89,0-1.74,0-2.1,0s-1.16,0-1.71,0c-0.17,0-.27,0-0.27-0.13s0.06-.11.22-0.11a2.25,2.25,0,0,0,.49-0.06,0.72,0.72,0,0,0,.39-0.74c0.07-.57.07-1.63,0.07-2.88V56.92Z"/><path class="cls-1" d="M167.28,58.31c0-1.6,0-1.89,0-2.23a0.52,0.52,0,0,0-.45-0.6,2.08,2.08,0,0,0-.41,0c-0.11,0-.18,0-0.18-0.09s0.07-.1.23-0.1c0.56,0,1.22,0,1.53,0l1.29,0c0.16,0,.23,0,0.23.1s-0.06.09-.17,0.09a1.51,1.51,0,0,0-.3,0,0.5,0.5,0,0,0-.39.6c0,0.34,0,.63,0,2.23v1.47c0,1.52.3,2.17,0.82,2.59a2,2,0,0,0,1.31.43,2.06,2.06,0,0,0,1.45-.57,3.62,3.62,0,0,0,.61-2.61V58.31c0-1.6,0-1.89,0-2.23a0.52,0.52,0,0,0-.45-0.6,2,2,0,0,0-.38,0c-0.11,0-.18,0-0.18-0.09s0.08-.1.22-0.1c0.54,0,1.2,0,1.21,0s0.79,0,1.2,0c0.15,0,.22,0,0.22.1s-0.06.09-.19,0.09a1.51,1.51,0,0,0-.31,0,0.5,0.5,0,0,0-.39.6c0,0.34,0,.63,0,2.23v1.12a4,4,0,0,1-1,3.17,3.13,3.13,0,0,1-2.19.76,3.4,3.4,0,0,1-2.34-.72,3.46,3.46,0,0,1-.94-2.79V58.31Z"/><path class="cls-1" d="M177.48,58.31c0-1.6,0-1.89,0-2.23a0.52,0.52,0,0,0-.45-0.6,2.16,2.16,0,0,0-.41,0c-0.11,0-.18,0-0.18-0.09s0.08-.1.23-0.1c0.55,0,1.22,0,1.43,0,0.52,0,.93,0,1.28,0,1.91,0,2.24,1,2.24,1.58a2.29,2.29,0,0,1-1.07,1.84,2.57,2.57,0,0,1,1.91,2.27c0,1.13-.87,2.29-2.81,2.29-0.25,0-1.21-.06-1.53-0.06s-0.91,0-1.32,0c-0.13,0-.21,0-0.21-0.11s0-.09.17-0.09a1.75,1.75,0,0,0,.38,0,0.57,0.57,0,0,0,.3-0.58c0.05-.44.05-1.27,0.05-2.24V58.31Zm1.26,0.18a0.1,0.1,0,0,0,.07.11,2.6,2.6,0,0,0,.49,0,1.06,1.06,0,0,0,.76-0.2,1.37,1.37,0,0,0,.43-1.11,1.41,1.41,0,0,0-1.66-1.61c-0.08,0-.1.06-0.1,0.18v2.6Zm1.39,0.84a1.51,1.51,0,0,0-.87-0.25h-0.45s-0.06,0-.06.07v2.49c0,0.7,0,.87.37,1a1.91,1.91,0,0,0,.77.13,1.23,1.23,0,0,0,1.28-1.35A2.51,2.51,0,0,0,180.13,59.33Z"/><path class="cls-1" d="M187,60.16c0,1.35,0,2.07.22,2.26a1.88,1.88,0,0,0,1.27.23,1.58,1.58,0,0,0,1.23-.29,1.29,1.29,0,0,0,.27-0.63c0-.1,0-0.16.12-0.16s0.08,0.05.08,0.18a7.77,7.77,0,0,1-.16,1.21c-0.06.23-.12,0.28-0.66,0.28-1.52,0-2.21-.06-3.06-0.06-0.24,0-.9,0-1.33,0-0.14,0-.21,0-0.21-0.11s0-.09.17-0.09a1.76,1.76,0,0,0,.38,0,0.56,0.56,0,0,0,.31-0.58c0.05-.44.05-1.27,0.05-2.24V58.31c0-1.6,0-1.89,0-2.23a0.52,0.52,0,0,0-.45-0.6,1.51,1.51,0,0,0-.35,0c-0.12,0-.18,0-0.18-0.09s0.07-.1.23-0.1c0.5,0,1.16,0,1.44,0l1.43,0c0.15,0,.22,0,0.22.1s-0.06.09-.19,0.09a2.67,2.67,0,0,0-.41,0,0.51,0.51,0,0,0-.39.6c0,0.34,0,.63,0,2.23v1.85Z"/><path class="cls-1" d="M192.86,58.31c0-1.6,0-1.89,0-2.23a0.52,0.52,0,0,0-.36-0.59,1.49,1.49,0,0,0-.38,0c-0.11,0-.17,0-0.17-0.11s0.08-.08.25-0.08l1.37,0,1.28,0c0.14,0,.22,0,0.22.08s-0.07.11-.17,0.11a1.7,1.7,0,0,0-.32,0,0.51,0.51,0,0,0-.39.6c0,0.34,0,.63,0,2.23v1.85c0,1,0,1.85,0,2.3a0.47,0.47,0,0,0,.42.51,4.62,4.62,0,0,0,.54,0c0.12,0,.17,0,0.17.09s-0.08.11-.2,0.11c-0.69,0-1.36,0-1.64,0s-0.9,0-1.33,0c-0.14,0-.21,0-0.21-0.11s0-.09.17-0.09a1.76,1.76,0,0,0,.38,0,0.47,0.47,0,0,0,.31-0.53c0.06-.44.06-1.27,0.06-2.29V58.31Z"/><path class="cls-1" d="M197.93,62.21a4.16,4.16,0,0,1-.08-6,4.59,4.59,0,0,1,3.32-1.12,10.39,10.39,0,0,1,1.53.11c0.4,0.05.74,0.15,1.05,0.18a0.14,0.14,0,0,1,.16.13c0,0.08,0,.21-0.05.58s0,0.93,0,1.14,0,0.24-.13.24-0.1-.08-0.1-0.23a1.54,1.54,0,0,0-.41-1,3.15,3.15,0,0,0-2.14-.65,2.74,2.74,0,0,0-2,.65,3.93,3.93,0,0,0,2.34,6.47,2.28,2.28,0,0,0,1.92-.59,1.71,1.71,0,0,0,.36-0.7c0-.17.05-0.21,0.14-0.21s0.1,0.07.1,0.16a10,10,0,0,1-.23,1.4,0.38,0.38,0,0,1-.27.31,6.19,6.19,0,0,1-1.89.24A5.25,5.25,0,0,1,197.93,62.21Z"/><path class="cls-1" d="M98.58,73c0,1.73,0,2.66.29,2.91a2.42,2.42,0,0,0,1.64.3,2,2,0,0,0,1.58-.38,1.68,1.68,0,0,0,.35-0.81c0-.12,0-0.2.15-0.2s0.11,0.07.11,0.23a10.71,10.71,0,0,1-.2,1.56c-0.08.3-.15,0.37-0.85,0.37-1.95,0-2.84-.08-3.94-0.08-0.31,0-1.16,0-1.7,0-0.18,0-.27,0-0.27-0.13s0.06-.11.22-0.11a2.28,2.28,0,0,0,.49-0.05,0.72,0.72,0,0,0,.39-0.75c0.07-.57.07-1.63,0.07-2.88V70.64c0-2.06,0-2.43,0-2.87A0.67,0.67,0,0,0,96.28,67a2,2,0,0,0-.45,0c-0.15,0-.23,0-0.23-0.12s0.09-.12.3-0.12c0.63,0,1.49,0,1.85,0s1.31,0,1.84,0c0.19,0,.28,0,0.28.12S99.79,67,99.63,67a3.6,3.6,0,0,0-.53,0,0.65,0.65,0,0,0-.5.77c0,0.43,0,.81,0,2.87V73Z"/><path class="cls-1" d="M105.59,72c0-1.6,0-1.89,0-2.23a0.52,0.52,0,0,0-.36-0.59,1.63,1.63,0,0,0-.38,0c-0.11,0-.17,0-0.17-0.1s0.08-.09.25-0.09c0.4,0,1.07,0,1.37,0s0.88,0,1.28,0c0.14,0,.22,0,0.22.09s-0.06.1-.17,0.1a1.76,1.76,0,0,0-.31,0,0.51,0.51,0,0,0-.39.6c0,0.34,0,.63,0,2.23v1.85c0,1,0,1.85,0,2.3a0.47,0.47,0,0,0,.42.52,4.34,4.34,0,0,0,.54,0c0.12,0,.17,0,0.17.08s-0.08.11-.2,0.11c-0.69,0-1.36,0-1.64,0s-0.9,0-1.32,0c-0.14,0-.21,0-0.21-0.11s0-.08.17-0.08a1.71,1.71,0,0,0,.38,0,0.47,0.47,0,0,0,.3-0.53c0.05-.44.05-1.27,0.05-2.3V72Z"/><path class="cls-1" d="M111.13,72c0-1.6,0-1.89,0-2.23a0.52,0.52,0,0,0-.46-0.6,2.08,2.08,0,0,0-.41,0c-0.12,0-.18,0-0.18-0.09s0.07-.09.23-0.09c0.56,0,1.22,0,1.43,0,0.51,0,.93,0,1.28,0,1.9,0,2.24,1,2.24,1.58a2.29,2.29,0,0,1-1.07,1.84,2.57,2.57,0,0,1,1.91,2.27c0,1.13-.87,2.29-2.81,2.29-0.25,0-1.21-.06-1.53-0.06s-0.9,0-1.33,0c-0.14,0-.21,0-0.21-0.11s0-.08.17-0.08a1.65,1.65,0,0,0,.38,0,0.56,0.56,0,0,0,.31-0.58c0.05-.44.05-1.27,0.05-2.24V72Zm1.26,0.18a0.09,0.09,0,0,0,.07.11,2.6,2.6,0,0,0,.5,0,1.06,1.06,0,0,0,.76-0.2,1.36,1.36,0,0,0,.43-1.11,1.49,1.49,0,0,0-1.31-1.63,1.58,1.58,0,0,0-.35,0c-0.07,0-.09.06-0.09,0.18v2.6ZM113.78,73a1.52,1.52,0,0,0-.87-0.25h-0.45a0.06,0.06,0,0,0-.06.07v2.49c0,0.69,0,.87.37,1a1.87,1.87,0,0,0,.76.13,1.23,1.23,0,0,0,1.28-1.35A2.5,2.5,0,0,0,113.78,73Z"/><path class="cls-1" d="M118.51,72c0-1.6,0-1.89,0-2.23a0.51,0.51,0,0,0-.45-0.6,2.08,2.08,0,0,0-.41,0c-0.12,0-.18,0-0.18-0.09s0.07-.09.23-0.09c0.56,0,1.22,0,1.44,0l1.48,0a3.33,3.33,0,0,1,1.93.46,1.81,1.81,0,0,1,.72,1.44,3,3,0,0,1-1.39,2.35c0.94,1.18,1.67,2.11,2.28,2.77a2.08,2.08,0,0,0,1.18.72l0.29,0c0.08,0,.13,0,0.13.08s-0.08.11-.2,0.11h-1a2.12,2.12,0,0,1-1.12-.2A5.07,5.07,0,0,1,122,75.18c-0.42-.58-0.9-1.29-1-1.45a0.21,0.21,0,0,0-.19-0.07l-0.91,0a0.07,0.07,0,0,0-.08.08v0.15c0,1,0,1.81.05,2.25a0.51,0.51,0,0,0,.41.58,4.72,4.72,0,0,0,.52,0c0.08,0,.12,0,0.12.08s-0.07.11-.21,0.11c-0.61,0-1.39,0-1.55,0s-0.86,0-1.28,0c-0.14,0-.21,0-0.21-0.11s0-.08.17-0.08a1.7,1.7,0,0,0,.38,0,0.56,0.56,0,0,0,.3-0.58c0.05-.44.05-1.27,0.05-2.24V72Zm1.24,0.83a0.16,0.16,0,0,0,.09.19,2.72,2.72,0,0,0,.8.1,1,1,0,0,0,.75-0.18A1.84,1.84,0,0,0,122,71.4a1.68,1.68,0,0,0-1.61-1.92,2.3,2.3,0,0,0-.56,0,0.12,0.12,0,0,0-.09.15v3.19Z"/><path class="cls-1" d="M127.66,74.18a0.09,0.09,0,0,0-.09.08L127,75.77a2,2,0,0,0-.16.64c0,0.19.1,0.33,0.42,0.33h0.15c0.13,0,.16,0,0.16.08s-0.06.11-.18,0.11l-1.11,0c-0.11,0-.7,0-1.24,0-0.14,0-.2,0-0.2-0.11s0-.08.13-0.08l0.33,0a1.19,1.19,0,0,0,.9-0.95l2.64-6.61a0.52,0.52,0,0,1,.3-0.42,0.42,0.42,0,0,1,.26.34c0.25,0.58,1.94,4.87,2.61,6.47a1.54,1.54,0,0,0,.93,1.15,2.3,2.3,0,0,0,.44,0c0.09,0,.14,0,0.14.08s-0.09.11-.48,0.11-1.15,0-2,0c-0.19,0-.32,0-0.32-0.09s0-.08.15-0.09a0.17,0.17,0,0,0,.09-0.24l-0.84-2.23a0.1,0.1,0,0,0-.1-0.07h-2.35Zm2.15-.52a0,0,0,0,0,.05-0.06l-1-2.6a0.09,0.09,0,0,0,0-.09,0.11,0.11,0,0,0-.06.09l-1,2.59s0,0.07,0,.07h1.94Z"/><path class="cls-1" d="M135.39,72c0-1.6,0-1.89,0-2.23a0.51,0.51,0,0,0-.45-0.6,2.08,2.08,0,0,0-.41,0c-0.12,0-.18,0-0.18-0.09s0.07-.09.23-0.09c0.56,0,1.22,0,1.44,0l1.48,0a3.36,3.36,0,0,1,1.94.46,1.82,1.82,0,0,1,.71,1.44,2.93,2.93,0,0,1-1.39,2.35c0.94,1.18,1.66,2.11,2.28,2.77a2.08,2.08,0,0,0,1.18.72l0.29,0c0.09,0,.13,0,0.13.08s-0.07.11-.2,0.11h-1a2.15,2.15,0,0,1-1.13-.2,5,5,0,0,1-1.44-1.55c-0.42-.58-0.91-1.29-1-1.45a0.21,0.21,0,0,0-.19-0.07l-0.91,0a0.07,0.07,0,0,0-.09.08v0.15c0,1,0,1.81.06,2.25a0.51,0.51,0,0,0,.41.58,4.67,4.67,0,0,0,.51,0c0.09,0,.13,0,0.13.08s-0.08.11-.21,0.11c-0.61,0-1.39,0-1.55,0s-0.86,0-1.28,0c-0.14,0-.21,0-0.21-0.11s0-.08.17-0.08a1.7,1.7,0,0,0,.38,0,0.56,0.56,0,0,0,.3-0.58c0.05-.44.05-1.27,0.05-2.24V72Zm1.24,0.83a0.16,0.16,0,0,0,.09.19,2.75,2.75,0,0,0,.8.1,1.05,1.05,0,0,0,.75-0.18,1.84,1.84,0,0,0,.62-1.58,1.68,1.68,0,0,0-1.61-1.92,2.32,2.32,0,0,0-.56,0,0.13,0.13,0,0,0-.09.15v3.19Z"/><path class="cls-1" d="M145.3,74.2a2.22,2.22,0,0,0-.24-1.1c-0.07-.17-1.48-2.48-1.85-3a2.44,2.44,0,0,0-.72-0.77,1.08,1.08,0,0,0-.44-0.14c-0.08,0-.16,0-0.16-0.09s0.08-.09.2-0.09l1.33,0c0.22,0,.66,0,1.13,0,0.11,0,.16,0,0.16.09s-0.07.08-.23,0.12a0.19,0.19,0,0,0-.15.19,1,1,0,0,0,.13.36c0.15,0.32,1.62,2.85,1.79,3.14,0.1-.25,1.43-2.56,1.58-2.89a1.35,1.35,0,0,0,.14-0.55,0.25,0.25,0,0,0-.22-0.26,0.19,0.19,0,0,1-.19-0.11c0-.07.05-0.09,0.18-0.09,0.35,0,.68,0,1,0l1.13,0c0.11,0,.19,0,0.19.09s-0.09.1-.2,0.1a1.13,1.13,0,0,0-.46.13,1.56,1.56,0,0,0-.56.51,33.45,33.45,0,0,0-2,3.34,2.51,2.51,0,0,0-.16,1.05v0.86c0,0.17,0,.61,0,1.05a0.52,0.52,0,0,0,.43.58,4.34,4.34,0,0,0,.53,0c0.12,0,.17,0,0.17.08s-0.08.11-.22,0.11c-0.67,0-1.33,0-1.61,0l-1.31,0c-0.15,0-.23,0-0.23-0.11s0.05-.08.17-0.08a1.65,1.65,0,0,0,.37,0,0.54,0.54,0,0,0,.33-0.58c0-.44,0-0.88,0-1.05V74.2Z"/><path class="cls-1" d="M156.77,76.78a0.38,0.38,0,0,1-.25-0.46c0-.75.05-1.56,0.07-1.77s0.05-.35.16-0.35,0.14,0.12.14,0.23a2.79,2.79,0,0,0,.12.69,1.86,1.86,0,0,0,1.93,1.37,1.64,1.64,0,0,0,1.81-1.54,2.56,2.56,0,0,0-1.33-2.16l-0.62-.49c-1.49-1.16-2-2.11-2-3.2,0-1.49,1.24-2.56,3.12-2.56a6.5,6.5,0,0,1,1.8.23,0.18,0.18,0,0,1,.19.16c0,0.18-.05.57-0.05,1.62,0,0.3,0,.41-0.15.41s-0.14-.08-0.14-0.24a1.63,1.63,0,0,0-.35-0.89,1.72,1.72,0,0,0-1.48-.66,1.42,1.42,0,0,0-1.61,1.39c0,0.62.31,1.1,1.43,1.95L160,70.77c1.62,1.26,2.22,2.16,2.22,3.45a2.73,2.73,0,0,1-1.27,2.35,3.9,3.9,0,0,1-2.15.55A4.74,4.74,0,0,1,156.77,76.78Z"/><path class="cls-1" d="M165.37,72c0-1.6,0-1.89,0-2.23a0.52,0.52,0,0,0-.46-0.6,2.08,2.08,0,0,0-.41,0c-0.12,0-.18,0-0.18-0.09s0.07-.09.23-0.09c0.56,0,1.22,0,1.52,0s2.43,0,2.63,0a3.73,3.73,0,0,0,.45-0.06,1,1,0,0,1,.17,0c0.05,0,.06,0,0.06.1s-0.05.2-.08,0.68c0,0.1,0,.57,0,0.69a0.12,0.12,0,0,1-.11.12c-0.07,0-.09-0.05-0.09-0.15A1.2,1.2,0,0,0,169,70a0.66,0.66,0,0,0-.71-0.38c-0.18,0-1.28,0-1.49,0-0.05,0-.07,0-0.07.11V72.3c0,0.07,0,.12.07,0.12,0.23,0,1.44,0,1.68,0a0.74,0.74,0,0,0,.5-0.16,0.29,0.29,0,0,1,.17-0.14,0.07,0.07,0,0,1,.07.09c0,0.06-.05.23-0.09,0.77,0,0.21,0,.63,0,0.71s0,0.2-.09.2a0.08,0.08,0,0,1-.09-0.09,2.78,2.78,0,0,0,0-.38,0.57,0.57,0,0,0-.59-0.41c-0.2,0-1.24,0-1.49,0-0.05,0-.06,0-0.06.1v0.83c0,0.36,0,1.33,0,1.63,0,0.73.19,0.88,1.26,0.88a2.65,2.65,0,0,0,1-.13,0.89,0.89,0,0,0,.48-0.78c0-.12,0-0.16.11-0.16s0.09,0.08.09,0.19a8,8,0,0,1-.14,1.17c-0.07.27-.17,0.27-0.57,0.27-1.59,0-2.29-.06-2.91-0.06-0.24,0-.9,0-1.32,0-0.14,0-.21,0-0.21-0.11s0-.08.17-0.08a1.68,1.68,0,0,0,.38,0,0.56,0.56,0,0,0,.31-0.58c0.05-.44.05-1.27,0.05-2.24V72Z"/><path class="cls-1" d="M172.81,72c0-1.6,0-1.89,0-2.23a0.52,0.52,0,0,0-.45-0.6,2.12,2.12,0,0,0-.41,0c-0.12,0-.18,0-0.18-0.09S171.82,69,172,69c0.56,0,1.22,0,1.44,0l1.48,0a3.35,3.35,0,0,1,1.94.46,1.82,1.82,0,0,1,.71,1.44,3,3,0,0,1-1.39,2.35c0.94,1.18,1.66,2.11,2.28,2.77a2.08,2.08,0,0,0,1.18.72l0.29,0c0.08,0,.13,0,0.13.08s-0.08.11-.2,0.11h-1a2.14,2.14,0,0,1-1.13-.2,5.07,5.07,0,0,1-1.44-1.55c-0.42-.58-0.9-1.29-1-1.45a0.21,0.21,0,0,0-.19-0.07l-0.92,0a0.07,0.07,0,0,0-.08.08v0.15c0,1,0,1.81.05,2.25a0.51,0.51,0,0,0,.41.58,4.64,4.64,0,0,0,.51,0c0.08,0,.13,0,0.13.08s-0.07.11-.21,0.11c-0.61,0-1.39,0-1.55,0s-0.86,0-1.28,0c-0.14,0-.21,0-0.21-0.11s0-.08.17-0.08a1.68,1.68,0,0,0,.38,0,0.57,0.57,0,0,0,.31-0.58c0.05-.44.05-1.27,0.05-2.24V72ZM174,72.86a0.16,0.16,0,0,0,.09.19,2.71,2.71,0,0,0,.8.1,1.06,1.06,0,0,0,.75-0.18,1.85,1.85,0,0,0,.62-1.58,1.68,1.68,0,0,0-1.61-1.92,2.26,2.26,0,0,0-.56,0,0.12,0.12,0,0,0-.09.15v3.19Z"/><path class="cls-1" d="M180.57,70a1.05,1.05,0,0,0-.8-0.8,1.71,1.71,0,0,0-.42,0c-0.09,0-.13,0-0.13-0.09s0.12-.09.27-0.09c0.56,0,1.16,0,1.53,0s0.77,0,1.29,0c0.13,0,.24,0,0.24.09s-0.06.09-.16,0.09a0.76,0.76,0,0,0-.41.07,0.25,0.25,0,0,0-.11.22,3.14,3.14,0,0,0,.24.81L183.94,75h0c0.45-1.16,1.82-4.54,2.07-5.24a1.33,1.33,0,0,0,.09-0.39,0.2,0.2,0,0,0-.13-0.2,1.42,1.42,0,0,0-.42-0.05c-0.1,0-.18,0-0.18-0.08s0.09-.11.3-0.11c0.52,0,1,0,1.11,0s0.67,0,1,0c0.14,0,.23,0,0.23.09s-0.07.09-.17,0.09a0.91,0.91,0,0,0-.52.13,2,2,0,0,0-.58.95c-0.41,1-.69,1.55-1.26,2.85l-1.4,3.21c-0.27.61-.34,0.78-0.49,0.78s-0.2-.15-0.4-0.64Z"/><path class="cls-1" d="M189.94,72c0-1.6,0-1.89,0-2.23a0.52,0.52,0,0,0-.36-0.59,1.62,1.62,0,0,0-.38,0c-0.1,0-.17,0-0.17-0.1s0.09-.09.25-0.09c0.4,0,1.06,0,1.37,0s0.88,0,1.29,0c0.14,0,.22,0,0.22.09s-0.06.1-.17,0.1a1.82,1.82,0,0,0-.32,0,0.5,0.5,0,0,0-.39.6c0,0.34,0,.63,0,2.23v1.85c0,1,0,1.85,0,2.3a0.47,0.47,0,0,0,.42.52,4.37,4.37,0,0,0,.53,0c0.12,0,.17,0,0.17.08s-0.09.11-.2,0.11c-0.7,0-1.36,0-1.64,0s-0.91,0-1.33,0c-0.14,0-.21,0-0.21-0.11s0-.08.17-0.08a1.71,1.71,0,0,0,.38,0,0.48,0.48,0,0,0,.3-0.53c0.05-.44.05-1.27,0.05-2.3V72Z"/><path class="cls-1" d="M195.64,75.93a4.16,4.16,0,0,1-.07-6,4.59,4.59,0,0,1,3.32-1.11,10.59,10.59,0,0,1,1.53.1c0.4,0.05.74,0.15,1.05,0.18a0.14,0.14,0,0,1,.16.13c0,0.09,0,.21-0.05.58s0,0.92,0,1.13,0,0.24-.13.24-0.1-.08-0.1-0.23a1.5,1.5,0,0,0-.41-1,3.15,3.15,0,0,0-2.14-.65,2.74,2.74,0,0,0-2,.65,3.93,3.93,0,0,0,2.34,6.47,2.28,2.28,0,0,0,1.93-.59,1.71,1.71,0,0,0,.36-0.69c0-.17.05-0.21,0.14-0.21s0.09,0.07.09,0.16a9.76,9.76,0,0,1-.23,1.4,0.35,0.35,0,0,1-.27.3,6.07,6.07,0,0,1-1.89.24A5.25,5.25,0,0,1,195.64,75.93Z"/><path class="cls-1" d="M204.68,72c0-1.6,0-1.89,0-2.23a0.51,0.51,0,0,0-.45-0.6,2.08,2.08,0,0,0-.41,0c-0.12,0-.18,0-0.18-0.09s0.08-.09.23-0.09c0.56,0,1.22,0,1.52,0s2.43,0,2.63,0a3.89,3.89,0,0,0,.45-0.06,1,1,0,0,1,.17,0c0.05,0,.07,0,0.07.1s-0.05.2-.09,0.68c0,0.1,0,.57-0.05.69a0.12,0.12,0,0,1-.11.12c-0.07,0-.09-0.05-0.09-0.15a1.18,1.18,0,0,0-.06-0.38,0.67,0.67,0,0,0-.71-0.38c-0.18,0-1.28,0-1.49,0-0.05,0-.07,0-0.07.11V72.3c0,0.07,0,.12.07,0.12,0.23,0,1.44,0,1.68,0a0.75,0.75,0,0,0,.51-0.16,0.28,0.28,0,0,1,.17-0.14,0.07,0.07,0,0,1,.07.09,7.64,7.64,0,0,0-.08.77c0,0.21,0,.63,0,0.71s0,0.2-.09.2a0.08,0.08,0,0,1-.1-0.09,2.7,2.7,0,0,0,0-.38,0.57,0.57,0,0,0-.59-0.41c-0.2,0-1.24,0-1.49,0-0.06,0-.07,0-0.07.1v0.83c0,0.36,0,1.33,0,1.63,0,0.73.19,0.88,1.26,0.88a2.67,2.67,0,0,0,1-.13,0.89,0.89,0,0,0,.47-0.78c0-.12,0-0.16.12-0.16s0.08,0.08.08,0.19a8,8,0,0,1-.14,1.17c-0.07.27-.17,0.27-0.57,0.27-1.59,0-2.29-.06-2.91-0.06-0.24,0-.91,0-1.33,0-0.14,0-.21,0-0.21-0.11s0-.08.17-0.08a1.7,1.7,0,0,0,.38,0,0.57,0.57,0,0,0,.3-0.58c0.05-.44.05-1.27,0.05-2.24V72Z"/><rect class="cls-2" x="0.7" y="47.41" width="208.61" height="65.18"/><path class="cls-1" d="M40.22,58.78A60.24,60.24,0,0,1,55.87,50c8.41-2.93,18.79-2.38,21.28-1.93,1.32,0.23,2.25.92,2.17,1.52-0.12.89-2.43,0.53-2.43,0.53S65.37,48.72,56.63,52a70.67,70.67,0,0,0-16.09,9S30.23,58,21.46,60.33C10.67,63.2,2.73,72.46,2.73,72.46S9,61.33,20.82,58.42A36.2,36.2,0,0,1,40.22,58.78Z"/><path class="cls-1" d="M53.82,91.6a60.21,60.21,0,0,1,15.65-8.76c8.41-2.93,18.79-2.38,21.28-1.93,1.32,0.23,2.25.92,2.17,1.52-0.12.89-2.43,0.53-2.43,0.53S79,81.55,70.23,84.86a62.07,62.07,0,0,0-15.5,8.87s-10.91-2.91-19.67-.57C24.27,96,16.33,105.29,16.33,105.29s6.27-11.14,18.08-14A36.22,36.22,0,0,1,53.82,91.6Z"/><path class="cls-1" d="M54.23,92.13s8.28-6.51,17.91-7.43,18.38,2.77,20.36,4,1.85,1.76,1.67,1.93-1.45-.22-2.55-0.7-9.54-4.66-19.26-3.65-17.6,7.43-17.6,7.43a33.47,33.47,0,0,0-17.22,3.47c-8.27,4.4-14.9,12.57-16.75,14.95s5.89-11.52,16.4-16.36S54.23,92.13,54.23,92.13Z"/><path class="cls-1" d="M1.41,74.94l14.17,31.79S3.55,74.94,2.7,73.86,0.84,72.77,1,73.43A13.31,13.31,0,0,0,1.41,74.94Z"/><path class="cls-1" d="M79.39,58.64L93.56,90.43s-12-31.79-12.89-32.86-1.84-1.1-1.72-.43A6.48,6.48,0,0,0,79.39,58.64Z"/><path class="cls-1" d="M8.69,79.71L22.86,111.5S10.84,79.71,10,78.64s-1.86-1.09-1.72-.43A14.63,14.63,0,0,0,8.69,79.71Z"/><path class="cls-1" d="M39.82,60.65s9.36,21.88,10,23.15c1.34,2.84,4.26,9.33,4.77,9.12s-2.48-7.65-3.25-9.63c-0.84-2.13-9.76-22.82-9.94-23.21s-0.72-1.23-1.32-1S39.82,60.65,39.82,60.65Z"/></svg>