<?xml version="1.0" encoding="UTF-8" standalone="no"?>
<svg
   xmlns:dc="http://purl.org/dc/elements/1.1/"
   xmlns:cc="http://creativecommons.org/ns#"
   xmlns:rdf="http://www.w3.org/1999/02/22-rdf-syntax-ns#"
   xmlns:svg="http://www.w3.org/2000/svg"
   xmlns="http://www.w3.org/2000/svg"
   viewBox="0 0 409.46667 103.38667"
   height="103.38667"
   width="409.46667"
   xml:space="preserve"
   id="svg2"
   version="1.1"><metadata
     id="metadata8"><rdf:RDF><cc:Work
         rdf:about=""><dc:format>image/svg+xml</dc:format><dc:type
           rdf:resource="http://purl.org/dc/dcmitype/StillImage" /></cc:Work></rdf:RDF></metadata><defs
     id="defs6" /><g
     transform="matrix(1.3333333,0,0,-1.3333333,0,103.38667)"
     id="g10"><g
       transform="scale(0.1)"
       id="g12"><path
         id="path14"
         style="fill:#231f20;fill-opacity:1;fill-rule:nonzero;stroke:none"
         d="m 811.387,193.195 c 0,-6.679 -2.457,-11.953 -7.36,-15.859 -4.894,-3.898 -11.422,-5.859 -19.55,-5.859 -9.766,0 -17.258,1.082 -22.473,3.23 v 5.578 c 5.762,-2.433 13.101,-3.664 22.039,-3.664 6.562,0 11.762,1.504 15.609,4.512 3.856,3.008 5.774,6.953 5.774,11.836 0,3.039 -0.637,5.539 -1.914,7.519 -1.282,2.004 -3.356,3.797 -6.239,5.442 -2.875,1.64 -7.105,3.418 -12.683,5.312 -8.168,2.813 -13.809,5.848 -16.93,9.102 -3.113,3.269 -4.672,7.617 -4.672,13.047 0,5.984 2.344,10.847 7.028,14.629 4.679,3.765 10.711,5.652 18.074,5.652 7.512,0 14.566,-1.414 21.164,-4.266 l -2.024,-4.804 c -6.64,2.769 -12.984,4.148 -19.031,4.148 -5.91,0 -10.609,-1.367 -14.113,-4.102 -3.496,-2.734 -5.246,-6.453 -5.246,-11.152 0,-2.961 0.539,-5.371 1.613,-7.273 1.07,-1.887 2.84,-3.594 5.274,-5.118 2.441,-1.503 6.64,-3.32 12.578,-5.441 6.238,-2.148 10.918,-4.238 14.058,-6.258 3.133,-2.023 5.418,-4.316 6.86,-6.894 1.445,-2.571 2.164,-5.676 2.164,-9.317" /><path
         id="path16"
         style="fill:#231f20;fill-opacity:1;fill-rule:nonzero;stroke:none"
         d="m 870.609,172.57 v 38.551 c 0,5.996 -1.254,10.344 -3.769,13.051 -2.52,2.723 -6.418,4.07 -11.703,4.07 -7.11,0 -12.317,-1.789 -15.617,-5.379 -3.297,-3.586 -4.946,-9.414 -4.946,-17.48 V 172.57 h -5.414 v 85.098 h 5.414 v -27.07 l -0.273,-7.602 h 0.383 c 2.218,3.578 5.027,6.164 8.421,7.766 3.387,1.609 7.602,2.402 12.633,2.402 13.485,0 20.235,-7.226 20.235,-21.711 V 172.57 h -5.364" /><path
         id="path18"
         style="fill:#231f20;fill-opacity:1;fill-rule:nonzero;stroke:none"
         d="m 911.676,176.398 c 6.344,0 11.347,1.825 15.012,5.45 3.664,3.632 5.496,8.66 5.496,15.117 v 5.848 l -10.391,-0.442 c -8.348,-0.387 -14.305,-1.687 -17.855,-3.902 -3.555,-2.199 -5.333,-5.637 -5.333,-10.313 0,-3.711 1.141,-6.601 3.415,-8.664 2.281,-2.051 5.5,-3.094 9.656,-3.094 z m 21.875,-3.828 -1.367,9.414 h -0.438 c -2.984,-3.828 -6.062,-6.543 -9.219,-8.125 -3.148,-1.582 -6.879,-2.382 -11.179,-2.382 -5.828,0 -10.371,1.503 -13.618,4.492 -3.25,2.984 -4.871,7.129 -4.871,12.41 0,5.793 2.418,10.305 7.246,13.508 4.836,3.211 11.825,4.91 20.981,5.086 l 11.316,0.324 v 3.945 c 0,5.653 -1.148,9.918 -3.449,12.793 -2.293,2.879 -5.988,4.317 -11.098,4.317 -5.5,0 -11.21,-1.528 -17.117,-4.59 l -2.023,4.707 c 6.527,3.054 12.98,4.59 19.359,4.59 6.531,0 11.403,-1.7 14.629,-5.09 3.227,-3.391 4.84,-8.66 4.84,-15.86 V 172.57 h -3.992" /><path
         id="path20"
         style="fill:#231f20;fill-opacity:1;fill-rule:nonzero;stroke:none"
         d="m 982.441,233.164 c 2.516,0 5.215,-0.242 8.094,-0.762 l -1.039,-5.195 c -2.48,0.625 -5.055,0.93 -7.711,0.93 -5.066,0 -9.222,-2.149 -12.469,-6.457 -3.246,-4.285 -4.867,-9.735 -4.867,-16.297 V 172.57 h -5.418 v 59.453 h 4.598 l 0.547,-10.722 h 0.387 c 2.433,4.375 5.046,7.449 7.816,9.219 2.766,1.777 6.129,2.644 10.062,2.644" /><path
         id="path22"
         style="fill:#231f20;fill-opacity:1;fill-rule:nonzero;stroke:none"
         d="m 1010.28,172.57 h -5.42 v 59.453 h 5.42 z m -6.18,75.965 c 0,3.496 1.14,5.246 3.44,5.246 1.13,0 2.02,-0.453 2.66,-1.371 0.63,-0.894 0.95,-2.195 0.95,-3.875 0,-1.64 -0.32,-2.93 -0.95,-3.887 -0.64,-0.937 -1.53,-1.414 -2.66,-1.414 -2.3,0 -3.44,1.778 -3.44,5.301" /><path
         id="path24"
         style="fill:#231f20;fill-opacity:1;fill-rule:nonzero;stroke:none"
         d="m 1073.87,172.57 v 38.551 c 0,5.996 -1.26,10.344 -3.77,13.051 -2.52,2.723 -6.42,4.07 -11.71,4.07 -7.11,0 -12.31,-1.789 -15.61,-5.379 -3.3,-3.586 -4.95,-9.414 -4.95,-17.48 V 172.57 h -5.41 v 59.453 h 4.59 l 1.04,-8.156 h 0.33 c 3.86,6.211 10.74,9.297 20.62,9.297 13.49,0 20.23,-7.226 20.23,-21.711 V 172.57 h -5.36" /><path
         id="path26"
         style="fill:#231f20;fill-opacity:1;fill-rule:nonzero;stroke:none"
         d="m 1103.51,213.477 c 0,-4.59 1.4,-8.145 4.19,-10.692 2.78,-2.531 6.51,-3.801 11.18,-3.801 4.96,0 8.76,1.258 11.4,3.782 2.65,2.507 3.97,6.16 3.97,10.933 0,5.071 -1.36,8.871 -4.08,11.399 -2.71,2.55 -6.51,3.8 -11.4,3.8 -4.74,0 -8.47,-1.347 -11.18,-4.074 -2.72,-2.707 -4.08,-6.496 -4.08,-11.347 z m -4.54,-50.965 c 0,-8.164 6.07,-12.246 18.21,-12.246 15.61,0 23.41,4.968 23.41,14.922 0,3.582 -1.22,6.171 -3.66,7.773 -2.44,1.609 -6.4,2.402 -11.87,2.402 h -9.73 c -10.91,0 -16.36,-4.277 -16.36,-12.851 z m 48.13,69.511 v -3.781 l -12.31,-0.762 c 3.29,-4.07 4.93,-8.562 4.93,-13.457 0,-5.71 -1.91,-10.363 -5.72,-13.914 -3.8,-3.554 -8.92,-5.332 -15.34,-5.332 -2.7,0 -4.59,0.106 -5.69,0.332 -2.15,-1.125 -3.79,-2.461 -4.92,-3.996 -1.13,-1.535 -1.69,-3.144 -1.69,-4.871 0,-1.887 0.72,-3.281 2.16,-4.152 1.44,-0.879 3.85,-1.317 7.24,-1.317 h 10.39 c 6.46,0 11.4,-1.3 14.82,-3.906 3.43,-2.597 5.14,-6.457 5.14,-11.562 0,-6.27 -2.54,-11.106 -7.62,-14.524 -5.09,-3.41 -12.34,-5.117 -21.74,-5.117 -7.47,0 -13.26,1.453 -17.37,4.328 -4.1,2.879 -6.15,6.883 -6.15,12.031 0,4.082 1.27,7.469 3.8,10.165 2.54,2.707 5.97,4.542 10.31,5.527 -1.78,0.762 -3.22,1.855 -4.29,3.254 -1.08,1.402 -1.61,3.015 -1.61,4.844 0,3.972 2.53,7.468 7.6,10.496 -3.47,1.418 -6.16,3.664 -8.1,6.699 -1.93,3.047 -2.9,6.535 -2.9,10.469 0,5.949 1.89,10.722 5.67,14.308 3.77,3.594 8.86,5.379 15.28,5.379 3.9,0 6.92,-0.379 9.08,-1.141 h 19.03" /><path
         id="path28"
         style="fill:#231f20;fill-opacity:1;fill-rule:nonzero;stroke:none"
         d="m 1225.68,212.883 h 29.48 v -36.485 c -7.74,-3.281 -16.43,-4.921 -26.09,-4.921 -12.61,0 -22.29,3.574 -29.01,10.691 -6.73,7.141 -10.09,17.227 -10.09,30.273 0,8.133 1.67,15.344 5,21.633 3.34,6.289 8.12,11.153 14.33,14.571 6.21,3.425 13.35,5.136 21.41,5.136 8.71,0 16.54,-1.593 23.46,-4.804 l -2.24,-5.039 c -6.93,3.21 -14.11,4.812 -21.55,4.812 -10.53,0 -18.9,-3.254 -25.07,-9.758 -6.18,-6.512 -9.27,-15.293 -9.27,-26.336 0,-12.031 2.93,-21.082 8.8,-27.148 5.87,-6.074 14.5,-9.11 25.87,-9.11 7.36,0 13.62,1.043 18.76,3.125 v 28.106 h -23.79 v 5.254" /><path
         id="path30"
         style="fill:#231f20;fill-opacity:1;fill-rule:nonzero;stroke:none"
         d="m 1298.52,228.352 c -5.72,0 -10.31,-1.887 -13.78,-5.657 -3.47,-3.777 -5.49,-9.218 -6.07,-16.328 h 36.75 c 0,6.895 -1.5,12.278 -4.48,16.164 -2.99,3.887 -7.14,5.821 -12.42,5.821 z m 1.59,-56.875 c -8.65,0 -15.38,2.664 -20.21,7.988 -4.83,5.332 -7.24,12.781 -7.24,22.359 0,9.496 2.33,17.082 6.99,22.785 4.67,5.715 10.96,8.555 18.87,8.555 7,0 12.52,-2.43 16.57,-7.324 4.05,-4.883 6.07,-11.516 6.07,-19.91 v -4.375 h -42.82 c 0.08,-8.157 1.98,-14.395 5.72,-18.703 3.74,-4.286 9.08,-6.454 16.05,-6.454 3.39,0 6.37,0.254 8.94,0.711 2.57,0.481 5.82,1.504 9.76,3.067 v -4.922 c -3.36,-1.453 -6.45,-2.449 -9.3,-2.977 -2.84,-0.531 -5.98,-0.8 -9.4,-0.8" /><path
         id="path32"
         style="fill:#231f20;fill-opacity:1;fill-rule:nonzero;stroke:none"
         d="m 1342.05,202.371 c 0,-8.152 1.8,-14.527 5.39,-19.109 3.59,-4.563 8.67,-6.864 15.23,-6.864 6.56,0 11.64,2.301 15.23,6.864 3.59,4.582 5.39,10.957 5.39,19.109 0,8.203 -1.82,14.582 -5.44,19.094 -3.64,4.523 -8.73,6.777 -15.29,6.777 -6.56,0 -11.62,-2.234 -15.18,-6.75 -3.55,-4.5 -5.33,-10.867 -5.33,-19.121 z m 46.92,0 c 0,-9.683 -2.35,-17.262 -7.05,-22.711 -4.7,-5.449 -11.19,-8.183 -19.47,-8.183 -5.21,0 -9.81,1.257 -13.78,3.777 -3.97,2.512 -7.02,6.125 -9.13,10.832 -2.11,4.695 -3.17,10.137 -3.17,16.285 0,9.707 2.35,17.258 7.05,22.68 4.71,5.41 11.16,8.113 19.36,8.113 8.17,0 14.57,-2.734 19.22,-8.23 4.65,-5.481 6.97,-13 6.97,-22.563" /><path
         id="path34"
         style="fill:#231f20;fill-opacity:1;fill-rule:nonzero;stroke:none"
         d="m 1431.08,233.164 c 2.51,0 5.21,-0.242 8.09,-0.762 l -1.04,-5.195 c -2.48,0.625 -5.05,0.93 -7.71,0.93 -5.06,0 -9.22,-2.149 -12.47,-6.457 -3.24,-4.285 -4.86,-9.735 -4.86,-16.297 V 172.57 h -5.42 v 59.453 h 4.6 l 0.54,-10.722 h 0.38 c 2.44,4.375 5.06,7.449 7.83,9.219 2.76,1.777 6.12,2.644 10.06,2.644" /><path
         id="path36"
         style="fill:#231f20;fill-opacity:1;fill-rule:nonzero;stroke:none"
         d="m 1456.29,213.477 c 0,-4.59 1.39,-8.145 4.18,-10.692 2.79,-2.531 6.52,-3.801 11.19,-3.801 4.95,0 8.75,1.258 11.4,3.782 2.64,2.507 3.96,6.16 3.96,10.933 0,5.071 -1.36,8.871 -4.07,11.399 -2.72,2.55 -6.51,3.8 -11.4,3.8 -4.74,0 -8.47,-1.347 -11.19,-4.074 -2.71,-2.707 -4.07,-6.496 -4.07,-11.347 z m -4.54,-50.965 c 0,-8.164 6.07,-12.246 18.21,-12.246 15.61,0 23.4,4.968 23.4,14.922 0,3.582 -1.22,6.171 -3.66,7.773 -2.44,1.609 -6.39,2.402 -11.86,2.402 h -9.74 c -10.9,0 -16.35,-4.277 -16.35,-12.851 z m 48.12,69.511 v -3.781 l -12.3,-0.762 c 3.28,-4.07 4.92,-8.562 4.92,-13.457 0,-5.71 -1.9,-10.363 -5.71,-13.914 -3.81,-3.554 -8.92,-5.332 -15.34,-5.332 -2.7,0 -4.6,0.106 -5.69,0.332 -2.16,-1.125 -3.8,-2.461 -4.92,-3.996 -1.13,-1.535 -1.7,-3.144 -1.7,-4.871 0,-1.887 0.72,-3.281 2.16,-4.152 1.44,-0.879 3.86,-1.317 7.25,-1.317 h 10.39 c 6.45,0 11.39,-1.3 14.82,-3.906 3.42,-2.597 5.14,-6.457 5.14,-11.562 0,-6.27 -2.54,-11.106 -7.63,-14.524 -5.08,-3.41 -12.33,-5.117 -21.74,-5.117 -7.47,0 -13.26,1.453 -17.36,4.328 -4.1,2.879 -6.15,6.883 -6.15,12.031 0,4.082 1.26,7.469 3.8,10.165 2.53,2.707 5.97,4.542 10.31,5.527 -1.79,0.762 -3.23,1.855 -4.29,3.254 -1.08,1.402 -1.62,3.015 -1.62,4.844 0,3.972 2.54,7.468 7.6,10.496 -3.47,1.418 -6.16,3.664 -8.09,6.699 -1.94,3.047 -2.9,6.535 -2.9,10.469 0,5.949 1.89,10.722 5.66,14.308 3.77,3.594 8.87,5.379 15.28,5.379 3.91,0 6.93,-0.379 9.08,-1.141 h 19.03" /><path
         id="path38"
         style="fill:#231f20;fill-opacity:1;fill-rule:nonzero;stroke:none"
         d="m 1519.73,172.57 h -5.42 v 59.453 h 5.42 z m -6.19,75.965 c 0,3.496 1.15,5.246 3.45,5.246 1.13,0 2.02,-0.453 2.65,-1.371 0.64,-0.894 0.96,-2.195 0.96,-3.875 0,-1.64 -0.32,-2.93 -0.96,-3.887 -0.63,-0.937 -1.52,-1.414 -2.65,-1.414 -2.3,0 -3.45,1.778 -3.45,5.301" /><path
         id="path40"
         style="fill:#231f20;fill-opacity:1;fill-rule:nonzero;stroke:none"
         d="m 1556.09,176.398 c 6.35,0 11.35,1.825 15.02,5.45 3.66,3.632 5.49,8.66 5.49,15.117 v 5.848 l -10.39,-0.442 c -8.34,-0.387 -14.3,-1.687 -17.86,-3.902 -3.55,-2.199 -5.33,-5.637 -5.33,-10.313 0,-3.711 1.15,-6.601 3.42,-8.664 2.28,-2.051 5.5,-3.094 9.65,-3.094 z m 21.87,-3.828 -1.36,9.414 h -0.43 c -2.99,-3.828 -6.07,-6.543 -9.22,-8.125 -3.16,-1.582 -6.89,-2.382 -11.18,-2.382 -5.83,0 -10.37,1.503 -13.63,4.492 -3.24,2.984 -4.86,7.129 -4.86,12.41 0,5.793 2.41,10.305 7.25,13.508 4.83,3.211 11.81,4.91 20.97,5.086 l 11.32,0.324 v 3.945 c 0,5.653 -1.15,9.918 -3.45,12.793 -2.29,2.879 -5.99,4.317 -11.1,4.317 -5.5,0 -11.21,-1.528 -17.12,-4.59 l -2.02,4.707 c 6.53,3.054 12.99,4.59 19.37,4.59 6.52,0 11.39,-1.7 14.62,-5.09 3.23,-3.391 4.84,-8.66 4.84,-15.86 V 172.57 h -4" /><path
         id="path42"
         style="fill:#231f20;fill-opacity:1;fill-rule:nonzero;stroke:none"
         d="m 1607.5,252.531 0.65,-1.093 c -2.73,-9.661 -5.91,-18.442 -9.51,-26.309 h -3.56 c 1.06,3.492 2.16,7.898 3.33,13.199 1.17,5.317 2.06,10.039 2.69,14.203 h 6.4" /><path
         id="path44"
         style="fill:#231f20;fill-opacity:1;fill-rule:nonzero;stroke:none"
         d="m 1658.79,188.047 c 0,-5.313 -2.03,-9.402 -6.07,-12.274 -4.04,-2.863 -9.79,-4.296 -17.23,-4.296 -7.95,0 -14.25,1.226 -18.92,3.671 v 5.848 c 5.98,-2.976 12.28,-4.48 18.92,-4.48 5.87,0 10.34,0.976 13.37,2.918 3.05,1.953 4.57,4.55 4.57,7.793 0,3 -1.21,5.507 -3.64,7.55 -2.42,2.047 -6.41,4.043 -11.94,6.016 -5.95,2.156 -10.12,4.004 -12.53,5.547 -2.4,1.562 -4.22,3.308 -5.44,5.254 -1.22,1.953 -1.83,4.336 -1.83,7.136 0,4.454 1.87,7.969 5.61,10.555 3.73,2.602 8.95,3.879 15.66,3.879 6.42,0 12.5,-1.199 18.26,-3.601 l -2.02,-4.922 c -5.83,2.402 -11.24,3.601 -16.24,3.601 -4.84,0 -8.69,-0.793 -11.54,-2.402 -2.84,-1.602 -4.26,-3.828 -4.26,-6.668 0,-3.098 1.09,-5.586 3.3,-7.442 2.21,-1.859 6.51,-3.937 12.94,-6.234 5.36,-1.93 9.26,-3.672 11.7,-5.223 2.44,-1.543 4.28,-3.308 5.5,-5.281 1.22,-1.965 1.83,-4.277 1.83,-6.945" /><path
         id="path46"
         style="fill:#231f20;fill-opacity:1;fill-rule:nonzero;stroke:none"
         d="m 1766.96,172.57 h -5.64 v 39.325 h -46.71 V 172.57 h -5.57 v 79.961 h 5.57 v -35.5 h 46.71 v 35.5 h 5.64 V 172.57" /><path
         id="path48"
         style="fill:#231f20;fill-opacity:1;fill-rule:nonzero;stroke:none"
         d="m 1795.88,172.57 h -5.41 v 59.453 h 5.41 z m -6.18,75.965 c 0,3.496 1.15,5.246 3.45,5.246 1.13,0 2.02,-0.453 2.66,-1.371 0.63,-0.894 0.95,-2.195 0.95,-3.875 0,-1.64 -0.32,-2.93 -0.95,-3.887 -0.64,-0.937 -1.53,-1.414 -2.66,-1.414 -2.3,0 -3.45,1.778 -3.45,5.301" /><path
         id="path50"
         style="fill:#231f20;fill-opacity:1;fill-rule:nonzero;stroke:none"
         d="m 1854.89,188.047 c 0,-5.313 -2.02,-9.402 -6.07,-12.274 -4.05,-2.863 -9.79,-4.296 -17.22,-4.296 -7.95,0 -14.26,1.226 -18.93,3.671 v 5.848 c 5.99,-2.976 12.29,-4.48 18.93,-4.48 5.87,0 10.33,0.976 13.37,2.918 3.04,1.953 4.57,4.55 4.57,7.793 0,3 -1.21,5.507 -3.65,7.55 -2.42,2.047 -6.4,4.043 -11.94,6.016 -5.95,2.156 -10.12,4.004 -12.53,5.547 -2.4,1.562 -4.22,3.308 -5.44,5.254 -1.22,1.953 -1.83,4.336 -1.83,7.136 0,4.454 1.87,7.969 5.6,10.555 3.74,2.602 8.97,3.879 15.67,3.879 6.42,0 12.5,-1.199 18.27,-3.601 l -2.02,-4.922 c -5.84,2.402 -11.25,3.601 -16.25,3.601 -4.84,0 -8.7,-0.793 -11.54,-2.402 -2.84,-1.602 -4.27,-3.828 -4.27,-6.668 0,-3.098 1.11,-5.586 3.31,-7.442 2.21,-1.859 6.52,-3.937 12.94,-6.234 5.36,-1.93 9.26,-3.672 11.7,-5.223 2.44,-1.543 4.28,-3.308 5.5,-5.281 1.22,-1.965 1.83,-4.277 1.83,-6.945" /><path
         id="path52"
         style="fill:#231f20;fill-opacity:1;fill-rule:nonzero;stroke:none"
         d="m 1888.14,176.289 c 3.42,0 6.42,0.305 8.96,0.879 v -4.375 c -2.62,-0.879 -5.65,-1.316 -9.08,-1.316 -5.24,0 -9.12,1.414 -11.62,4.218 -2.49,2.813 -3.74,7.215 -3.74,13.231 v 38.39 h -8.81 v 3.172 l 8.81,2.461 2.74,13.449 h 2.78 v -14.375 h 17.45 v -4.707 h -17.45 v -37.628 c 0,-4.551 0.8,-7.93 2.41,-10.118 1.6,-2.187 4.12,-3.281 7.55,-3.281" /><path
         id="path54"
         style="fill:#231f20;fill-opacity:1;fill-rule:nonzero;stroke:none"
         d="m 1914.44,202.371 c 0,-8.152 1.8,-14.527 5.39,-19.109 3.58,-4.563 8.66,-6.864 15.22,-6.864 6.57,0 11.64,2.301 15.24,6.864 3.58,4.582 5.39,10.957 5.39,19.109 0,8.203 -1.82,14.582 -5.45,19.094 -3.62,4.523 -8.72,6.777 -15.28,6.777 -6.57,0 -11.62,-2.234 -15.18,-6.75 -3.55,-4.5 -5.33,-10.867 -5.33,-19.121 z m 46.92,0 c 0,-9.683 -2.35,-17.262 -7.05,-22.711 -4.71,-5.449 -11.19,-8.183 -19.47,-8.183 -5.22,0 -9.82,1.257 -13.78,3.777 -3.98,2.512 -7.02,6.125 -9.13,10.832 -2.12,4.695 -3.18,10.137 -3.18,16.285 0,9.707 2.36,17.258 7.06,22.68 4.7,5.41 11.16,8.113 19.36,8.113 8.16,0 14.57,-2.734 19.22,-8.23 4.65,-5.481 6.97,-13 6.97,-22.563" /><path
         id="path56"
         style="fill:#231f20;fill-opacity:1;fill-rule:nonzero;stroke:none"
         d="m 2003.47,233.164 c 2.52,0 5.22,-0.242 8.1,-0.762 l -1.05,-5.195 c -2.48,0.625 -5.05,0.93 -7.7,0.93 -5.07,0 -9.23,-2.149 -12.47,-6.457 -3.26,-4.285 -4.87,-9.735 -4.87,-16.297 V 172.57 h -5.42 v 59.453 h 4.6 l 0.55,-10.722 h 0.38 c 2.44,4.375 5.05,7.449 7.82,9.219 2.77,1.777 6.13,2.644 10.06,2.644" /><path
         id="path58"
         style="fill:#231f20;fill-opacity:1;fill-rule:nonzero;stroke:none"
         d="m 2015.93,232.023 h 5.58 l 12.58,-33.363 c 3.83,-10.242 6.26,-17.144 7.27,-20.73 h 0.33 c 1.53,4.707 4.03,11.73 7.49,21.054 l 12.58,33.039 h 5.58 l -26.63,-69.074 c -2.16,-5.605 -3.96,-9.402 -5.42,-11.375 -1.46,-1.972 -3.17,-3.449 -5.11,-4.433 -1.95,-0.981 -4.32,-1.477 -7.08,-1.477 -2.08,0 -4.39,0.383 -6.95,1.152 v 4.7 c 2.12,-0.567 4.4,-0.871 6.83,-0.871 1.87,0 3.51,0.441 4.93,1.308 1.42,0.879 2.71,2.246 3.85,4.074 1.16,1.844 2.48,4.766 4,8.75 1.51,3.993 2.49,6.59 2.93,7.793 l -22.76,59.453" /><path
         id="path60"
         style="fill:#231f20;fill-opacity:1;fill-rule:nonzero;stroke:none"
         d="m 2121.31,236.887 c 0,-2.871 0.74,-5.539 2.19,-7.989 1.46,-2.433 4.24,-5.605 8.31,-9.511 5.8,3.105 9.83,6.004 12.09,8.687 2.27,2.719 3.39,5.793 3.39,9.25 0,3.43 -1.12,6.203 -3.39,8.34 -2.26,2.129 -5.32,3.195 -9.19,3.195 -4.15,0 -7.43,-1.046 -9.81,-3.164 -2.39,-2.109 -3.59,-5.05 -3.59,-8.808 z m 11.21,-60.489 c 4.67,0 8.95,0.801 12.83,2.383 3.88,1.582 7.7,4.266 11.46,8.004 l -26.41,26.528 c -4.97,-2.618 -8.54,-4.856 -10.76,-6.7 -2.2,-1.828 -3.8,-3.828 -4.8,-5.988 -1.01,-2.148 -1.51,-4.656 -1.51,-7.551 0,-5.203 1.69,-9.293 5.08,-12.246 3.4,-2.945 8.1,-4.43 14.11,-4.43 z m -24.88,16.465 c 0,5.028 1.34,9.325 4.03,12.852 2.67,3.543 7.68,7.273 15,11.211 l -4.1,4.48 c -2.4,2.598 -4.19,5.129 -5.36,7.61 -1.16,2.476 -1.75,5.066 -1.75,7.761 0,5.227 1.75,9.344 5.23,12.414 3.48,3.067 8.15,4.59 14.02,4.59 5.66,0 10.13,-1.476 13.43,-4.426 3.3,-2.957 4.95,-7.031 4.95,-12.253 0,-3.829 -1.28,-7.325 -3.83,-10.528 -2.55,-3.183 -7.17,-6.719 -13.84,-10.636 l 24.72,-24.989 c 2.23,2.625 4.12,5.496 5.69,8.582 1.57,3.106 2.93,6.77 4.11,10.996 h 5.24 c -2.29,-8.972 -6.1,-16.738 -11.43,-23.3 l 14.55,-14.657 h -7.39 l -10.54,10.782 c -3.36,-3.282 -6.35,-5.676 -8.98,-7.2 -2.63,-1.504 -5.5,-2.664 -8.61,-3.464 -3.12,-0.801 -6.66,-1.211 -10.64,-1.211 -7.61,0 -13.61,1.89 -17.97,5.632 -4.34,3.758 -6.53,9.012 -6.53,15.754" /><path
         id="path62"
         style="fill:#231f20;fill-opacity:1;fill-rule:nonzero;stroke:none"
         d="m 2259.78,248.645 c -10.03,0 -17.92,-3.204 -23.68,-9.629 -5.76,-6.407 -8.64,-15.196 -8.64,-26.36 0,-11.394 2.71,-20.261 8.15,-26.57 5.43,-6.309 13.19,-9.465 23.29,-9.465 6.71,0 12.87,0.859 18.49,2.57 v -4.921 c -5.29,-1.86 -11.89,-2.793 -19.8,-2.793 -11.23,0 -20.07,3.64 -26.52,10.886 -6.46,7.254 -9.68,17.395 -9.68,30.403 0,8.132 1.53,15.3 4.62,21.492 3.08,6.211 7.51,10.996 13.29,14.355 5.77,3.379 12.49,5.059 20.15,5.059 7.8,0 14.78,-1.445 20.95,-4.375 l -2.25,-5.027 c -5.83,2.929 -11.95,4.375 -18.37,4.375" /><path
         id="path64"
         style="fill:#231f20;fill-opacity:1;fill-rule:nonzero;stroke:none"
         d="m 2300.8,232.023 v -38.507 c 0,-5.977 1.26,-10.321 3.77,-13.036 2.51,-2.714 6.41,-4.082 11.7,-4.082 7.07,0 12.28,1.797 15.61,5.36 3.34,3.586 5.01,9.394 5.01,17.453 v 32.812 h 5.36 V 172.57 h -4.6 l -0.98,8.203 h -0.33 c -3.86,-6.195 -10.74,-9.296 -20.61,-9.296 -13.54,0 -20.3,7.246 -20.3,21.718 v 38.828 h 5.37" /><path
         id="path66"
         style="fill:#231f20;fill-opacity:1;fill-rule:nonzero;stroke:none"
         d="m 2364.39,172.57 h 5.4102 v 85.0977 h -5.4102 z" /><path
         id="path68"
         style="fill:#231f20;fill-opacity:1;fill-rule:nonzero;stroke:none"
         d="m 2407.64,176.289 c 3.43,0 6.43,0.305 8.98,0.879 v -4.375 c -2.63,-0.879 -5.66,-1.316 -9.09,-1.316 -5.24,0 -9.12,1.414 -11.62,4.218 -2.49,2.813 -3.74,7.215 -3.74,13.231 v 38.39 h -8.81 v 3.172 l 8.81,2.461 2.74,13.449 h 2.78 v -14.375 h 17.45 v -4.707 h -17.45 v -37.628 c 0,-4.551 0.8,-7.93 2.41,-10.118 1.6,-2.187 4.12,-3.281 7.54,-3.281" /><path
         id="path70"
         style="fill:#231f20;fill-opacity:1;fill-rule:nonzero;stroke:none"
         d="m 2436.41,232.023 v -38.507 c 0,-5.977 1.26,-10.321 3.77,-13.036 2.52,-2.714 6.43,-4.082 11.71,-4.082 7.07,0 12.28,1.797 15.61,5.36 3.33,3.586 5,9.394 5,17.453 v 32.812 h 5.37 V 172.57 h -4.6 l -0.98,8.203 h -0.33 c -3.86,-6.195 -10.74,-9.296 -20.62,-9.296 -13.52,0 -20.29,7.246 -20.29,21.718 v 38.828 h 5.36" /><path
         id="path72"
         style="fill:#231f20;fill-opacity:1;fill-rule:nonzero;stroke:none"
         d="m 2523.42,233.164 c 2.51,0 5.21,-0.242 8.09,-0.762 l -1.04,-5.195 c -2.49,0.625 -5.05,0.93 -7.71,0.93 -5.07,0 -9.23,-2.149 -12.47,-6.457 -3.25,-4.285 -4.87,-9.735 -4.87,-16.297 V 172.57 H 2500 v 59.453 h 4.6 l 0.55,-10.722 h 0.38 c 2.44,4.375 5.05,7.449 7.82,9.219 2.77,1.777 6.13,2.644 10.07,2.644" /><path
         id="path74"
         style="fill:#231f20;fill-opacity:1;fill-rule:nonzero;stroke:none"
         d="m 2568.27,228.352 c -5.74,0 -10.33,-1.887 -13.79,-5.657 -3.46,-3.777 -5.48,-9.218 -6.07,-16.328 h 36.75 c 0,6.895 -1.49,12.278 -4.48,16.164 -3,3.887 -7.13,5.821 -12.41,5.821 z m 1.58,-56.875 c -8.64,0 -15.38,2.664 -20.21,7.988 -4.82,5.332 -7.24,12.781 -7.24,22.359 0,9.496 2.33,17.082 7,22.785 4.66,5.715 10.95,8.555 18.87,8.555 6.99,0 12.52,-2.43 16.56,-7.324 4.05,-4.883 6.07,-11.516 6.07,-19.91 v -4.375 h -42.82 c 0.07,-8.157 1.98,-14.395 5.71,-18.703 3.74,-4.286 9.1,-6.454 16.06,-6.454 3.39,0 6.37,0.254 8.94,0.711 2.57,0.481 5.82,1.504 9.76,3.067 v -4.922 c -3.35,-1.453 -6.46,-2.449 -9.3,-2.977 -2.84,-0.531 -5.97,-0.8 -9.4,-0.8" /><path
         id="path76"
         style="fill:#231f20;fill-opacity:1;fill-rule:nonzero;stroke:none"
         d="m 2644.05,212.656 c 0,-11.445 2.56,-20.285 7.65,-26.551 5.1,-6.242 12.43,-9.375 21.99,-9.375 9.63,0 16.98,3.106 22.07,9.297 5.07,6.211 7.62,15.078 7.62,26.629 0,11.524 -2.55,20.364 -7.62,26.496 -5.09,6.153 -12.41,9.215 -21.97,9.215 -9.51,0 -16.85,-3.082 -22.01,-9.293 -5.15,-6.191 -7.73,-15 -7.73,-26.418 z m 65.4,0 c 0,-12.683 -3.17,-22.722 -9.51,-30.105 -6.35,-7.383 -15.1,-11.074 -26.25,-11.074 -11.12,0 -19.86,3.691 -26.19,11.074 -6.35,7.383 -9.53,17.461 -9.53,30.215 0,12.73 3.21,22.754 9.6,30.058 6.4,7.313 15.14,10.957 26.22,10.957 11.17,0 19.9,-3.664 26.21,-11.015 6.29,-7.344 9.45,-17.375 9.45,-30.11" /><path
         id="path78"
         style="fill:#231f20;fill-opacity:1;fill-rule:nonzero;stroke:none"
         d="m 2770.15,172.57 v 38.551 c 0,5.996 -1.25,10.344 -3.77,13.051 -2.52,2.723 -6.41,4.07 -11.7,4.07 -7.11,0 -12.32,-1.789 -15.61,-5.379 -3.3,-3.586 -4.95,-9.414 -4.95,-17.48 V 172.57 h -5.41 v 59.453 h 4.59 l 1.03,-8.156 h 0.33 c 3.87,6.211 10.74,9.297 20.62,9.297 13.49,0 20.23,-7.226 20.23,-21.711 V 172.57 h -5.36" /><path
         id="path80"
         style="fill:#231f20;fill-opacity:1;fill-rule:nonzero;stroke:none"
         d="m 2797.01,172.57 h 5.4102 v 85.0977 h -5.4102 z" /><path
         id="path82"
         style="fill:#231f20;fill-opacity:1;fill-rule:nonzero;stroke:none"
         d="m 2829.99,172.57 h -5.42 v 59.453 h 5.42 z m -6.19,75.965 c 0,3.496 1.16,5.246 3.45,5.246 1.13,0 2.01,-0.453 2.65,-1.371 0.64,-0.894 0.95,-2.195 0.95,-3.875 0,-1.64 -0.31,-2.93 -0.95,-3.887 -0.64,-0.937 -1.52,-1.414 -2.65,-1.414 -2.29,0 -3.45,1.778 -3.45,5.301" /><path
         id="path84"
         style="fill:#231f20;fill-opacity:1;fill-rule:nonzero;stroke:none"
         d="m 2893.59,172.57 v 38.551 c 0,5.996 -1.26,10.344 -3.78,13.051 -2.51,2.723 -6.41,4.07 -11.7,4.07 -7.11,0 -12.32,-1.789 -15.61,-5.379 -3.3,-3.586 -4.96,-9.414 -4.96,-17.48 V 172.57 h -5.41 v 59.453 h 4.59 l 1.05,-8.156 h 0.32 c 3.87,6.211 10.73,9.297 20.62,9.297 13.49,0 20.23,-7.226 20.23,-21.711 V 172.57 h -5.35" /><path
         id="path86"
         style="fill:#231f20;fill-opacity:1;fill-rule:nonzero;stroke:none"
         d="m 2942.85,228.352 c -5.74,0 -10.33,-1.887 -13.78,-5.657 -3.47,-3.777 -5.49,-9.218 -6.08,-16.328 h 36.75 c 0,6.895 -1.48,12.278 -4.48,16.164 -3,3.887 -7.12,5.821 -12.41,5.821 z m 1.58,-56.875 c -8.64,0 -15.38,2.664 -20.21,7.988 -4.82,5.332 -7.24,12.781 -7.24,22.359 0,9.496 2.33,17.082 7,22.785 4.66,5.715 10.95,8.555 18.87,8.555 7,0 12.52,-2.43 16.57,-7.324 4.04,-4.883 6.06,-11.516 6.06,-19.91 v -4.375 h -42.82 c 0.07,-8.157 1.98,-14.395 5.72,-18.703 3.73,-4.286 9.1,-6.454 16.05,-6.454 3.39,0 6.38,0.254 8.94,0.711 2.57,0.481 5.82,1.504 9.76,3.067 v -4.922 c -3.35,-1.453 -6.45,-2.449 -9.3,-2.977 -2.84,-0.531 -5.96,-0.8 -9.4,-0.8" /><path
         id="path88"
         style="fill:#231f20;fill-opacity:1;fill-rule:nonzero;stroke:none"
         d="m 838.406,409.465 c 0,28.191 -12.445,42.289 -37.351,42.289 h -14.809 v -85.473 h 11.938 c 26.82,0 40.222,14.395 40.222,43.184 z m 28.918,0.726 c 0,-21.617 -6.152,-38.168 -18.457,-49.656 -12.301,-11.5 -30.062,-17.242 -53.285,-17.242 h -37.176 v 131.262 h 41.211 c 21.434,0 38.074,-5.645 49.93,-16.965 11.848,-11.305 17.777,-27.11 17.777,-47.399" /><path
         id="path90"
         style="fill:#231f20;fill-opacity:1;fill-rule:nonzero;stroke:none"
         d="m 921.602,343.293 h -27.383 v 100.379 h 27.383 z m -28.555,126.324 c 0,8.934 4.973,13.391 14.902,13.391 9.942,0 14.91,-4.457 14.91,-13.391 0,-4.246 -1.242,-7.554 -3.722,-9.91 -2.492,-2.363 -6.215,-3.555 -11.188,-3.555 -9.929,0 -14.902,4.489 -14.902,13.465" /><path
         id="path92"
         style="fill:#231f20;fill-opacity:1;fill-rule:nonzero;stroke:none"
         d="m 972.012,410.82 c 0,-5.457 1.242,-9.765 3.73,-12.933 2.481,-3.176 6.27,-4.762 11.352,-4.762 5.152,0 8.922,1.586 11.312,4.762 2.394,3.168 3.604,7.476 3.604,12.933 0,12.086 -4.975,18.125 -14.916,18.125 -10.051,0 -15.082,-6.039 -15.082,-18.125 z m -9.969,-81.718 c 0,-3.77 1.809,-6.731 5.434,-8.887 3.621,-2.156 8.695,-3.242 15.222,-3.242 9.821,0 17.511,1.355 23.071,4.054 5.57,2.684 8.36,6.368 8.36,11.043 0,3.77 -1.65,6.368 -4.95,7.801 -3.29,1.438 -8.38,2.16 -15.258,2.16 h -14.188 c -5.031,0 -9.238,-1.179 -12.609,-3.554 -3.387,-2.364 -5.082,-5.481 -5.082,-9.375 z m 77.497,114.57 v -13.914 l -15.72,-4.035 c 2.88,-4.5 4.31,-9.516 4.31,-15.098 0,-10.77 -3.75,-19.164 -11.27,-25.18 -7.51,-6.019 -17.942,-9.027 -31.29,-9.027 l -4.941,0.273 -4.035,0.457 c -2.817,-2.168 -4.223,-4.558 -4.223,-7.199 0,-3.941 5.031,-5.914 15.09,-5.914 h 17.059 c 11.01,0 19.41,-2.363 25.19,-7.101 5.77,-4.727 8.65,-11.668 8.65,-20.829 0,-11.73 -4.89,-20.82 -14.67,-27.296 -9.79,-6.465 -23.846,-9.688 -42.159,-9.688 -14.008,0 -24.711,2.434 -32.101,7.317 -7.395,4.882 -11.086,11.718 -11.086,20.507 0,6.051 1.886,11.114 5.648,15.172 3.778,4.074 9.313,6.977 16.613,8.711 -2.808,1.203 -5.261,3.156 -7.359,5.891 -2.094,2.726 -3.144,5.605 -3.144,8.652 0,3.848 1.105,7.031 3.32,9.57 2.219,2.551 5.422,5.051 9.609,7.497 -5.265,2.281 -9.437,5.929 -12.519,10.953 -3.09,5.027 -4.629,10.961 -4.629,17.781 0,10.953 3.558,19.43 10.683,25.406 7.125,5.985 17.301,8.981 30.528,8.981 2.816,0 6.152,-0.262 10.015,-0.762 3.861,-0.512 6.331,-0.879 7.411,-1.125 h 35.02" /><path
         id="path94"
         style="fill:#231f20;fill-opacity:1;fill-rule:nonzero;stroke:none"
         d="m 1085.28,343.293 h -27.38 v 100.379 h 27.38 z m -28.55,126.324 c 0,8.934 4.97,13.391 14.9,13.391 9.94,0 14.91,-4.457 14.91,-13.391 0,-4.246 -1.25,-7.554 -3.73,-9.91 -2.48,-2.363 -6.21,-3.555 -11.18,-3.555 -9.93,0 -14.9,4.489 -14.9,13.465" /><path
         id="path96"
         style="fill:#231f20;fill-opacity:1;fill-rule:nonzero;stroke:none"
         d="m 1158.14,363.313 c 4.8,0 10.54,1.054 17.25,3.14 v -20.387 c -6.83,-3.046 -15.21,-4.582 -25.15,-4.582 -10.95,0 -18.93,2.786 -23.92,8.321 -5,5.539 -7.5,13.828 -7.5,24.902 v 48.402 h -13.11 v 11.579 l 15.09,9.16 7.9,21.191 h 17.5 v -21.367 h 28.11 v -20.563 h -28.11 v -48.402 c 0,-3.879 1.09,-6.746 3.28,-8.613 2.19,-1.856 5.08,-2.781 8.66,-2.781" /><path
         id="path98"
         style="fill:#231f20;fill-opacity:1;fill-rule:nonzero;stroke:none"
         d="m 1253.18,389.805 -10.59,-0.371 c -7.96,-0.231 -13.88,-1.664 -17.78,-4.305 -3.89,-2.637 -5.83,-6.641 -5.83,-12.031 0,-7.727 4.43,-11.582 13.29,-11.582 6.34,0 11.41,1.824 15.22,5.488 3.79,3.652 5.69,8.484 5.69,14.539 z m 8.08,-46.512 -5.28,13.641 h -0.73 c -4.61,-5.813 -9.35,-9.825 -14.22,-12.071 -4.89,-2.254 -11.25,-3.379 -19.09,-3.379 -9.64,0 -17.23,2.762 -22.76,8.274 -5.54,5.496 -8.31,13.347 -8.31,23.515 0,10.668 3.73,18.512 11.18,23.575 7.45,5.058 18.69,7.859 33.72,8.39 l 17.41,0.547 v 4.406 c 0,10.172 -5.2,15.258 -15.62,15.258 -8.02,0 -17.45,-2.422 -28.28,-7.273 l -9.07,18.496 c 11.56,6.043 24.37,9.066 38.43,9.066 13.47,0 23.8,-2.925 30.98,-8.793 7.18,-5.867 10.77,-14.793 10.77,-26.754 v -66.898 h -19.13" /><path
         id="path100"
         style="fill:#231f20;fill-opacity:1;fill-rule:nonzero;stroke:none"
         d="m 1310.43,343.293 h 27.3789 V 483.008 H 1310.43 Z" /><path
         id="path102"
         style="fill:#231f20;fill-opacity:1;fill-rule:nonzero;stroke:none"
         d="m 1420.14,343.293 v 131.262 h 27.83 V 366.281 h 53.26 v -22.988 h -81.09" /><path
         id="path104"
         style="fill:#231f20;fill-opacity:1;fill-rule:nonzero;stroke:none"
         d="m 1551.1,343.293 h -27.38 v 100.379 h 27.38 z m -28.56,126.324 c 0,8.934 4.98,13.391 14.92,13.391 9.93,0 14.9,-4.457 14.9,-13.391 0,-4.246 -1.24,-7.554 -3.73,-9.91 -2.47,-2.363 -6.21,-3.555 -11.17,-3.555 -9.94,0 -14.92,4.489 -14.92,13.465" /><path
         id="path106"
         style="fill:#231f20;fill-opacity:1;fill-rule:nonzero;stroke:none"
         d="m 1628.72,423.656 c -6.77,0 -11.7,-2.093 -14.81,-6.25 -3.11,-4.152 -4.73,-11.027 -4.85,-20.597 v -2.969 c 0,-10.774 1.6,-18.496 4.79,-23.164 3.21,-4.668 8.27,-6.992 15.23,-6.992 5.62,0 10.09,2.578 13.42,7.761 3.33,5.168 4.99,12.7 4.99,22.571 0,9.886 -1.68,17.293 -5.03,22.23 -3.35,4.938 -7.93,7.41 -13.74,7.41 z m 8.8,21.903 c 11.86,0 21.13,-4.621 27.84,-13.879 6.7,-9.239 10.05,-21.914 10.05,-38.02 0,-16.582 -3.46,-29.422 -10.37,-38.512 -6.91,-9.101 -16.33,-13.664 -28.24,-13.664 -11.79,0 -21.04,4.289 -27.74,12.852 h -1.89 l -4.58,-11.043 h -20.92 v 139.715 h 27.39 v -32.516 c 0,-4.125 -0.35,-10.746 -1.09,-19.836 h 1.09 c 6.39,9.942 15.89,14.903 28.46,14.903" /><path
         id="path108"
         style="fill:#231f20;fill-opacity:1;fill-rule:nonzero;stroke:none"
         d="m 1755.9,445.559 c 3.71,0 6.8,-0.274 9.25,-0.809 l -2.07,-25.672 c -2.21,0.586 -4.9,0.887 -8.08,0.887 -8.74,0 -15.54,-2.238 -20.42,-6.727 -4.88,-4.496 -7.32,-10.773 -7.32,-18.851 v -51.094 h -27.38 v 100.379 h 20.74 l 4.03,-16.871 h 1.36 c 3.12,5.621 7.32,10.156 12.62,13.605 5.29,3.434 11.05,5.153 17.27,5.153" /><path
         id="path110"
         style="fill:#231f20;fill-opacity:1;fill-rule:nonzero;stroke:none"
         d="m 1840.9,389.805 -10.59,-0.371 c -7.97,-0.231 -13.89,-1.664 -17.79,-4.305 -3.88,-2.637 -5.84,-6.641 -5.84,-12.031 0,-7.727 4.44,-11.582 13.3,-11.582 6.33,0 11.42,1.824 15.22,5.488 3.81,3.652 5.7,8.484 5.7,14.539 z m 8.09,-46.512 -5.31,13.641 h -0.71 c -4.61,-5.813 -9.35,-9.825 -14.23,-12.071 -4.89,-2.254 -11.24,-3.379 -19.09,-3.379 -9.64,0 -17.22,2.762 -22.76,8.274 -5.54,5.496 -8.3,13.347 -8.3,23.515 0,10.668 3.72,18.512 11.17,23.575 7.46,5.058 18.7,7.859 33.73,8.39 l 17.41,0.547 v 4.406 c 0,10.172 -5.2,15.258 -15.62,15.258 -8.03,0 -17.44,-2.422 -28.29,-7.273 l -9.07,18.496 c 11.56,6.043 24.37,9.066 38.44,9.066 13.47,0 23.79,-2.925 30.98,-8.793 7.18,-5.867 10.77,-14.793 10.77,-26.754 v -66.898 h -19.12" /><path
         id="path112"
         style="fill:#231f20;fill-opacity:1;fill-rule:nonzero;stroke:none"
         d="m 1954.17,445.559 c 3.7,0 6.79,-0.274 9.23,-0.809 l -2.06,-25.672 c -2.21,0.586 -4.91,0.887 -8.08,0.887 -8.73,0 -15.54,-2.238 -20.42,-6.727 -4.89,-4.496 -7.32,-10.773 -7.32,-18.851 v -51.094 h -27.38 v 100.379 h 20.73 l 4.04,-16.871 h 1.35 c 3.12,5.621 7.32,10.156 12.62,13.605 5.29,3.434 11.06,5.153 17.29,5.153" /><path
         id="path114"
         style="fill:#231f20;fill-opacity:1;fill-rule:nonzero;stroke:none"
         d="m 1969.11,443.672 h 30 l 18.93,-56.481 c 1.62,-4.906 2.72,-10.714 3.32,-17.414 h 0.55 c 0.65,6.161 1.94,11.977 3.86,17.414 l 18.59,56.481 h 29.35 l -42.46,-113.211 c -3.9,-10.488 -9.45,-18.32 -16.67,-23.535 -7.2,-5.207 -15.63,-7.805 -25.27,-7.805 -4.73,0 -9.37,0.508 -13.91,1.516 v 21.734 c 3.28,-0.777 6.87,-1.172 10.77,-1.172 4.84,0 9.08,1.489 12.7,4.446 3.63,2.968 6.46,7.429 8.49,13.429 l 1.61,4.93 -39.86,99.668" /><path
         id="path116"
         style="fill:#231f20;fill-opacity:1;fill-rule:nonzero;stroke:none"
         d="m 2161.34,393.66 c 0,-9.937 1.63,-17.449 4.91,-22.527 3.25,-5.106 8.56,-7.645 15.92,-7.645 7.3,0 12.56,2.528 15.76,7.586 3.2,5.059 4.8,12.594 4.8,22.586 0,9.938 -1.61,17.391 -4.83,22.356 -3.25,4.976 -8.54,7.461 -15.91,7.461 -7.3,0 -12.56,-2.469 -15.8,-7.407 -3.23,-4.937 -4.85,-12.418 -4.85,-22.41 z m 69.41,0 c 0,-16.336 -4.31,-29.117 -12.92,-38.336 -8.64,-9.23 -20.64,-13.84 -36.02,-13.84 -9.64,0 -18.14,2.121 -25.5,6.34 -7.36,4.219 -13.01,10.274 -16.96,18.184 -3.95,7.898 -5.94,17.113 -5.94,27.652 0,16.41 4.28,29.149 12.84,38.254 8.56,9.094 20.59,13.645 36.11,13.645 9.63,0 18.13,-2.09 25.5,-6.289 7.35,-4.18 13.01,-10.196 16.97,-18.047 3.94,-7.832 5.92,-17.024 5.92,-27.563" /><path
         id="path118"
         style="fill:#231f20;fill-opacity:1;fill-rule:nonzero;stroke:none"
         d="m 2310.71,423.109 h -23.7 v -79.816 h -27.39 v 79.816 h -15.09 v 13.211 l 15.09,7.352 v 7.367 c 0,11.434 2.81,19.785 8.43,25.051 5.63,5.262 14.63,7.898 27.03,7.898 9.47,0 17.87,-1.406 25.23,-4.222 l -7,-20.114 c -5.51,1.739 -10.6,2.614 -15.26,2.614 -3.89,0 -6.71,-1.161 -8.45,-3.457 -1.73,-2.317 -2.59,-5.254 -2.59,-8.848 v -6.289 h 23.7 v -20.563" /><path
         id="path120"
         style="fill:#231f20;fill-opacity:1;fill-rule:nonzero;stroke:none"
         d="m 2429.85,417.012 h 52.09 v -68.059 c -8.45,-2.762 -16.4,-4.683 -23.85,-5.797 -7.45,-1.105 -15.06,-1.672 -22.85,-1.672 -19.82,0 -34.93,5.832 -45.38,17.481 -10.46,11.633 -15.67,28.351 -15.67,50.148 0,21.192 6.06,37.703 18.17,49.559 12.13,11.851 28.93,17.773 50.42,17.773 13.47,0 26.45,-2.695 38.96,-8.082 l -9.24,-22.258 c -9.58,4.786 -19.55,7.176 -29.9,7.176 -12.03,0 -21.67,-4.043 -28.91,-12.125 -7.25,-8.082 -10.85,-18.933 -10.85,-32.59 0,-14.25 2.91,-25.132 8.75,-32.636 5.83,-7.512 14.3,-11.27 25.45,-11.27 5.8,0 11.71,0.606 17.69,1.793 v 27.387 h -24.88 v 23.172" /><path
         id="path122"
         style="fill:#231f20;fill-opacity:1;fill-rule:nonzero;stroke:none"
         d="m 2554.46,426.074 c -5.81,0 -10.37,-1.844 -13.66,-5.523 -3.3,-3.676 -5.17,-8.899 -5.65,-15.668 h 38.42 c -0.11,6.769 -1.88,11.992 -5.29,15.668 -3.42,3.679 -8.03,5.523 -13.82,5.523 z m 3.85,-84.59 c -16.16,0 -28.79,4.473 -37.89,13.387 -9.1,8.918 -13.66,21.547 -13.66,37.887 0,16.832 4.22,29.832 12.63,39.019 8.41,9.192 20.04,13.782 34.87,13.782 14.19,0 25.24,-4.036 33.15,-12.11 7.9,-8.097 11.84,-19.254 11.84,-33.5 V 386.66 h -64.73 c 0.29,-7.781 2.59,-13.867 6.9,-18.222 4.33,-4.375 10.37,-6.563 18.15,-6.563 6.04,0 11.75,0.625 17.14,1.887 5.38,1.258 11.02,3.269 16.89,6.015 v -21.191 c -4.79,-2.395 -9.91,-4.172 -15.35,-5.344 -5.46,-1.164 -12.1,-1.758 -19.94,-1.758" /><path
         id="path124"
         style="fill:#231f20;fill-opacity:1;fill-rule:nonzero;stroke:none"
         d="m 2645.18,393.66 c 0,-9.937 1.63,-17.449 4.89,-22.527 3.26,-5.106 8.58,-7.645 15.93,-7.645 7.31,0 12.57,2.528 15.76,7.586 3.21,5.059 4.81,12.594 4.81,22.586 0,9.938 -1.61,17.391 -4.85,22.356 -3.24,4.976 -8.52,7.461 -15.89,7.461 -7.31,0 -12.57,-2.469 -15.81,-7.407 -3.23,-4.937 -4.84,-12.418 -4.84,-22.41 z m 69.4,0 c 0,-16.336 -4.31,-29.117 -12.92,-38.336 -8.63,-9.23 -20.63,-13.84 -36.01,-13.84 -9.64,0 -18.15,2.121 -25.5,6.34 -7.37,4.219 -13.02,10.274 -16.97,18.184 -3.95,7.898 -5.93,17.113 -5.93,27.652 0,16.41 4.28,29.149 12.83,38.254 8.57,9.094 20.6,13.645 36.12,13.645 9.62,0 18.12,-2.09 25.49,-6.289 7.36,-4.18 13.02,-10.196 16.97,-18.047 3.95,-7.832 5.92,-17.024 5.92,-27.563" /><path
         id="path126"
         style="fill:#231f20;fill-opacity:1;fill-rule:nonzero;stroke:none"
         d="m 2795.08,445.559 c 3.7,0 6.79,-0.274 9.24,-0.809 l -2.06,-25.672 c -2.22,0.586 -4.91,0.887 -8.09,0.887 -8.73,0 -15.54,-2.238 -20.42,-6.727 -4.88,-4.496 -7.31,-10.773 -7.31,-18.851 v -51.094 h -27.39 v 100.379 h 20.74 l 4.03,-16.871 h 1.36 c 3.12,5.621 7.32,10.156 12.62,13.605 5.29,3.434 11.06,5.153 17.28,5.153" /><path
         id="path128"
         style="fill:#231f20;fill-opacity:1;fill-rule:nonzero;stroke:none"
         d="m 2844.23,410.82 c 0,-5.457 1.24,-9.765 3.73,-12.933 2.47,-3.176 6.26,-4.762 11.36,-4.762 5.15,0 8.92,1.586 11.31,4.762 2.39,3.168 3.59,7.476 3.59,12.933 0,12.086 -4.97,18.125 -14.9,18.125 -10.06,0 -15.09,-6.039 -15.09,-18.125 z m -9.97,-81.718 c 0,-3.77 1.82,-6.731 5.44,-8.887 3.62,-2.156 8.68,-3.242 15.22,-3.242 9.82,0 17.5,1.355 23.08,4.054 5.56,2.684 8.34,6.368 8.34,11.043 0,3.77 -1.64,6.368 -4.94,7.801 -3.29,1.438 -8.38,2.16 -15.25,2.16 h -14.19 c -5.04,0 -9.23,-1.179 -12.63,-3.554 -3.37,-2.364 -5.07,-5.481 -5.07,-9.375 z m 77.49,114.57 v -13.914 l -15.7,-4.035 c 2.87,-4.5 4.31,-9.516 4.31,-15.098 0,-10.77 -3.76,-19.164 -11.27,-25.18 -7.52,-6.019 -17.95,-9.027 -31.3,-9.027 l -4.93,0.273 -4.05,0.457 c -2.82,-2.168 -4.23,-4.558 -4.23,-7.199 0,-3.941 5.03,-5.914 15.1,-5.914 h 17.06 c 11.01,0 19.4,-2.363 25.19,-7.101 5.76,-4.727 8.66,-11.668 8.66,-20.829 0,-11.73 -4.89,-20.82 -14.68,-27.296 -9.79,-6.465 -23.84,-9.688 -42.16,-9.688 -14.01,0 -24.71,2.434 -32.1,7.317 -7.39,4.882 -11.1,11.718 -11.1,20.507 0,6.051 1.9,11.114 5.67,15.172 3.77,4.074 9.3,6.977 16.61,8.711 -2.82,1.203 -5.27,3.156 -7.36,5.891 -2.11,2.726 -3.14,5.605 -3.14,8.652 0,3.848 1.1,7.031 3.32,9.57 2.22,2.551 5.41,5.051 9.6,7.497 -5.26,2.281 -9.43,5.929 -12.53,10.953 -3.08,5.027 -4.62,10.961 -4.62,17.781 0,10.953 3.57,19.43 10.69,25.406 7.12,5.985 17.3,8.981 30.53,8.981 2.8,0 6.14,-0.262 10.01,-0.762 3.86,-0.512 6.33,-0.879 7.41,-1.125 h 35.01" /><path
         id="path130"
         style="fill:#231f20;fill-opacity:1;fill-rule:nonzero;stroke:none"
         d="m 2957.5,343.293 h -27.39 v 100.379 h 27.39 z m -28.56,126.324 c 0,8.934 4.98,13.391 14.91,13.391 9.93,0 14.9,-4.457 14.9,-13.391 0,-4.246 -1.24,-7.554 -3.73,-9.91 -2.47,-2.363 -6.2,-3.555 -11.17,-3.555 -9.93,0 -14.91,4.489 -14.91,13.465" /><path
         id="path132"
         style="fill:#231f20;fill-opacity:1;fill-rule:nonzero;stroke:none"
         d="m 3043.75,389.805 -10.6,-0.371 c -7.97,-0.231 -13.9,-1.664 -17.79,-4.305 -3.88,-2.637 -5.83,-6.641 -5.83,-12.031 0,-7.727 4.42,-11.582 13.28,-11.582 6.35,0 11.43,1.824 15.23,5.488 3.8,3.652 5.71,8.484 5.71,14.539 z m 8.07,-46.512 -5.3,13.641 h -0.71 c -4.61,-5.813 -9.35,-9.825 -14.23,-12.071 -4.89,-2.254 -11.24,-3.379 -19.09,-3.379 -9.64,0 -17.23,2.762 -22.77,8.274 -5.54,5.496 -8.29,13.347 -8.29,23.515 0,10.668 3.71,18.512 11.16,23.575 7.47,5.058 18.71,7.859 33.73,8.39 l 17.43,0.547 v 4.406 c 0,10.172 -5.22,15.258 -15.63,15.258 -8.03,0 -17.45,-2.422 -28.29,-7.273 l -9.06,18.496 c 11.55,6.043 24.36,9.066 38.42,9.066 13.47,0 23.79,-2.925 30.99,-8.793 7.18,-5.867 10.77,-14.793 10.77,-26.754 v -66.898 h -19.13" /><path
         id="path134"
         style="fill:#7b1e51;fill-opacity:1;fill-rule:nonzero;stroke:none"
         d="m 207.461,378.359 c -4.594,-1.289 -9.301,1.457 -10.559,6.028 -1.242,4.562 1.461,9.301 6.028,10.551 0.758,0.203 1.511,0.3 2.265,0.3 3.774,0 7.246,-2.508 8.289,-6.328 1.246,-4.57 -1.457,-9.308 -6.023,-10.551 z m -92.945,-24.304 c -3.102,-5.434 -8.129,-9.328 -14.161,-10.969 -6.023,-1.668 -12.3355,-0.848 -17.7652,2.246 -5.4335,3.098 -9.3281,8.125 -10.9726,14.152 -1.6524,6.024 -0.8516,12.34 2.25,17.774 3.1016,5.422 8.125,9.324 14.1562,10.969 2.0547,0.562 4.1211,0.832 6.1563,0.832 10.2893,0 19.7463,-6.852 22.5903,-17.243 1.644,-6.035 0.843,-12.343 -2.254,-17.761 z m 102.828,35.91 c -1.832,6.695 -8.735,10.652 -15.469,8.828 -5.68,-1.551 -9.148,-6.805 -9.027,-12.445 l -72.196,-13.653 c -0.011,0.059 -0.011,0.118 -0.027,0.176 -3.984,14.574 -19.066,23.199 -33.6562,19.215 -7.0625,-1.93 -12.9454,-6.488 -16.5782,-12.848 -3.6289,-6.355 -4.5664,-13.75 -2.6328,-20.808 1.9297,-7.063 6.4883,-12.942 12.8477,-16.575 4.1953,-2.39 8.8398,-3.613 13.5351,-3.613 2.4258,0 4.8672,0.324 7.2694,0.977 7.063,1.933 12.949,6.496 16.578,12.844 2.93,5.125 4.008,10.925 3.34,16.687 l 72.149,13.652 c 1.832,-5.031 6.523,-8.347 11.722,-8.347 1.094,0 2.211,0.136 3.317,0.437 6.695,1.836 10.656,8.774 8.828,15.473" /><path
         id="path136"
         style="fill:#8e3a1c;fill-opacity:1;fill-rule:nonzero;stroke:none"
         d="m 221.168,561.035 c 0.937,-20.023 -14.535,-37.019 -34.563,-37.961 -20.023,-0.933 -37.015,14.539 -37.957,34.563 -0.937,20.023 14.536,37.023 34.559,37.961 20.031,0.937 37.023,-14.539 37.961,-34.563" /><path
         id="path138"
         style="fill:#315484;fill-opacity:1;fill-rule:nonzero;stroke:none"
         d="m 345.355,48.2031 c -12.468,-3.4179 -25.343,3.9649 -28.738,16.4063 -3.402,12.4414 3.953,25.3398 16.406,28.7422 2.055,0.5664 4.118,0.8281 6.153,0.8281 10.289,0 19.75,-6.8438 22.594,-17.2344 3.398,-12.4414 -3.965,-25.3437 -16.415,-28.7422 z M 89.3984,135.031 c 0,4.735 3.8555,8.582 8.5899,8.582 4.7387,0 8.5897,-3.847 8.5897,-8.582 0,-4.738 -3.851,-8.593 -8.5897,-8.593 -4.7344,0 -8.5899,3.855 -8.5899,8.593 z m 119.7736,52.578 c 0,28.184 22.93,51.114 51.109,51.114 28.188,0 51.114,-22.93 51.114,-51.114 0,-28.183 -22.926,-51.117 -51.114,-51.117 -28.179,0 -51.109,22.934 -51.109,51.117 z M 455.336,76.9531 c -7.742,-0.3593 -13.949,-5.9765 -15.492,-13.2109 l -73.379,6.6016 c 0.043,2.5273 -0.141,5.0859 -0.84,7.6523 -3.98,14.5742 -19.105,23.1759 -33.656,19.2227 -2.297,-0.625 -4.379,-1.6133 -6.36,-2.754 l -32.867,48.6992 c 13.703,10.039 22.656,26.191 22.656,44.445 0,30.387 -24.722,55.118 -55.117,55.118 -30.386,0 -55.117,-24.731 -55.117,-55.118 0,-30.39 24.731,-55.117 55.117,-55.117 10.711,0 20.68,3.113 29.153,8.426 L 322.242,92.3047 C 316.137,87.4805 312.434,80.1953 311.957,72.3828 L 142.672,69.8711 c -1.156,8.4805 -8.539,14.8477 -17.25,14.4453 -1.305,-0.0703 -2.555,-0.3125 -3.766,-0.6562 l -17.109,40.8828 c 3.543,2.234 6.035,5.992 6.035,10.488 0,6.942 -5.648,12.586 -12.5937,12.586 -6.9453,0 -12.5938,-5.644 -12.5938,-12.586 0,-6.945 5.6485,-12.597 12.5938,-12.597 1.0156,0 1.914,0.351 2.8637,0.574 L 117.98,82.0898 c -5.281,-3.0156 -8.765,-8.75 -8.46,-15.2421 0.429,-9.211 8.25,-16.3282 17.468,-15.8985 8.344,0.3906 14.91,6.8633 15.762,14.918 l 169.199,2.5117 c 0.145,-1.6016 0.371,-3.2109 0.809,-4.8242 3.32,-12.168 14.394,-20.1875 26.445,-20.1875 2.383,0 4.801,0.3164 7.207,0.9687 10.645,2.9219 18.047,11.7774 19.75,22.0118 l 73.289,-6.5899 c 0.004,-0.0898 -0.019,-0.1797 -0.015,-0.2734 0.433,-9.211 8.254,-16.3281 17.464,-15.8985 9.215,0.4297 16.332,8.25 15.907,17.461 -0.438,9.2187 -8.254,16.3359 -17.469,15.9062" /><path
         id="path140"
         style="fill:#8e3a1c;fill-opacity:1;fill-rule:nonzero;stroke:none"
         d="m 427.145,304.863 c -11.731,-5.351 -25.661,-0.183 -31.016,11.563 -2.606,5.683 -2.828,12.043 -0.645,17.898 2.184,5.864 6.512,10.52 12.196,13.117 3.144,1.438 6.441,2.11 9.691,2.11 8.883,0 17.395,-5.078 21.32,-13.66 5.368,-11.739 0.188,-25.657 -11.546,-31.028 z m 96.746,45.52 c -4.996,3.277 -11.707,1.894 -14.989,-3.098 -1.129,-1.719 -1.515,-3.625 -1.589,-5.527 l -63.18,-9.551 c -0.41,1.809 -1.004,3.594 -1.797,5.344 h -0.008 c -6.281,13.738 -22.586,19.773 -36.308,13.523 -6.657,-3.039 -11.727,-8.496 -14.286,-15.351 -2.554,-6.864 -2.293,-14.305 0.75,-20.957 1.379,-3.008 3.344,-5.52 5.547,-7.743 l -31.875,-36.449 c -3.633,2.473 -8.211,3.547 -12.851,2.563 -9.024,-1.914 -14.785,-10.782 -12.875,-19.809 1.914,-9.019 10.781,-14.781 19.804,-12.867 9.024,1.91 14.786,10.781 12.875,19.805 -0.632,2.968 -2.07,5.535 -3.964,7.644 l 31.941,36.524 c 4.742,-3.555 10.422,-5.684 16.375,-5.684 3.805,0 7.668,0.801 11.344,2.48 10.711,4.903 16.668,15.887 15.836,27.004 l 63.269,9.559 c 0.758,-2.156 2.031,-4.148 4.086,-5.508 5,-3.281 11.711,-1.894 14.996,3.106 3.281,4.992 1.895,11.711 -3.101,14.992" /><path
         id="path142"
         style="fill:#8e3a1c;fill-opacity:1;fill-rule:nonzero;stroke:none"
         d="m 341.578,752.949 c -4.742,0 -8.594,3.852 -8.594,8.59 0,4.734 3.852,8.59 8.594,8.59 4.735,0 8.59,-3.856 8.59,-8.59 0,-4.738 -3.855,-8.59 -8.59,-8.59 z M 241.422,673.066 c 0,-12.906 -10.492,-23.398 -23.399,-23.398 -12.906,0 -23.406,10.492 -23.406,23.398 0,12.907 10.5,23.399 23.406,23.399 12.907,0 23.399,-10.492 23.399,-23.399 z M 236.086,559.18 c 0,-28.184 -22.934,-51.114 -51.113,-51.114 -28.188,0 -51.118,22.93 -51.118,51.114 0,28.183 22.93,51.113 51.118,51.113 28.179,0 51.113,-22.93 51.113,-51.113 z M 23.1875,719.219 c -10.582,0 -19.18359,8.605 -19.18359,19.179 0,10.582 8.60159,19.184 19.18359,19.184 10.582,0 19.1836,-8.602 19.1836,-19.184 0,-10.574 -8.6016,-19.179 -19.1836,-19.179 z M 41,670.445 c 0,-4.738 -3.8516,-8.59 -8.5937,-8.59 -4.7344,0 -8.586,3.852 -8.586,8.59 0,4.743 3.8516,8.594 8.586,8.594 4.7421,0 8.5937,-3.851 8.5937,-8.594 z m 300.578,103.688 c -6.465,0 -11.621,-4.969 -12.324,-11.246 l -25.352,-1.36 c -1.425,8.161 -8.66,14.207 -17.156,13.809 -9.211,-0.434 -16.332,-8.25 -15.894,-17.465 0.199,-4.316 2.062,-8.133 4.894,-10.973 l -41.058,-52.234 c -4.633,3.582 -10.372,5.805 -16.665,5.805 -15.113,0 -27.41,-12.293 -27.41,-27.403 0,-11.742 7.469,-21.703 17.871,-25.593 L 198.336,612.59 c -4.289,1.07 -8.75,1.707 -13.363,1.707 -13.453,0 -25.785,-4.859 -35.364,-12.891 L 40.1055,722.656 c 3.5898,3.852 5.8476,8.918 6.1484,14.512 l 98.9801,3.312 c 1.293,-8.328 8.598,-14.539 17.204,-14.132 9.21,0.429 16.332,8.246 15.902,17.461 -0.434,9.214 -8.25,16.332 -17.465,15.902 -8.453,-0.395 -15.07,-7.031 -15.781,-15.238 L 46.0977,741.164 C 44.7109,752.633 35.0234,761.586 23.1875,761.586 10.4063,761.586 0,751.184 0,738.398 c 0,-12.781 10.4063,-23.183 23.1875,-23.183 0.3828,0 0.7383,0.094 1.1133,0.113 l 4.4805,-33.019 c -5.1446,-1.586 -8.9649,-6.204 -8.9649,-11.864 0,-6.945 5.6484,-12.593 12.5899,-12.593 6.9453,0 12.5976,5.648 12.5976,12.593 0,6.832 -5.4883,12.352 -12.2734,12.535 l -4.4571,32.836 c 3.2774,0.739 6.2539,2.204 8.8438,4.168 L 146.648,598.711 c -10.335,-10.023 -16.793,-24.027 -16.793,-39.531 0,-30.391 24.723,-55.117 55.118,-55.117 30.386,0 55.117,24.726 55.117,55.117 0,24.379 -15.93,45.078 -37.906,52.328 l 10.117,34.777 c 1.847,-0.394 3.758,-0.621 5.722,-0.621 15.106,0 27.403,12.297 27.403,27.402 0,7.375 -2.961,14.043 -7.715,18.977 l 41.141,52.336 c 2.75,-1.672 6.007,-2.57 9.464,-2.41 8.563,0.406 15.239,7.211 15.793,15.566 l 25.407,1.356 c 1.25,-5.633 6.054,-9.946 12.062,-9.946 6.942,0 12.594,5.649 12.594,12.594 0,6.941 -5.652,12.594 -12.594,12.594" /><path
         id="path144"
         style="fill:#398892;fill-opacity:1;fill-rule:nonzero;stroke:none"
         d="m 368.07,649.98 c -4.734,0 -8.59,3.852 -8.59,8.59 0,4.735 3.856,8.586 8.59,8.586 4.739,0 8.59,-3.851 8.59,-8.586 0,-4.738 -3.851,-8.59 -8.59,-8.59 z m -31.429,-96.41 c 0,-12.906 -10.496,-23.402 -23.403,-23.402 -12.906,0 -23.398,10.496 -23.398,23.402 0,12.907 10.492,23.399 23.398,23.399 12.907,0 23.403,-10.492 23.403,-23.399 z m 26.968,-148.023 c 0,-28.184 -22.929,-51.113 -51.113,-51.113 -28.183,0 -51.113,22.929 -51.113,51.113 0,28.183 22.93,51.113 51.113,51.113 28.184,0 51.113,-22.93 51.113,-51.113 z M 265.914,291.984 c 0,-12.902 -10.5,-23.398 -23.402,-23.398 -12.907,0 -23.403,10.496 -23.403,23.398 0,12.899 10.496,23.399 23.403,23.399 12.902,0 23.402,-10.5 23.402,-23.399 z M 96.2383,253.313 c -4.7383,0 -8.5899,3.855 -8.5899,8.593 0,4.735 3.8516,8.582 8.5899,8.582 4.7387,0 8.5897,-3.847 8.5897,-8.582 0,-4.738 -3.851,-8.593 -8.5897,-8.593 z M 368.07,671.16 c -2.597,0 -4.871,-0.972 -6.879,-2.328 l -28.496,31.07 c 2.672,3.121 4.235,7.2 4.028,11.621 -0.434,9.215 -8.25,16.332 -17.465,15.899 -9.215,-0.43 -16.332,-8.25 -15.903,-17.461 0.434,-9.215 8.25,-16.336 17.465,-15.902 3.344,0.156 6.403,1.308 8.938,3.129 l 28.5,-31.075 c -1.641,-2.129 -2.778,-4.66 -2.778,-7.543 0,-4.113 2.11,-7.593 5.165,-9.894 l -36.54,-69.977 c -3.339,1.453 -7.003,2.274 -10.867,2.274 -15.109,0 -27.402,-12.297 -27.402,-27.403 0,-14.379 11.172,-26.078 25.262,-27.191 l -0.332,-65.805 c -22.43,-0.695 -41.504,-14.828 -49.426,-34.625 L 116.777,477.59 c 2.457,9.062 0.016,19.121 -7.375,25.91 -6.992,6.434 -16.5309,8.211 -25.0153,5.676 l -19.3125,50.008 c 5.5117,2.945 9.168,8.824 8.8555,15.484 -0.4297,9.215 -8.2461,16.332 -17.4609,15.898 -9.211,-0.429 -16.3321,-8.246 -15.9024,-17.461 0.4297,-9.214 8.2539,-16.335 17.4649,-15.902 1.1445,0.055 2.2578,0.223 3.3242,0.492 l 19.2734,-49.906 c -2.9062,-1.387 -5.6172,-3.305 -7.9336,-5.82 -9.7109,-10.563 -9.0273,-26.996 1.5313,-36.711 10.5625,-9.711 27.0004,-9.028 36.7114,1.535 1.957,2.129 3.375,4.527 4.492,7.027 l 144.531,-51.632 c -1.672,-5.254 -2.582,-10.84 -2.582,-16.641 0,-19.082 9.75,-35.918 24.531,-45.82 l -26.832,-43.536 c -3.785,1.973 -8.012,3.196 -12.566,3.196 -15.11,0 -27.407,-12.297 -27.407,-27.403 0,-1.203 0.208,-2.355 0.36,-3.515 L 107.934,266.348 c -1.813,4.746 -6.329,8.144 -11.6957,8.144 -6.9414,0 -12.5938,-5.644 -12.5938,-12.586 0,-6.945 5.6524,-12.597 12.5938,-12.597 6.9457,0 12.5937,5.652 12.5937,12.597 0,0.184 -0.098,0.34 -0.105,0.516 l 107.539,22.121 c 0.691,-2.434 1.668,-4.727 2.968,-6.84 L 117.477,204.531 c -3.235,3.504 -7.883,5.664 -13.012,5.418 -9.215,-0.426 -16.3361,-8.25 -15.9064,-17.457 0.4297,-9.219 8.2539,-16.34 17.4644,-15.91 9.215,0.43 16.336,8.254 15.907,17.473 -0.129,2.636 -0.914,5.066 -2.11,7.234 l 101.782,73.195 c 5.031,-5.996 12.484,-9.906 20.91,-9.906 15.109,0 27.406,12.297 27.406,27.406 0,9.121 -4.531,17.168 -11.41,22.149 l 26.812,43.523 c 8.035,-4.582 17.293,-7.226 27.176,-7.226 30.391,0 55.117,24.726 55.117,55.117 0,29.625 -23.508,53.793 -52.843,55 l 0.332,65.805 c 14.23,0.976 25.543,12.746 25.543,27.218 0,9.821 -5.239,18.383 -13.024,23.223 l 36.543,69.977 c 1.246,-0.418 2.52,-0.793 3.906,-0.793 6.946,0 12.594,5.648 12.594,12.593 0,6.942 -5.648,12.59 -12.594,12.59" /><path
         id="path146"
         style="fill:#7b1e51;fill-opacity:1;fill-rule:nonzero;stroke:none"
         d="m 629.59,240.656 c -28.184,0 -51.113,22.93 -51.113,51.114 0,28.179 22.929,51.113 51.113,51.113 28.183,0 51.113,-22.934 51.113,-51.113 0,-28.184 -22.93,-51.114 -51.113,-51.114 z M 599.496,74.0742 c 0,-4.7383 -3.851,-8.5937 -8.594,-8.5937 -4.734,0 -8.589,3.8554 -8.589,8.5937 0,4.7344 3.855,8.5821 8.589,8.5821 4.743,0 8.594,-3.8477 8.594,-8.5821 z M 529.141,27.4023 c 0,-12.8984 -10.496,-23.39839 -23.403,-23.39839 -12.906,0 -23.398,10.49999 -23.398,23.39839 0,12.9024 10.492,23.3985 23.398,23.3985 12.907,0 23.403,-10.4961 23.403,-23.3985 z m -75.34,205.3397 c -3.844,-0.379 -7.68,1.156 -10.582,3.801 -2.906,2.648 -4.606,6.27 -4.789,10.195 -0.188,3.918 1.172,7.676 3.812,10.578 2.641,2.911 6.258,4.61 10.184,4.786 0.242,0.015 0.472,0.015 0.715,0.015 3.66,0 7.14,-1.336 9.867,-3.816 2.906,-2.645 4.605,-6.27 4.789,-10.196 0.187,-3.914 -1.172,-7.675 -3.813,-10.574 -2.64,-2.914 -6.257,-4.609 -10.183,-4.789 z M 629.59,346.887 c -6.414,0 -12.547,-1.164 -18.277,-3.188 l -35.993,91.516 c 6.899,3.535 11.493,10.832 11.102,19.078 -0.527,11.254 -10.078,19.949 -21.332,19.422 -10.555,-0.492 -18.758,-8.949 -19.313,-19.277 l -86.507,-3.836 c -0.797,5.765 -3.411,11.316 -8.032,15.57 -10.558,9.711 -26.996,9.023 -36.707,-1.539 -9.718,-10.559 -9.027,-26.996 1.532,-36.707 10.562,-9.711 27,-9.024 36.71,1.539 4.489,4.871 6.653,11.004 6.754,17.148 l 86.426,3.832 c 1.481,-10.285 10.457,-17.984 21.043,-17.484 1.602,0.07 3.125,0.367 4.602,0.789 l 35.98,-91.484 c -19.457,-8.516 -33.105,-27.93 -33.105,-50.496 0,-26.368 18.625,-48.45 43.398,-53.84 L 590.898,86.6602 c -5.589,0 -10.179,-3.7305 -11.816,-8.7774 l -42.516,6.4258 c 0.012,0.4297 0.09,0.8398 0.071,1.2773 -0.438,9.211 -8.254,16.3281 -17.465,15.8981 -1.274,-0.058 -2.488,-0.285 -3.66,-0.605 l -53.504,130.168 c 1.816,0.984 3.504,2.215 4.933,3.789 3.368,3.691 5.086,8.477 4.852,13.465 -0.234,4.992 -2.398,9.59 -6.094,12.961 -3.691,3.355 -8.504,5.078 -13.465,4.843 -4.988,-0.238 -9.589,-2.406 -12.953,-6.093 -3.363,-3.692 -5.082,-8.477 -4.847,-13.469 0.234,-4.988 2.398,-9.59 6.093,-12.957 3.465,-3.156 7.895,-4.863 12.555,-4.863 0.301,0 0.606,0.007 0.906,0.019 1.492,0.067 2.926,0.36 4.328,0.77 L 511.82,99.3164 c -5.332,-2.9961 -8.855,-8.7695 -8.554,-15.293 0.324,-6.8554 4.738,-12.5312 10.757,-14.8242 l -3.675,-14.8633 c -1.508,0.2657 -3.035,0.4688 -4.61,0.4688 -15.109,0 -27.402,-12.293 -27.402,-27.4024 C 478.336,12.2969 490.629,0 505.738,0 c 15.114,0 27.407,12.2969 27.407,27.4023 0,12.129 -7.977,22.3243 -18.926,25.918 l 3.703,14.9531 c 0.922,-0.1171 1.851,-0.1992 2.808,-0.1562 7.399,0.3516 13.368,5.4766 15.247,12.2461 l 42.359,-6.4102 c 0.066,-6.8828 5.668,-12.4765 12.566,-12.4765 6.946,0 12.598,5.6523 12.598,12.5976 0,5.5547 -3.68,10.125 -8.68,11.793 l 26.993,151.3988 c 2.546,-0.36 5.128,-0.614 7.777,-0.614 30.39,0 55.117,24.727 55.117,55.118 0,30.39 -24.727,55.117 -55.117,55.117" /><path
         id="path148"
         style="fill:#398892;fill-opacity:1;fill-rule:nonzero;stroke:none"
         d="m 348.691,407.402 c 0.938,-20.023 -14.535,-37.019 -34.558,-37.957 -20.028,-0.937 -37.024,14.535 -37.961,34.559 -0.938,20.023 14.535,37.023 34.558,37.961 20.032,0.937 37.024,-14.539 37.961,-34.563" /><path
         id="path150"
         style="fill:#315484;fill-opacity:1;fill-rule:nonzero;stroke:none"
         d="m 296.48,189.453 c 0.942,-20.019 -14.531,-37.012 -34.562,-37.949 -20.023,-0.938 -37.016,14.531 -37.953,34.562 -0.938,20.02 14.535,37.008 34.558,37.95 20.028,0.945 37.02,-14.532 37.957,-34.563" /><path
         id="path152"
         style="fill:#7b1e51;fill-opacity:1;fill-rule:nonzero;stroke:none"
         d="m 665.785,293.621 c 0.938,-20.016 -14.531,-37.019 -34.558,-37.957 -20.028,-0.937 -37.016,14.539 -37.957,34.563 -0.942,20.027 14.535,37.019 34.562,37.957 20.023,0.937 37.016,-14.532 37.953,-34.563" /><path
         id="path154"
         style="fill:#315484;fill-opacity:1;fill-rule:nonzero;stroke:none"
         d="m 513.918,503.434 c -4.738,0 -8.59,3.851 -8.59,8.589 0,4.739 3.852,8.594 8.59,8.594 4.734,0 8.586,-3.855 8.586,-8.594 0,-4.738 -3.852,-8.589 -8.586,-8.589 z m 0,21.183 c -2.824,0 -5.305,-1.105 -7.41,-2.683 l -66.875,64.418 c 6.949,8.433 8.156,20.625 1.992,30.359 -7.68,12.117 -23.73,15.715 -35.855,8.039 -12.118,-7.68 -15.715,-23.73 -8.04,-35.848 7.68,-12.125 23.731,-15.722 35.848,-8.043 1.211,0.762 2.274,1.672 3.309,2.59 l 66.859,-64.406 c -1.406,-2.035 -2.422,-4.363 -2.422,-7.02 0,-6.945 5.649,-12.593 12.594,-12.593 6.941,0 12.59,5.648 12.59,12.593 0,6.942 -5.649,12.594 -12.59,12.594" /></g></g></svg>