<svg xmlns="http://www.w3.org/2000/svg" viewBox="0 0 356.56 82"><defs><style>.cls-1{stroke:#fff;}.cls-2{fill:#25408f;}.cls-3{fill:#23317d;}.cls-4{fill:#27357f;}.cls-5{fill:#2b3981;}.cls-6{fill:#2f3d83;}.cls-7{fill:#334186;}.cls-8{fill:#374588;}.cls-9{fill:#3b498a;}.cls-10{fill:#3f4d8d;}.cls-11{fill:#44518f;}.cls-12{fill:#485591;}.cls-13{fill:#4d5a94;}.cls-14{fill:#515e97;}.cls-15{fill:#566399;}.cls-16{fill:#5a689c;}.cls-17{fill:#5f6d9f;}.cls-18{fill:#6473a2;}.cls-19{fill:#6978a5;}.cls-20{fill:#6d7ea8;}.cls-21{fill:#7284ab;}.cls-22{fill:#788baf;}.cls-23{fill:#7d91b2;}.cls-24{fill:#8398b5;}.cls-25{fill:#899fb9;}.cls-26{fill:none;stroke:#000;stroke-width:1.04px;}.cls-27{fill:#fff;}</style></defs><title>logo-galileo</title><g id="Layer_2" data-name="Layer 2"><path class="cls-1" d="M228.55,437.8c-3.09-26.56-26.11-47.21-54.08-47.21s-51,20.65-54.08,47.21Z" transform="translate(-119.83 -377.59)"/><path d="M474.49,431.55a2.47,2.47,0,0,1,1,1,2.7,2.7,0,0,1,.36,1.34,2.61,2.61,0,0,1-.35,1.32,2.57,2.57,0,0,1-1,1,2.79,2.79,0,0,1-1.34.35,2.82,2.82,0,0,1-1.34-.35,2.64,2.64,0,0,1-1-1,2.67,2.67,0,0,1,0-2.66,2.47,2.47,0,0,1,1-1,2.73,2.73,0,0,1,2.64,0Zm-2.9-.45a2.93,2.93,0,0,0-1.21,1.18,3.18,3.18,0,0,0-.43,1.6,3.11,3.11,0,0,0,.43,1.58,3,3,0,0,0,1.19,1.19,3.27,3.27,0,0,0,1.6.42,3.34,3.34,0,0,0,1.61-.42,3,3,0,0,0,1.19-1.19,3.19,3.19,0,0,0,0-3.18,3,3,0,0,0-1.2-1.18,3.3,3.3,0,0,0-1.59-.41A3.24,3.24,0,0,0,471.59,431.1Zm.75,4.55v-1.47h.32a.68.68,0,0,1,.44.11,2.79,2.79,0,0,1,.58.81l.31.55h.68l-.42-.68a4.09,4.09,0,0,0-.51-.69.9.9,0,0,0-.29-.18,1.07,1.07,0,0,0,.71-.32.89.89,0,0,0,.27-.65.85.85,0,0,0-.16-.5.81.81,0,0,0-.44-.33,3,3,0,0,0-.88-.1h-1.19v3.45Zm0-3H473a1.75,1.75,0,0,1,.56.06.61.61,0,0,1,.24.17.51.51,0,0,1,.08.28.47.47,0,0,1-.17.37,1.08,1.08,0,0,1-.67.15h-.67Z" transform="translate(-119.83 -377.59)"/><path class="cls-2" d="M326.61,408" transform="translate(-119.83 -377.59)"/><path class="cls-3" d="M326.61,408" transform="translate(-119.83 -377.59)"/><path class="cls-4" d="M326.61,408" transform="translate(-119.83 -377.59)"/><path class="cls-5" d="M326.61,408" transform="translate(-119.83 -377.59)"/><path class="cls-6" d="M326.61,408" transform="translate(-119.83 -377.59)"/><path class="cls-7" d="M326.61,408" transform="translate(-119.83 -377.59)"/><path class="cls-8" d="M326.61,408" transform="translate(-119.83 -377.59)"/><path class="cls-9" d="M326.61,408" transform="translate(-119.83 -377.59)"/><path class="cls-10" d="M326.61,408" transform="translate(-119.83 -377.59)"/><path class="cls-11" d="M326.61,408" transform="translate(-119.83 -377.59)"/><path class="cls-12" d="M326.61,408" transform="translate(-119.83 -377.59)"/><path class="cls-13" d="M326.61,408" transform="translate(-119.83 -377.59)"/><path class="cls-14" d="M326.61,408" transform="translate(-119.83 -377.59)"/><path class="cls-15" d="M326.61,408" transform="translate(-119.83 -377.59)"/><path class="cls-16" d="M326.61,408" transform="translate(-119.83 -377.59)"/><path class="cls-17" d="M326.61,408" transform="translate(-119.83 -377.59)"/><path class="cls-18" d="M326.61,408" transform="translate(-119.83 -377.59)"/><path class="cls-19" d="M326.61,408" transform="translate(-119.83 -377.59)"/><path class="cls-20" d="M326.61,408" transform="translate(-119.83 -377.59)"/><path class="cls-21" d="M326.61,408" transform="translate(-119.83 -377.59)"/><path class="cls-22" d="M326.61,408" transform="translate(-119.83 -377.59)"/><path class="cls-23" d="M326.61,408" transform="translate(-119.83 -377.59)"/><path class="cls-24" d="M326.61,408" transform="translate(-119.83 -377.59)"/><path class="cls-25" d="M326.61,408" transform="translate(-119.83 -377.59)"/><line class="cls-26" x1="0.6" y1="63.1" x2="356.18" y2="63.1"/><path class="cls-2" d="M321.14,400.85" transform="translate(-119.83 -377.59)"/><path class="cls-3" d="M321.14,400.85" transform="translate(-119.83 -377.59)"/><path class="cls-4" d="M321.14,400.85" transform="translate(-119.83 -377.59)"/><path class="cls-5" d="M321.14,400.85" transform="translate(-119.83 -377.59)"/><path class="cls-6" d="M321.14,400.85" transform="translate(-119.83 -377.59)"/><path class="cls-7" d="M321.14,400.85" transform="translate(-119.83 -377.59)"/><path class="cls-8" d="M321.14,400.85" transform="translate(-119.83 -377.59)"/><path class="cls-9" d="M321.14,400.85" transform="translate(-119.83 -377.59)"/><path class="cls-10" d="M321.14,400.85" transform="translate(-119.83 -377.59)"/><path class="cls-11" d="M321.14,400.85" transform="translate(-119.83 -377.59)"/><path class="cls-12" d="M321.14,400.85" transform="translate(-119.83 -377.59)"/><path class="cls-13" d="M321.14,400.85" transform="translate(-119.83 -377.59)"/><path class="cls-14" d="M321.14,400.85" transform="translate(-119.83 -377.59)"/><path class="cls-15" d="M321.14,400.85" transform="translate(-119.83 -377.59)"/><path class="cls-16" d="M321.14,400.85" transform="translate(-119.83 -377.59)"/><path class="cls-17" d="M321.14,400.85" transform="translate(-119.83 -377.59)"/><path class="cls-18" d="M321.14,400.85" transform="translate(-119.83 -377.59)"/><path class="cls-19" d="M321.14,400.85" transform="translate(-119.83 -377.59)"/><path class="cls-20" d="M321.14,400.85" transform="translate(-119.83 -377.59)"/><path class="cls-21" d="M321.14,400.85" transform="translate(-119.83 -377.59)"/><path class="cls-22" d="M321.14,400.85" transform="translate(-119.83 -377.59)"/><path class="cls-23" d="M321.14,400.85" transform="translate(-119.83 -377.59)"/><path class="cls-24" d="M321.14,400.85" transform="translate(-119.83 -377.59)"/><path class="cls-25" d="M321.14,400.85" transform="translate(-119.83 -377.59)"/><path d="M126.81,447.58l1.89,4.73h-3.78Zm-3.56,8.92,1.22-3h4.69l1.2,3H132l-4.31-10.94h-1.55L121.8,456.5Z" transform="translate(-119.83 -377.59)"/><path d="M133.68,456.5v-8h1.47V450a3.39,3.39,0,0,1,2.85-1.69,2.22,2.22,0,0,1,1.69.66,2.52,2.52,0,0,1,.62,1.78v5.75h-1.46v-5.28a2.3,2.3,0,0,0-.27-1.28,1,1,0,0,0-.88-.38,3.28,3.28,0,0,0-2.55,1.75v5.19Z" transform="translate(-119.83 -377.59)"/><path d="M147.94,456.5V445.56h1.57V456.5Z" transform="translate(-119.83 -377.59)"/><path d="M152.39,456.5v-8h1.46V450a3.4,3.4,0,0,1,2.86-1.69,2.18,2.18,0,0,1,1.68.66,2.48,2.48,0,0,1,.63,1.78v5.75h-1.47v-5.28a2.4,2.4,0,0,0-.26-1.28,1,1,0,0,0-.88-.38,3.28,3.28,0,0,0-2.56,1.75v5.19Z" transform="translate(-119.83 -377.59)"/><path d="M161.87,456.5v-8h1.46v8Zm0-9.49v-1.45h1.46V447Z" transform="translate(-119.83 -377.59)"/><path d="M169.88,456.5a4.7,4.7,0,0,1-1.17.19,2.37,2.37,0,0,1-1.75-.64,2.42,2.42,0,0,1-.62-1.76v-4.71h-1v-1.1h1V447l1.46-.14v1.6h2.12v1.1H167.8V454c0,1.05.46,1.57,1.38,1.57a2.86,2.86,0,0,0,.7-.1Z" transform="translate(-119.83 -377.59)"/><path d="M172,456.5v-8h1.47v8Zm0-9.49v-1.45h1.47V447Z" transform="translate(-119.83 -377.59)"/><path d="M178.46,455.5a1.26,1.26,0,0,1-.91-.36,1.17,1.17,0,0,1-.38-.88,1.35,1.35,0,0,1,.75-1.19,3.87,3.87,0,0,1,2-.45h.48v2.07A3.1,3.1,0,0,1,178.46,455.5Zm3.44,1.19a2.5,2.5,0,0,0,1.1-.24l-.1-.81-.29,0c-.51,0-.77-.41-.77-1.24V450.8a2.47,2.47,0,0,0-.64-1.88,2.84,2.84,0,0,0-2-.61,7.65,7.65,0,0,0-2.8.59v1.19a5.64,5.64,0,0,1,2.49-.68c1,0,1.48.47,1.48,1.4v1H180a6.06,6.06,0,0,0-3.21.71,2.25,2.25,0,0,0-1.11,2,2,2,0,0,0,.66,1.57,2.33,2.33,0,0,0,1.67.63,3.88,3.88,0,0,0,2.55-1.2C180.78,456.29,181.22,456.69,181.9,456.69Z" transform="translate(-119.83 -377.59)"/><path d="M188.44,456.5a4.7,4.7,0,0,1-1.17.19,2.37,2.37,0,0,1-1.75-.64,2.42,2.42,0,0,1-.62-1.76v-4.71h-1v-1.1h1V447l1.46-.14v1.6h2.12v1.1h-2.12V454c0,1.05.46,1.57,1.37,1.57a2.93,2.93,0,0,0,.71-.1Z" transform="translate(-119.83 -377.59)"/><path d="M190.55,456.5v-8H192v8Zm0-9.49v-1.45H192V447Z" transform="translate(-119.83 -377.59)"/><path d="M196.65,456.5l-3-8h1.48l2.34,6.21,2.48-6.21h1.39l-3.2,8Z" transform="translate(-119.83 -377.59)"/><path d="M205.7,449.41c1.12,0,1.68.74,1.68,2.23H203.8C203.93,450.15,204.56,449.41,205.7,449.41Zm3.11,5.67a6.55,6.55,0,0,1-2.25.51q-2.51,0-2.82-2.85h5.11v-.45a4.68,4.68,0,0,0-.81-2.94,2.7,2.7,0,0,0-2.27-1,3.22,3.22,0,0,0-2.55,1.17,4.45,4.45,0,0,0-1,3,4.22,4.22,0,0,0,1.12,3.05,3.86,3.86,0,0,0,2.93,1.18,9.15,9.15,0,0,0,2.52-.44Z" transform="translate(-119.83 -377.59)"/><path d="M217.74,454.78a4.63,4.63,0,0,1,0-4.56,2,2,0,0,1,1.69-.81,2,2,0,0,1,1.7.81,4.63,4.63,0,0,1,0,4.56,2,2,0,0,1-1.7.81A2,2,0,0,1,217.74,454.78Zm4.52.78a5,5,0,0,0,0-6.12,4.08,4.08,0,0,0-5.64,0,5,5,0,0,0,0,6.12,4.08,4.08,0,0,0,5.64,0Z" transform="translate(-119.83 -377.59)"/><path d="M225.87,456.5v-6.92h-1.15v-1.1h1.15v-1c0-1.91.87-2.87,2.63-2.87a6.92,6.92,0,0,1,1.68.24v1.16a5.94,5.94,0,0,0-1.59-.3,1.17,1.17,0,0,0-1,.34,2.19,2.19,0,0,0-.27,1.28v1.11h2v1.1h-2v6.92Z" transform="translate(-119.83 -377.59)"/><path d="M239.64,456.5a4.77,4.77,0,0,1-1.18.19,2.34,2.34,0,0,1-1.74-.64,2.38,2.38,0,0,1-.63-1.76v-4.71h-1v-1.1h1V447l1.47-.14v1.6h2.11v1.1h-2.11V454c0,1.05.45,1.57,1.37,1.57a3,3,0,0,0,.71-.1Z" transform="translate(-119.83 -377.59)"/><path d="M241.74,456.5V444.84h1.47V450a3.4,3.4,0,0,1,2.85-1.69,2.22,2.22,0,0,1,1.69.66,2.52,2.52,0,0,1,.62,1.78v5.75h-1.46v-5.28a2.3,2.3,0,0,0-.27-1.28,1,1,0,0,0-.88-.38,3.28,3.28,0,0,0-2.55,1.75v5.19Z" transform="translate(-119.83 -377.59)"/><path d="M254.05,449.41c1.12,0,1.69.74,1.69,2.23h-3.58C252.29,450.15,252.92,449.41,254.05,449.41Zm3.12,5.67a6.55,6.55,0,0,1-2.25.51c-1.67,0-2.62-.95-2.83-2.85h5.11v-.45a4.74,4.74,0,0,0-.8-2.94,2.73,2.73,0,0,0-2.28-1,3.18,3.18,0,0,0-2.54,1.17,4.4,4.4,0,0,0-1,3,4.18,4.18,0,0,0,1.13,3.05,3.84,3.84,0,0,0,2.92,1.18,9.27,9.27,0,0,0,2.53-.44Z" transform="translate(-119.83 -377.59)"/><path d="M264.42,445.56H266v6.9a3.77,3.77,0,0,0,.62,2.4,2.38,2.38,0,0,0,1.95.75,2.22,2.22,0,0,0,1.86-.71,4,4,0,0,0,.55-2.39v-6.95h1.38v6.93a6.55,6.55,0,0,1-.29,2.2,3,3,0,0,1-1,1.36,4,4,0,0,1-2.54.72,4.07,4.07,0,0,1-3.09-1,4.63,4.63,0,0,1-1-3.27Z" transform="translate(-119.83 -377.59)"/><path d="M275.14,456.5v-8h1.47V450a3.37,3.37,0,0,1,2.85-1.69,2.22,2.22,0,0,1,1.69.66,2.52,2.52,0,0,1,.62,1.78v5.75H280.3v-5.28a2.31,2.31,0,0,0-.26-1.28,1,1,0,0,0-.88-.38,3.25,3.25,0,0,0-2.55,1.75v5.19Z" transform="translate(-119.83 -377.59)"/><path d="M284.62,456.5v-8h1.46v8Zm0-9.49v-1.45h1.46V447Z" transform="translate(-119.83 -377.59)"/><path d="M290.72,456.5l-3-8h1.47l2.35,6.21,2.47-6.21h1.4l-3.2,8Z" transform="translate(-119.83 -377.59)"/><path d="M299.76,449.41c1.13,0,1.69.74,1.69,2.23h-3.58C298,450.15,298.63,449.41,299.76,449.41Zm3.12,5.67a6.55,6.55,0,0,1-2.25.51c-1.67,0-2.61-.95-2.83-2.85h5.12v-.45a4.68,4.68,0,0,0-.8-2.94,2.7,2.7,0,0,0-2.27-1,3.19,3.19,0,0,0-2.55,1.17,4.45,4.45,0,0,0-1,3,4.23,4.23,0,0,0,1.13,3.05,3.85,3.85,0,0,0,2.92,1.18,9.21,9.21,0,0,0,2.53-.44Z" transform="translate(-119.83 -377.59)"/><path d="M305.44,456.5v-8h1.47V450a2.74,2.74,0,0,1,2.54-1.69,3.89,3.89,0,0,1,.47,0v1.37a2.26,2.26,0,0,0-.67-.12,2.72,2.72,0,0,0-2.34,1.63v5.27Z" transform="translate(-119.83 -377.59)"/><path d="M311.4,456.21v-1.33a5.87,5.87,0,0,0,2.5.71,1.56,1.56,0,0,0,1.05-.34,1.06,1.06,0,0,0,.42-.85c0-.49-.39-.9-1.17-1.22l-.85-.37c-1.27-.52-1.9-1.27-1.9-2.25a2,2,0,0,1,.75-1.64,3.13,3.13,0,0,1,2.05-.61,9.64,9.64,0,0,1,1.67.18l.3.06v1.22a7.33,7.33,0,0,0-2-.36,1.65,1.65,0,0,0-1,.28.85.85,0,0,0-.38.74c0,.43.35.8,1.07,1.1l.7.3a4.69,4.69,0,0,1,1.7,1.05,2,2,0,0,1,.5,1.39A2.13,2.13,0,0,1,316,456a3.36,3.36,0,0,1-2.16.68A8,8,0,0,1,311.4,456.21Z" transform="translate(-119.83 -377.59)"/><path d="M319.47,456.5v-8h1.47v8Zm0-9.49v-1.45h1.47V447Z" transform="translate(-119.83 -377.59)"/><path d="M327.49,456.5a4.7,4.7,0,0,1-1.17.19,2.37,2.37,0,0,1-1.75-.64,2.42,2.42,0,0,1-.62-1.76v-4.71h-1v-1.1h1V447l1.46-.14v1.6h2.12v1.1h-2.12V454c0,1.05.46,1.57,1.37,1.57a2.93,2.93,0,0,0,.71-.1Z" transform="translate(-119.83 -377.59)"/><path d="M330.06,459.42l1.32-2.93-3.13-8h1.57l2.33,6.06,2.48-6.06H336l-4.42,10.94Z" transform="translate(-119.83 -377.59)"/><path d="M341.69,456.3v-1.54a8,8,0,0,0,3.07.85,2.18,2.18,0,0,0,1.48-.49,1.56,1.56,0,0,0,.57-1.25,1.72,1.72,0,0,0-.37-1.1,5,5,0,0,0-1.36-1l-.76-.44a7,7,0,0,1-2-1.5,2.47,2.47,0,0,1-.58-1.64,2.64,2.64,0,0,1,.93-2.08,3.37,3.37,0,0,1,2.35-.82,9.49,9.49,0,0,1,2.69.42v1.42a8.08,8.08,0,0,0-2.6-.67,2.08,2.08,0,0,0-1.34.42,1.35,1.35,0,0,0-.53,1.08,1.38,1.38,0,0,0,.39,1,6.33,6.33,0,0,0,1.41,1l.79.44a6.77,6.77,0,0,1,2,1.53,2.66,2.66,0,0,1,.57,1.72,2.8,2.8,0,0,1-1.06,2.29,4.34,4.34,0,0,1-2.81.86A11.58,11.58,0,0,1,341.69,456.3Z" transform="translate(-119.83 -377.59)"/><path d="M351.1,459.42l1.32-2.93-3.13-8h1.57l2.32,6.06,2.48-6.06h1.4l-4.42,10.94Z" transform="translate(-119.83 -377.59)"/><path d="M358.32,456.21v-1.33a5.87,5.87,0,0,0,2.51.71,1.6,1.6,0,0,0,1.05-.34,1.07,1.07,0,0,0,.41-.85c0-.49-.39-.9-1.16-1.22l-.86-.37c-1.26-.52-1.9-1.27-1.9-2.25a2,2,0,0,1,.75-1.64,3.13,3.13,0,0,1,2.05-.61,9.64,9.64,0,0,1,1.67.18l.31.06v1.22a7.39,7.39,0,0,0-2-.36,1.67,1.67,0,0,0-1,.28.87.87,0,0,0-.38.74c0,.43.35.8,1.07,1.1l.7.3a4.69,4.69,0,0,1,1.7,1.05,2,2,0,0,1,.5,1.39,2.13,2.13,0,0,1-.84,1.74,3.34,3.34,0,0,1-2.16.68A8,8,0,0,1,358.32,456.21Z" transform="translate(-119.83 -377.59)"/><path d="M370,456.5a4.7,4.7,0,0,1-1.18.19,2.18,2.18,0,0,1-2.36-2.4v-4.71h-1v-1.1h1V447l1.46-.14v1.6H370v1.1h-2.11V454c0,1.05.46,1.57,1.37,1.57a2.93,2.93,0,0,0,.71-.1Z" transform="translate(-119.83 -377.59)"/><path d="M374.94,449.41c1.12,0,1.68.74,1.68,2.23H373C373.17,450.15,373.8,449.41,374.94,449.41Zm3.12,5.67a6.64,6.64,0,0,1-2.26.51q-2.51,0-2.82-2.85h5.11v-.45a4.68,4.68,0,0,0-.81-2.94,2.7,2.7,0,0,0-2.27-1,3.22,3.22,0,0,0-2.55,1.17,4.45,4.45,0,0,0-1,3,4.22,4.22,0,0,0,1.12,3.05,3.86,3.86,0,0,0,2.93,1.18,9.27,9.27,0,0,0,2.53-.44Z" transform="translate(-119.83 -377.59)"/><path d="M380.61,456.5v-8h1.47V450a3.16,3.16,0,0,1,2.75-1.69A2.2,2.2,0,0,1,387,450a3.1,3.1,0,0,1,2.71-1.69,2.18,2.18,0,0,1,1.66.63,2.43,2.43,0,0,1,.59,1.74v5.82h-1.47v-5.57c0-.91-.36-1.37-1.09-1.37a3.35,3.35,0,0,0-2.4,1.6v5.34h-1.47v-5.59q0-1.38-1.11-1.38c-.74,0-1.53.54-2.38,1.61v5.36Z" transform="translate(-119.83 -377.59)"/><path d="M401.24,454.78a4.63,4.63,0,0,1,0-4.56,2.17,2.17,0,0,1,3.38,0,4.63,4.63,0,0,1,0,4.56,2.17,2.17,0,0,1-3.38,0Zm4.51.78a5,5,0,0,0,0-6.12,4.08,4.08,0,0,0-5.64,0,5,5,0,0,0,0,6.12,4.08,4.08,0,0,0,5.64,0Z" transform="translate(-119.83 -377.59)"/><path d="M409.36,456.5v-6.92h-1.15v-1.1h1.15v-1c0-1.91.88-2.87,2.64-2.87a6.78,6.78,0,0,1,1.67.24v1.16a5.8,5.8,0,0,0-1.59-.3,1.2,1.2,0,0,0-1,.34,2.28,2.28,0,0,0-.26,1.28v1.11h2v1.1h-2v6.92Z" transform="translate(-119.83 -377.59)"/><path d="M427.79,456.2a13,13,0,0,1-3.5.57,5.31,5.31,0,0,1-4-1.48,6,6,0,0,1-1.4-4.26,5.86,5.86,0,0,1,1.43-4.23,5.24,5.24,0,0,1,4-1.51,13.77,13.77,0,0,1,3.49.49v1.44a12,12,0,0,0-3.5-.76,3.41,3.41,0,0,0-2.78,1.2,5.22,5.22,0,0,0-1,3.38,4.94,4.94,0,0,0,1.05,3.36,3.74,3.74,0,0,0,3,1.21,5.68,5.68,0,0,0,1.69-.28v-3.55h1.56Z" transform="translate(-119.83 -377.59)"/><path d="M433.39,449.41c1.13,0,1.69.74,1.69,2.23H431.5C431.63,450.15,432.26,449.41,433.39,449.41Zm3.12,5.67a6.55,6.55,0,0,1-2.25.51c-1.67,0-2.61-.95-2.83-2.85h5.12v-.45a4.68,4.68,0,0,0-.8-2.94,2.7,2.7,0,0,0-2.27-1,3.19,3.19,0,0,0-2.55,1.17,4.45,4.45,0,0,0-1,3,4.23,4.23,0,0,0,1.13,3.05,3.84,3.84,0,0,0,2.92,1.18,9.21,9.21,0,0,0,2.53-.44Z" transform="translate(-119.83 -377.59)"/><path d="M440.61,454.78a4.63,4.63,0,0,1,0-4.56,2.17,2.17,0,0,1,3.38,0,4.63,4.63,0,0,1,0,4.56,2.17,2.17,0,0,1-3.38,0Zm4.51.78a5,5,0,0,0,0-6.12,4.08,4.08,0,0,0-5.64,0,5,5,0,0,0,0,6.12,4.08,4.08,0,0,0,5.64,0Z" transform="translate(-119.83 -377.59)"/><path d="M448.45,456.5v-8h1.47V450a2.74,2.74,0,0,1,2.54-1.69,3.89,3.89,0,0,1,.47,0v1.37a2.26,2.26,0,0,0-.67-.12,2.72,2.72,0,0,0-2.34,1.63v5.27Z" transform="translate(-119.83 -377.59)"/><path d="M457.51,455c-1.25,0-1.87-.86-1.87-2.6a3.8,3.8,0,0,1,.57-2.22,1.85,1.85,0,0,1,1.59-.8,2.91,2.91,0,0,1,2.11,1v3.32A3.2,3.2,0,0,1,457.51,455Zm-.08,4.56a4,4,0,0,0,3-1,3.05,3.05,0,0,0,.74-1.48,14.34,14.34,0,0,0,.2-2.79v-5.83h-1.47v.93a3,3,0,0,0-2.33-1.1,3.18,3.18,0,0,0-2.53,1.15,4.41,4.41,0,0,0-1,3,4.33,4.33,0,0,0,.86,2.83,3.05,3.05,0,0,0,3.9.6,2.79,2.79,0,0,0,1.08-1.24v1.26c0,1.74-.82,2.6-2.48,2.6a6.14,6.14,0,0,1-2.52-.57l-.18,1.25A8.76,8.76,0,0,0,457.43,459.59Z" transform="translate(-119.83 -377.59)"/><path d="M464.22,456.5v-8h1.47v8Zm0-9.49v-1.45h1.47V447Z" transform="translate(-119.83 -377.59)"/><path d="M470.69,455.5a1.26,1.26,0,0,1-.91-.36,1.17,1.17,0,0,1-.38-.88,1.35,1.35,0,0,1,.75-1.19,3.87,3.87,0,0,1,2-.45h.48v2.07A3.1,3.1,0,0,1,470.69,455.5Zm3.44,1.19a2.5,2.5,0,0,0,1.1-.24l-.1-.81-.29,0c-.51,0-.77-.41-.77-1.24V450.8a2.47,2.47,0,0,0-.64-1.88,2.84,2.84,0,0,0-2-.61,7.65,7.65,0,0,0-2.8.59v1.19a5.64,5.64,0,0,1,2.49-.68c1,0,1.48.47,1.48,1.4v1h-.35a6.06,6.06,0,0,0-3.21.71,2.25,2.25,0,0,0-1.11,2,2,2,0,0,0,.66,1.57,2.33,2.33,0,0,0,1.67.63,3.88,3.88,0,0,0,2.55-1.2C473,456.29,473.45,456.69,474.13,456.69Z" transform="translate(-119.83 -377.59)"/><path d="M251.8,389.76a13.84,13.84,0,0,1-3.74.61,5.69,5.69,0,0,1-4.33-1.59,7.58,7.58,0,0,1,0-9.09,5.64,5.64,0,0,1,4.3-1.61,14.37,14.37,0,0,1,3.73.52v1.54a13.05,13.05,0,0,0-3.75-.81,3.66,3.66,0,0,0-3,1.28,5.58,5.58,0,0,0-1.06,3.62,5.22,5.22,0,0,0,1.14,3.6,4,4,0,0,0,3.17,1.29,6.48,6.48,0,0,0,1.81-.29V385h1.67Z" transform="translate(-119.83 -377.59)"/><path d="M257.8,382.47q1.8,0,1.8,2.4h-3.83C255.91,383.27,256.58,382.47,257.8,382.47Zm3.34,6.08a6.9,6.9,0,0,1-2.41.55q-2.69,0-3-3.07h5.47v-.47a5.07,5.07,0,0,0-.86-3.15,2.89,2.89,0,0,0-2.43-1.11,3.42,3.42,0,0,0-2.72,1.25,4.76,4.76,0,0,0-1.07,3.2,4.54,4.54,0,0,0,1.2,3.26,4.15,4.15,0,0,0,3.13,1.26,9.57,9.57,0,0,0,2.71-.48Z" transform="translate(-119.83 -377.59)"/><path d="M265.53,388.23a5,5,0,0,1,0-4.9,2.37,2.37,0,0,1,3.65,0,4.94,4.94,0,0,1,0,4.9,2.35,2.35,0,0,1-3.65,0Zm4.85.83a5.35,5.35,0,0,0,0-6.55,4.39,4.39,0,0,0-6.05,0,5.39,5.39,0,0,0,0,6.55,4.39,4.39,0,0,0,6.05,0Z" transform="translate(-119.83 -377.59)"/><path d="M274,390.08v-8.59h1.56v1.62a3,3,0,0,1,2.72-1.81,4.75,4.75,0,0,1,.51,0v1.47a2.44,2.44,0,0,0-.72-.14,2.93,2.93,0,0,0-2.51,1.76v5.65Z" transform="translate(-119.83 -377.59)"/><path d="M283.65,388.51c-1.35,0-2-.93-2-2.79a4,4,0,0,1,.62-2.39,2,2,0,0,1,1.71-.86,3.09,3.09,0,0,1,2.27,1.07v3.56A3.44,3.44,0,0,1,283.65,388.51Zm-.08,4.88a4.27,4.27,0,0,0,3.22-1.08,3.24,3.24,0,0,0,.8-1.59,15.32,15.32,0,0,0,.21-3v-6.25h-1.57v1a3.25,3.25,0,0,0-2.51-1.17,3.4,3.4,0,0,0-2.71,1.24,4.74,4.74,0,0,0-1.05,3.19,4.62,4.62,0,0,0,.92,3,3.07,3.07,0,0,0,2.5,1.12,3.19,3.19,0,0,0,1.69-.47,3.14,3.14,0,0,0,1.16-1.33v1.35c0,1.86-.89,2.8-2.66,2.8a6.33,6.33,0,0,1-2.71-.65l-.18,1.35A9,9,0,0,0,283.57,393.39Z" transform="translate(-119.83 -377.59)"/><path d="M290.84,390.08v-8.59h1.57v8.59Zm0-10.16v-1.55h1.57v1.55Z" transform="translate(-119.83 -377.59)"/><path d="M297.77,389a1.35,1.35,0,0,1-1-.39,1.25,1.25,0,0,1-.4-.95,1.46,1.46,0,0,1,.8-1.28,4.13,4.13,0,0,1,2.12-.48h.51v2.23A3.35,3.35,0,0,1,297.77,389Zm3.68,1.27a2.87,2.87,0,0,0,1.18-.25l-.11-.86-.31,0c-.55,0-.83-.45-.83-1.34V384a2.67,2.67,0,0,0-.68-2,3,3,0,0,0-2.14-.66,8,8,0,0,0-3,.65v1.26a6,6,0,0,1,2.67-.74c1.05,0,1.58.5,1.58,1.49v1h-.37a6.47,6.47,0,0,0-3.43.75,2.42,2.42,0,0,0-1.2,2.16,2.23,2.23,0,0,0,.71,1.69,2.5,2.5,0,0,0,1.79.67,4.16,4.16,0,0,0,2.73-1.29C300.25,389.84,300.72,390.27,301.45,390.27Z" transform="translate(-119.83 -377.59)"/><path d="M304.32,381.89l-.4-4.3h2l-.39,4.3Z" transform="translate(-119.83 -377.59)"/><path d="M308.05,389.76v-1.43a6.24,6.24,0,0,0,2.68.77,1.74,1.74,0,0,0,1.13-.36,1.13,1.13,0,0,0,.45-.91q0-.79-1.26-1.32l-.92-.39c-1.35-.56-2-1.36-2-2.41a2.15,2.15,0,0,1,.8-1.76,3.43,3.43,0,0,1,2.2-.65,10.34,10.34,0,0,1,1.8.2l.33.06v1.3a7.89,7.89,0,0,0-2.1-.39,1.82,1.82,0,0,0-1.1.3.9.9,0,0,0-.41.79c0,.47.38.87,1.14,1.19l.76.31a5,5,0,0,1,1.82,1.14,2.12,2.12,0,0,1,.54,1.49,2.25,2.25,0,0,1-.91,1.85,3.52,3.52,0,0,1-2.3.73A8.56,8.56,0,0,1,308.05,389.76Z" transform="translate(-119.83 -377.59)"/><path d="M325.06,390.08l-4.47-11.71h1.68l3.66,9.59,3.54-9.59h1.47l-4.3,11.71Z" transform="translate(-119.83 -377.59)"/><path d="M332.57,390.08v-8.59h1.57v8.59Zm0-10.16v-1.55h1.57v1.55Z" transform="translate(-119.83 -377.59)"/><path d="M337.3,390.08v-8.59h1.56v1.62a3,3,0,0,1,2.72-1.81,4.75,4.75,0,0,1,.51,0v1.47a2.44,2.44,0,0,0-.72-.14,2.93,2.93,0,0,0-2.51,1.76v5.65Z" transform="translate(-119.83 -377.59)"/><path d="M347.86,390.07a5.07,5.07,0,0,1-1.27.2,2.5,2.5,0,0,1-1.86-.68,2.55,2.55,0,0,1-.67-1.89v-5.05H343v-1.16h1.09v-1.55l1.56-.16v1.71h2.27v1.16h-2.27v4.77c0,1.12.49,1.68,1.48,1.68a3.45,3.45,0,0,0,.76-.1Z" transform="translate(-119.83 -377.59)"/><path d="M355.55,390.08v-1.62a3.66,3.66,0,0,1-3.05,1.81,2.36,2.36,0,0,1-1.8-.71,2.65,2.65,0,0,1-.67-1.91v-6.16h1.56v5.65a2.47,2.47,0,0,0,.29,1.37,1.07,1.07,0,0,0,.95.41c1,0,1.86-.63,2.72-1.87v-5.56h1.57v8.59Z" transform="translate(-119.83 -377.59)"/><path d="M362.46,389a1.37,1.37,0,0,1-1-.39,1.29,1.29,0,0,1-.4-.95,1.45,1.45,0,0,1,.81-1.28,4.07,4.07,0,0,1,2.11-.48h.51v2.23A3.32,3.32,0,0,1,362.46,389Zm3.68,1.27a2.87,2.87,0,0,0,1.18-.25l-.11-.86-.3,0c-.56,0-.83-.45-.83-1.34V384a2.63,2.63,0,0,0-.69-2,3,3,0,0,0-2.13-.66,8,8,0,0,0-3,.65v1.26a6,6,0,0,1,2.67-.74c1.05,0,1.58.5,1.58,1.49v1h-.37a6.49,6.49,0,0,0-3.43.75,2.42,2.42,0,0,0-1.2,2.16,2.2,2.2,0,0,0,.72,1.69,2.48,2.48,0,0,0,1.78.67,4.14,4.14,0,0,0,2.73-1.29C364.94,389.84,365.41,390.27,366.14,390.27Z" transform="translate(-119.83 -377.59)"/><path d="M369.3,390.08V377.59h1.57v12.49Z" transform="translate(-119.83 -377.59)"/><path d="M379.17,390.08V378.37h1.67v10.46h5.34v1.25Z" transform="translate(-119.83 -377.59)"/><path d="M387.93,390.08v-8.59h1.57v8.59Zm0-10.16v-1.55h1.57v1.55Z" transform="translate(-119.83 -377.59)"/><path d="M394.23,384.08a3.54,3.54,0,0,1,2.58-1.41c1.34,0,2,1,2,3a4.6,4.6,0,0,1-.59,2.52,1.93,1.93,0,0,1-1.69.89,3.63,3.63,0,0,1-2.32-1.07Zm-.19,6.1.19-1.08a3.4,3.4,0,0,0,5.25-.14,5.44,5.44,0,0,0,1-3.44,4.86,4.86,0,0,0-.9-3.09,3,3,0,0,0-2.47-1.13,3.11,3.11,0,0,0-2.9,1.8v-5.51h-1.57v12.59Z" transform="translate(-119.83 -377.59)"/><path d="M403,390.08v-8.59h1.56v1.62a3,3,0,0,1,2.72-1.81,4.75,4.75,0,0,1,.51,0v1.47a2.39,2.39,0,0,0-.72-.14,2.93,2.93,0,0,0-2.51,1.76v5.65Z" transform="translate(-119.83 -377.59)"/><path d="M411.85,389a1.35,1.35,0,0,1-1-.39,1.25,1.25,0,0,1-.4-.95,1.46,1.46,0,0,1,.8-1.28,4.13,4.13,0,0,1,2.12-.48h.51v2.23A3.35,3.35,0,0,1,411.85,389Zm3.68,1.27a2.87,2.87,0,0,0,1.18-.25l-.11-.86-.31,0c-.55,0-.83-.45-.83-1.34V384a2.67,2.67,0,0,0-.68-2,3,3,0,0,0-2.13-.66,8,8,0,0,0-3,.65v1.26a6,6,0,0,1,2.67-.74c1.05,0,1.58.5,1.58,1.49v1h-.37a6.47,6.47,0,0,0-3.43.75,2.42,2.42,0,0,0-1.2,2.16,2.23,2.23,0,0,0,.71,1.69,2.5,2.5,0,0,0,1.79.67,4.18,4.18,0,0,0,2.73-1.29C414.33,389.84,414.79,390.27,415.53,390.27Z" transform="translate(-119.83 -377.59)"/><path d="M418.69,390.08v-8.59h1.57v1.62A2.94,2.94,0,0,1,423,381.3a4.75,4.75,0,0,1,.51,0v1.47a2.44,2.44,0,0,0-.72-.14,2.91,2.91,0,0,0-2.5,1.76v5.65Z" transform="translate(-119.83 -377.59)"/><path d="M425.89,393.2l1.41-3.12L424,381.49h1.68l2.49,6.49,2.66-6.49h1.49l-4.74,11.71Z" transform="translate(-119.83 -377.59)"/><path d="M263.58,399.66a16.41,16.41,0,0,0-3.1-1.94,18.86,18.86,0,0,0-3.78-1.35,18,18,0,0,0-4.43-.53,21.32,21.32,0,0,0-7.15,1.17,15.25,15.25,0,0,0-5.76,3.59,16.72,16.72,0,0,0-3.85,6.14,25.24,25.24,0,0,0-1.39,8.8,24.88,24.88,0,0,0,1.24,8.11,15.69,15.69,0,0,0,9.44,9.94,21.1,21.1,0,0,0,7.77,1.35q1.31,0,2.73-.12c.95-.09,1.87-.21,2.75-.37a20,20,0,0,0,2.48-.61,9.9,9.9,0,0,0,2-.86c0-1.23.08-2.46.1-3.68s0-2.48,0-3.75c0-1.43,0-2.86-.11-4.29s-.14-2.8-.23-4.11a16,16,0,0,0,3,.31q.69,0,1.38-.06a7.91,7.91,0,0,0,1.32-.25c-.09.94-.16,2.43-.2,4.46s-.07,4.7-.07,8q0,1.23,0,2.49c0,.83,0,1.67,0,2.48-.87.33-2,.67-3.26,1a39.39,39.39,0,0,1-4.15.86c-1.47.22-2.94.43-4.4.61a31.34,31.34,0,0,1-4,.28,34.79,34.79,0,0,1-10-1.32A19.43,19.43,0,0,1,234.5,432a18.3,18.3,0,0,1-4.77-6.88,25.1,25.1,0,0,1-1.68-9.53,23.6,23.6,0,0,1,1.74-9.31,19.3,19.3,0,0,1,4.89-6.91,21.35,21.35,0,0,1,7.65-4.31,31.88,31.88,0,0,1,9.95-1.47,40.55,40.55,0,0,1,5.6.34,30.8,30.8,0,0,1,4.34.9,27.16,27.16,0,0,1,3.31,1.18c1,.41,1.8.8,2.54,1.16a10.83,10.83,0,0,0-.9,2.22,13.64,13.64,0,0,0-.52,2.52h-.75A15.48,15.48,0,0,0,263.58,399.66Z" transform="translate(-119.83 -377.59)"/><path d="M312.88,436.56a10.79,10.79,0,0,0-1.64-.14H308a10.68,10.68,0,0,0-1.64.14c-.29-.94-.69-2.08-1.18-3.41s-1.05-2.72-1.65-4.17-1.21-2.93-1.83-4.42-1.2-2.92-1.73-4.27c-1.33-.05-2.67-.08-4-.1s-2.73,0-4.09,0-2.55,0-3.79,0-2.5.05-3.78.1q-2,4.79-3.6,9.12c-1.07,2.88-1.88,5.27-2.42,7.15a18.88,18.88,0,0,0-4.59,0q5-10.76,9.8-21.38T293,393.55h1.18l3.22,7.71q1.74,4.14,3.54,8.39t3.6,8.42q1.8,4.17,3.38,7.77t2.85,6.42C311.65,434.14,312.34,435.58,312.88,436.56ZM285.4,417.45c1.07,0,2.19,0,3.35.07s2.27.07,3.35.07,2.31,0,3.47,0,2.32-.05,3.48-.1l-6.89-15.61Z" transform="translate(-119.83 -377.59)"/><path d="M319.9,402.31q-.15-3.9-.32-7.95l1.54.19a14.87,14.87,0,0,0,1.49.08,14.68,14.68,0,0,0,1.48-.08l1.55-.19q-.18,4-.33,7.95c-.1,2.61-.14,5.26-.14,8q0,7.74.06,13.42c0,3.79.09,7.18.14,10.17q4.41,0,8.44-.09a80.3,80.3,0,0,0,8.68-.71,7,7,0,0,0-.31,1.84,5.63,5.63,0,0,0,.31,1.66c-1.9-.09-3.8-.14-5.71-.14H325.33c-1.84,0-3.76.05-5.75.14q.17-3.81.32-7.74t.15-8V410.27C320.05,407.57,320,404.91,319.9,402.31Z" transform="translate(-119.83 -377.59)"/><path d="M350.93,402.31c-.1-2.6-.2-5.25-.32-7.95l1.54.19c.5.05,1,.08,1.49.08a14.68,14.68,0,0,0,1.48-.08l1.55-.19c-.12,2.7-.22,5.35-.32,7.95s-.15,5.26-.15,8v10.56c0,2.71,0,5.37.15,8s.2,5.2.32,7.74c-.95-.09-2-.14-3-.14s-2.08.05-3,.14c.12-2.54.22-5.12.32-7.74s.15-5.28.15-8V410.27C351.08,407.57,351,404.91,350.93,402.31Z" transform="translate(-119.83 -377.59)"/><path d="M368.19,402.31q-.15-3.9-.33-7.95l1.55.19a14.68,14.68,0,0,0,1.48.08,14.87,14.87,0,0,0,1.49-.08l1.55-.19q-.18,4-.33,7.95t-.15,8q0,7.74.07,13.42c0,3.79.09,7.18.13,10.17q4.41,0,8.44-.09a80.48,80.48,0,0,0,8.69-.71,7,7,0,0,0-.31,1.84,5.63,5.63,0,0,0,.31,1.66c-1.91-.09-3.81-.14-5.71-.14H373.62c-1.85,0-3.77.05-5.76.14q.18-3.81.33-7.74t.15-8V410.27C368.34,407.57,368.29,404.91,368.19,402.31Z" transform="translate(-119.83 -377.59)"/><path d="M399.22,402.22q-.15-3.93-.33-7.86l5.58.19c1.84.05,3.7.08,5.56.08s3.7,0,5.52-.08l5.52-.19a9.15,9.15,0,0,0,0,3.71l-3.63-.27-3.47-.27c-1.22-.09-2.56-.17-4-.23s-3.19-.11-5.22-.11c0,1.32-.1,2.57-.17,3.76s-.1,2.55-.1,4.07,0,3.17,0,4.69,0,2.67,0,3.45c1.82,0,3.45,0,4.9-.07s2.77-.09,4-.15l3.32-.18c1-.06,2-.14,2.88-.22a10,10,0,0,0-.18,1.91,9.64,9.64,0,0,0,.18,1.84c-1.07-.12-2.32-.23-3.75-.31s-2.85-.13-4.28-.15l-4-.06-3,0c0,.36,0,.76,0,1.19s0,1,0,1.63v6.08c0,2.34,0,4.26,0,5.78s.05,2.66.1,3.44H409q2.35,0,4.62-.09c1.51-.06,2.94-.15,4.28-.25a28.76,28.76,0,0,0,3.51-.46,3.93,3.93,0,0,0-.16.95c0,.35,0,.67,0,.95a5.42,5.42,0,0,0,.19,1.6c-1.86-.09-3.71-.14-5.55-.14H404.55c-1.86,0-3.75.05-5.66.14q.18-3.93.33-7.83t.15-8V410.21Q399.37,406.15,399.22,402.22Z" transform="translate(-119.83 -377.59)"/><path d="M428.63,406.24a19.42,19.42,0,0,1,4.78-6.91,20.66,20.66,0,0,1,7.36-4.31,30.79,30.79,0,0,1,18.8,0,20.66,20.66,0,0,1,7.36,4.31,19.42,19.42,0,0,1,4.78,6.91,26.2,26.2,0,0,1,0,18.62A19.06,19.06,0,0,1,459.57,436a32.7,32.7,0,0,1-18.8,0,19.06,19.06,0,0,1-12.14-11.13,26.2,26.2,0,0,1,0-18.62Zm37.41.51a16.79,16.79,0,0,0-3.63-6.15,14.6,14.6,0,0,0-5.47-3.59,20.17,20.17,0,0,0-13.54,0,14.52,14.52,0,0,0-5.47,3.59,16.79,16.79,0,0,0-3.63,6.15,30.28,30.28,0,0,0,0,17.62,16.79,16.79,0,0,0,3.63,6.15,14.4,14.4,0,0,0,5.47,3.59,20.17,20.17,0,0,0,13.54,0,14.48,14.48,0,0,0,5.47-3.59,16.79,16.79,0,0,0,3.63-6.15,30.28,30.28,0,0,0,0-17.62Z" transform="translate(-119.83 -377.59)"/><path d="M263.58,399.66a16.41,16.41,0,0,0-3.1-1.94,18.86,18.86,0,0,0-3.78-1.35,18,18,0,0,0-4.43-.53,21.32,21.32,0,0,0-7.15,1.17,15.25,15.25,0,0,0-5.76,3.59,16.72,16.72,0,0,0-3.85,6.14,25.24,25.24,0,0,0-1.39,8.8,24.88,24.88,0,0,0,1.24,8.11,15.69,15.69,0,0,0,9.44,9.94,21.1,21.1,0,0,0,7.77,1.35q1.31,0,2.73-.12c.95-.09,1.87-.21,2.75-.37a20,20,0,0,0,2.48-.61,9.9,9.9,0,0,0,2-.86c0-1.23.08-2.46.1-3.68s0-2.48,0-3.75c0-1.43,0-2.86-.11-4.29s-.14-2.8-.23-4.11a16,16,0,0,0,3,.31q.69,0,1.38-.06a7.91,7.91,0,0,0,1.32-.25c-.09.94-.16,2.43-.2,4.46s-.07,4.7-.07,8q0,1.23,0,2.49c0,.83,0,1.67,0,2.48-.87.33-2,.67-3.26,1a39.39,39.39,0,0,1-4.15.86c-1.47.22-2.94.43-4.4.61a31.34,31.34,0,0,1-4,.28,34.79,34.79,0,0,1-10-1.32A19.43,19.43,0,0,1,234.5,432a18.3,18.3,0,0,1-4.77-6.88,25.1,25.1,0,0,1-1.68-9.53,23.6,23.6,0,0,1,1.74-9.31,19.3,19.3,0,0,1,4.89-6.91,21.35,21.35,0,0,1,7.65-4.31,31.88,31.88,0,0,1,9.95-1.47,40.55,40.55,0,0,1,5.6.34,30.8,30.8,0,0,1,4.34.9,27.16,27.16,0,0,1,3.31,1.18c1,.41,1.8.8,2.54,1.16a10.83,10.83,0,0,0-.9,2.22,13.64,13.64,0,0,0-.52,2.52h-.75A15.48,15.48,0,0,0,263.58,399.66Z" transform="translate(-119.83 -377.59)"/><path d="M312.88,436.56a10.79,10.79,0,0,0-1.64-.14H308a10.68,10.68,0,0,0-1.64.14c-.29-.94-.69-2.08-1.18-3.41s-1.05-2.72-1.65-4.17-1.21-2.93-1.83-4.42-1.2-2.92-1.73-4.27c-1.33-.05-2.67-.08-4-.1s-2.73,0-4.09,0-2.55,0-3.79,0-2.5.05-3.78.1q-2,4.79-3.6,9.12c-1.07,2.88-1.88,5.27-2.42,7.15a18.88,18.88,0,0,0-4.59,0q5-10.76,9.8-21.38T293,393.55h1.18l3.22,7.71q1.74,4.14,3.54,8.39t3.6,8.42q1.8,4.17,3.38,7.77t2.85,6.42C311.65,434.14,312.34,435.58,312.88,436.56ZM285.4,417.45c1.07,0,2.19,0,3.35.07s2.27.07,3.35.07,2.31,0,3.47,0,2.32-.05,3.48-.1l-6.89-15.61Z" transform="translate(-119.83 -377.59)"/><path d="M319.9,402.31q-.15-3.9-.32-7.95l1.54.19a14.87,14.87,0,0,0,1.49.08,14.68,14.68,0,0,0,1.48-.08l1.55-.19q-.18,4-.33,7.95c-.1,2.61-.14,5.26-.14,8q0,7.74.06,13.42c0,3.79.09,7.18.14,10.17q4.41,0,8.44-.09a80.3,80.3,0,0,0,8.68-.71,7,7,0,0,0-.31,1.84,5.63,5.63,0,0,0,.31,1.66c-1.9-.09-3.8-.14-5.71-.14H325.33c-1.84,0-3.76.05-5.75.14q.17-3.81.32-7.74t.15-8V410.27C320.05,407.57,320,404.91,319.9,402.31Z" transform="translate(-119.83 -377.59)"/><path d="M350.93,402.31c-.1-2.6-.2-5.25-.32-7.95l1.54.19c.5.05,1,.08,1.49.08a14.68,14.68,0,0,0,1.48-.08l1.55-.19c-.12,2.7-.22,5.35-.32,7.95s-.15,5.26-.15,8v10.56c0,2.71,0,5.37.15,8s.2,5.2.32,7.74c-.95-.09-2-.14-3-.14s-2.08.05-3,.14c.12-2.54.22-5.12.32-7.74s.15-5.28.15-8V410.27C351.08,407.57,351,404.91,350.93,402.31Z" transform="translate(-119.83 -377.59)"/><path d="M368.19,402.31q-.15-3.9-.33-7.95l1.55.19a14.68,14.68,0,0,0,1.48.08,14.87,14.87,0,0,0,1.49-.08l1.55-.19q-.18,4-.33,7.95t-.15,8q0,7.74.07,13.42c0,3.79.09,7.18.13,10.17q4.41,0,8.44-.09a80.48,80.48,0,0,0,8.69-.71,7,7,0,0,0-.31,1.84,5.63,5.63,0,0,0,.31,1.66c-1.91-.09-3.81-.14-5.71-.14H373.62c-1.85,0-3.77.05-5.76.14q.18-3.81.33-7.74t.15-8V410.27C368.34,407.57,368.29,404.91,368.19,402.31Z" transform="translate(-119.83 -377.59)"/><path d="M399.22,402.22q-.15-3.93-.33-7.86l5.58.19c1.84.05,3.7.08,5.56.08s3.7,0,5.52-.08l5.52-.19a9.15,9.15,0,0,0,0,3.71l-3.63-.27-3.47-.27c-1.22-.09-2.56-.17-4-.23s-3.19-.11-5.22-.11c0,1.32-.1,2.57-.17,3.76s-.1,2.55-.1,4.07,0,3.17,0,4.69,0,2.67,0,3.45c1.82,0,3.45,0,4.9-.07s2.77-.09,4-.15l3.32-.18c1-.06,2-.14,2.88-.22a10,10,0,0,0-.18,1.91,9.64,9.64,0,0,0,.18,1.84c-1.07-.12-2.32-.23-3.75-.31s-2.85-.13-4.28-.15l-4-.06-3,0c0,.36,0,.76,0,1.19s0,1,0,1.63v6.08c0,2.34,0,4.26,0,5.78s.05,2.66.1,3.44H409q2.35,0,4.62-.09c1.51-.06,2.94-.15,4.28-.25a28.76,28.76,0,0,0,3.51-.46,3.93,3.93,0,0,0-.16.95c0,.35,0,.67,0,.95a5.42,5.42,0,0,0,.19,1.6c-1.86-.09-3.71-.14-5.55-.14H404.55c-1.86,0-3.75.05-5.66.14q.18-3.93.33-7.83t.15-8V410.21Q399.37,406.15,399.22,402.22Z" transform="translate(-119.83 -377.59)"/><path d="M428.63,406.24a19.42,19.42,0,0,1,4.78-6.91,20.66,20.66,0,0,1,7.36-4.31,30.79,30.79,0,0,1,18.8,0,20.66,20.66,0,0,1,7.36,4.31,19.42,19.42,0,0,1,4.78,6.91,26.2,26.2,0,0,1,0,18.62A19.06,19.06,0,0,1,459.57,436a32.7,32.7,0,0,1-18.8,0,19.06,19.06,0,0,1-12.14-11.13,26.2,26.2,0,0,1,0-18.62Zm37.41.51a16.79,16.79,0,0,0-3.63-6.15,14.6,14.6,0,0,0-5.47-3.59,20.17,20.17,0,0,0-13.54,0,14.52,14.52,0,0,0-5.47,3.59,16.79,16.79,0,0,0-3.63,6.15,30.28,30.28,0,0,0,0,17.62,16.79,16.79,0,0,0,3.63,6.15,14.4,14.4,0,0,0,5.47,3.59,20.17,20.17,0,0,0,13.54,0,14.48,14.48,0,0,0,5.47-3.59,16.79,16.79,0,0,0,3.63-6.15,30.28,30.28,0,0,0,0-17.62Z" transform="translate(-119.83 -377.59)"/><polygon class="cls-27" points="47.62 17.91 49.06 17.37 50.63 17.89 51.7 18.41 51.89 19.09 50.95 19.53 49.14 19.13 48.41 19.19 47.98 19.14 47.51 18.48 47.62 17.91 47.62 17.91"/><polygon class="cls-27" points="46.98 21.05 48.33 20.7 49.9 21.12 50.87 22 50.51 22.33 48.11 21.97 47.03 21.51 46.76 21.3 46.98 21.05 46.98 21.05"/><polygon class="cls-27" points="52.43 21.43 53.02 21.29 53.69 21.29 54.36 21.58 54.8 22.05 54.97 22.39 54.99 22.81 54.8 23.1 54.23 23.29 53.91 23.22 53.43 22.78 52.91 22.6 52.27 22.17 52.21 21.64 52.43 21.43 52.43 21.43"/><polygon class="cls-27" points="55.89 19.1 55.22 19.34 54.56 19.32 54.34 19.63 54.65 20.21 55.07 20.41 56.11 20.96 57.39 21.4 58.17 21.59 58.97 21.42 59.15 20.58 58.03 19.53 55.89 19.1 55.89 19.1"/><polygon class="cls-27" points="61.97 16.89 62.7 16.78 63.87 17.02 64.19 17.33 63.71 18.48 62.97 19.35 62.17 18.83 61.84 18.73 61.09 18.82 60.76 18.09 60.91 17.63 61.91 17.02 61.97 16.89 61.97 16.89"/><polygon class="cls-27" points="62.25 20.85 63.32 21.09 64.05 21 65.06 21.17 65.91 21.02 66.6 21.07 69.08 22.08 70.25 22.05 70.57 22.14 71.24 23.23 71.45 23.88 71.99 24.41 72.98 24.57 72.82 25.8 71.85 26.27 70.65 25.68 69.77 25.57 70.34 24.8 70.12 24.12 69.28 23.77 68.39 23.57 67.37 23.66 65.61 23.6 65.79 22.63 64.32 22.05 62.2 21.01 62.25 20.85 62.25 20.85"/><polygon class="cls-27" points="83.4 21.45 83.43 23.56 83.57 24.33 83.9 24.71 84.46 25.55 84.24 26.42 84.59 27.4 83.79 27.4 83.02 26.88 82.11 26.67 81.21 26.7 80.87 25.47 79.59 23.77 79.17 22.76 78.18 22.28 77.37 22.26 76.53 22.42 75.67 22.31 75.02 21.73 74.58 21.16 73.72 20.79 72.84 20.59 72.28 20.05 70.41 19.18 68.14 17.82 67.41 17.32 67.41 16.86 67.56 16.66 68.47 16.39 70.01 15.63 72.42 16.39 76.1 17.8 80.32 19.75 83.06 21.24 83.4 21.45"/><polygon class="cls-27" points="56.75 18.48 56.36 17.33 56.78 17.05 57.49 16.95 59.03 17.02 60.02 17.93 59.39 19.04 58.68 19.04 56.75 18.48 56.75 18.48"/><polygon class="cls-27" points="22.91 28.73 23.87 28.54 24.87 28.2 25.47 27.79 27.37 27.11 27.86 27.3 28.36 28.06 29.93 29.09 30.63 30.43 31.18 30.95 31.8 31.94 33.1 33.25 33.42 33.85 33.42 34.62 32.78 34.93 32.24 35.43 32.71 36.38 32.85 37.44 32.37 38.31 32.34 38.83 32.56 39.49 33.35 41.06 33.61 41.82 34.23 42.55 35.13 43.02 36.24 43.37 37.11 43.73 37.85 44.16 38.26 44.72 39.81 47.08 40.63 48.33 41.6 49.53 43.03 49.75 42.3 48.65 41.82 48.11 41.47 47.43 40.99 46.86 40.86 46.57 40.57 45.99 40.28 45.04 40.28 43.93 41.02 44.19 41.7 44.76 42.46 45.28 42.89 45.78 43.53 46.84 44.94 48.86 45.5 49.37 46.11 49.84 47.17 50.85 47.68 51.64 48.67 51.8 49.54 52.17 50.11 53.32 51.01 54.3 52.18 54.52 53.08 53.96 54.58 54.65 55.4 54.78 56.4 55.21 57.68 55.63 58.58 55.84 59.28 55.9 59.92 55.59 60.72 55.59 61.46 55.52 63.08 56.14 63.52 56.69 64.19 57.24 64.62 57.31 65.37 57.2 66.43 57.73 66.85 58.56 67.43 59.43 68.06 59.91 70.43 60.18 70.57 60.22 77.46 60.22 77.53 60.17 78.33 60.16 78.39 60.22 95.58 60.22 95.55 60.18 94.43 58.79 93.91 58.29 92.99 57.81 92.37 57.34 90.13 56.34 89.55 56.24 88.81 56.6 88.08 56.7 86.48 56.67 85.32 56.98 84.23 58.5 83.42 58.75 82.67 58.34 82.07 57.35 81.54 57.6 81.02 58.65 80.42 58.79 79.62 58.78 78.41 57.94 77.88 57.94 77.24 58.24 76.65 58.65 76.15 59.26 74.83 59.05 74.1 59.16 73.23 59.05 72.44 59.03 71.34 58.92 70.47 58.53 69.98 57.97 69.98 56.45 70.14 55.47 69.89 54.96 68.71 54.73 67.71 54.31 66.25 51.68 65.58 51.62 64.91 52.96 64.38 53.98 63.43 54.18 62.77 53.96 62.48 53.07 60.95 52.41 59.57 50.37 59.03 48.85 59.15 48.02 59.58 47.31 61.22 46.92 61.53 47.03 62.27 46.93 64.36 45.56 65.44 45.31 66.47 45.81 67.22 45.99 68.46 45.04 69.03 44.88 69.98 45.19 70.76 45.2 71.53 45.12 72.33 45.12 73.55 45.67 74.2 47.55 75 48.31 75.58 48.43 75.64 48.01 75.27 46.52 75.7 45.56 77.18 42.43 77.6 41.72 78.35 41.38 79.89 40.51 80.9 39.89 81.66 39.79 82.75 39.4 83.52 39.3 84.9 38.91 85.22 38.24 84.49 38.06 83.74 38.43 83.09 38.22 83.32 37.87 82.84 37.71 81.14 38.01 80.12 38.34 79.39 38.44 79.01 38.24 78.87 37.92 79.2 37.51 79.88 37.06 80.3 36.35 81.27 35.64 82.01 35.3 82.92 35.49 83.77 35.61 85.35 35.63 86.19 35.73 86.83 35.43 86.86 34.92 86.44 33.83 84.51 33.19 83.72 33.2 82.04 32.47 81.14 32.26 80.19 31.68 78.02 30.02 77.51 29.5 77.08 28.92 75.82 29.02 75.22 29.43 74.46 29.52 73.68 29.52 72.46 28.93 71 28.11 69.66 27.85 69.55 27.89 69.75 28.56 70.19 29.37 70.23 29.74 69.64 30.93 69.04 31.32 68.77 32.1 68.7 33.78 68.39 34.71 67.78 35.39 67.1 35.57 66.36 35.67 65.29 35.15 64.87 34.59 64.35 34.06 63.83 33.28 62.75 33.54 62.23 33.26 61.57 32.19 61.41 32.13 60.93 32.75 60.38 33.25 59.12 33.34 58.59 32.82 58.1 32.68 57.41 32.89 57.1 32.75 56.84 31.97 56.36 31.05 56.47 30.47 56.05 29.69 55.96 28.97 56.55 27.77 56.66 27.21 56.56 26.5 56.94 25.93 57.78 25.52 58.59 25.52 59.55 25.09 59.57 24.56 61.21 24.42 61.59 24.11 61.7 23.55 61.54 23.26 59.68 22.99 58.97 22.93 57.08 22.3 55.79 22.91 55.28 23.39 53.6 23.92 52.85 24.03 51.28 24.01 49.14 23.73 48.41 23.82 47.62 24.07 46.67 24.01 45.56 23.38 45.03 22.89 43.48 22.73 41.41 23.57 40.42 23.14 39.78 22.67 38.82 22.36 37.97 22.26 37.17 22.26 36.44 22.35 35.48 22.3 33.84 22.43 30.98 23.01 30.18 22.99 29.13 22.73 28.3 22.73 28.1 22.83 27.68 23.54 27.1 24.2 25.34 24.64 24.42 24.7 23.75 24.88 23.68 25.3 22.69 26 22.02 27.76 20.67 28.76 20.16 29.28 19.82 29.93 22.32 29.16 22.91 28.73"/></g></svg>