<svg xmlns="http://www.w3.org/2000/svg" viewBox="0 0 247.88 65.65"><defs><style>.cls-1{fill:#1b8892;}</style></defs><title>logo-dlg</title><g id="Layer_2" data-name="Layer 2"><path class="cls-1" d="M136.15,209.54V146.17h23.56c19.85,0,33.15,13.11,33.15,31.64,0,18.71-13.3,31.73-33.06,31.73Zm45.31-31.73c0-12.16-7.6-21.85-21.66-21.85H147.26v43.79h12.45C173.48,199.75,181.46,189.87,181.46,177.81Z" transform="translate(-136.15 -145.13)"/><path class="cls-1" d="M196.84,209.54V146.17H208v53.58h27.93v9.79Z" transform="translate(-136.15 -145.13)"/><path class="cls-1" d="M233.06,177.9c0-20,14.82-32.77,33.25-32.77,12.35,0,20.43,5.89,25.46,13.11l-9,5.22A20.46,20.46,0,0,0,266.31,155c-12.54,0-21.85,9.5-21.85,22.89,0,13.21,9.31,22.9,21.85,22.9a22.77,22.77,0,0,0,15-5.7v-9.79h-19v-9.78h30v23.65a34.2,34.2,0,0,1-26,11.59C247.88,210.77,233.06,197.76,233.06,177.9Z" transform="translate(-136.15 -145.13)"/><path d="M298.33,175.67v-9.34h3.47a4.67,4.67,0,1,1,0,9.34ZM305,171a3,3,0,0,0-3.19-3.22H300v6.46h1.83A3.08,3.08,0,0,0,305,171Z" transform="translate(-136.15 -145.13)"/><path d="M308.06,167.17a.91.91,0,0,1,1.82,0,.91.91,0,1,1-1.82,0Zm.17,8.5v-6.76h1.47v6.76Z" transform="translate(-136.15 -145.13)"/><path d="M311.52,177.41l.68-1.07a2.67,2.67,0,0,0,2.16.87,1.79,1.79,0,0,0,2-1.89v-.77a2.72,2.72,0,0,1-2.17,1.14c-1.72,0-3-1.25-3-3.48s1.25-3.47,3-3.47a2.65,2.65,0,0,1,2.17,1.1v-.93h1.47v6.41c0,2.44-1.82,3.1-3.47,3.1A3.89,3.89,0,0,1,311.52,177.41Zm4.84-3.94v-2.53a2.24,2.24,0,0,0-1.73-.9,2.18,2.18,0,0,0,0,4.33A2.24,2.24,0,0,0,316.36,173.47Z" transform="translate(-136.15 -145.13)"/><path d="M319.57,167.17a.91.91,0,0,1,1.82,0,.91.91,0,1,1-1.82,0Zm.16,8.5v-6.76h1.47v6.76Z" transform="translate(-136.15 -145.13)"/><path d="M323.42,174.09v-3.91h-1.13v-1.27h1.13v-1.85h1.47v1.85h1.37v1.27h-1.37v3.54c0,.47.22.82.64.82a.93.93,0,0,0,.65-.26l.35,1.13a2,2,0,0,1-1.38.43A1.55,1.55,0,0,1,323.42,174.09Z" transform="translate(-136.15 -145.13)"/><path d="M331.72,175.67v-.74a2.83,2.83,0,0,1-2.2.91,2.26,2.26,0,0,1-2.34-2.24,2.17,2.17,0,0,1,2.34-2.21,2.83,2.83,0,0,1,2.2.86v-1c0-.79-.66-1.27-1.58-1.27a2.72,2.72,0,0,0-2,.87l-.61-1a3.93,3.93,0,0,1,2.84-1.09c1.51,0,2.83.63,2.83,2.43v4.5Zm0-1.54v-1a2,2,0,0,0-1.61-.7,1.24,1.24,0,1,0,0,2.44A2,2,0,0,0,331.72,174.13Z" transform="translate(-136.15 -145.13)"/><path d="M335.09,175.67v-9.34h1.47v9.34Z" transform="translate(-136.15 -145.13)"/><path d="M342,175.67v-9.34h1.64v7.9h4.11v1.44Z" transform="translate(-136.15 -145.13)"/><path d="M349,167.17a.91.91,0,1,1,.91.91A.91.91,0,0,1,349,167.17Zm.17,8.5v-6.76h1.47v6.76Z" transform="translate(-136.15 -145.13)"/><path d="M352.54,175.67v-9.34H354v3.51a2.68,2.68,0,0,1,2.17-1.1c1.75,0,3,1.36,3,3.54s-1.28,3.56-3,3.56a2.73,2.73,0,0,1-2.17-1.09v.92Zm3.22-1.13c1.16,0,1.9-.94,1.9-2.26a2,2,0,0,0-1.9-2.24A2.22,2.22,0,0,0,354,171v2.69A2.22,2.22,0,0,0,355.76,174.54Z" transform="translate(-136.15 -145.13)"/><path d="M360.67,175.67v-6.76h1.47v1a2.92,2.92,0,0,1,2.2-1.15v1.45a2.78,2.78,0,0,0-.45,0,2.3,2.3,0,0,0-1.75.91v4.61Z" transform="translate(-136.15 -145.13)"/><path d="M369.67,175.67v-.74a2.83,2.83,0,0,1-2.2.91,2.26,2.26,0,0,1-2.34-2.24,2.17,2.17,0,0,1,2.34-2.21,2.83,2.83,0,0,1,2.2.86v-1c0-.79-.66-1.27-1.58-1.27a2.69,2.69,0,0,0-2,.87l-.62-1a3.94,3.94,0,0,1,2.84-1.09c1.52,0,2.83.63,2.83,2.43v4.5Zm0-1.54v-1a2,2,0,0,0-1.61-.7,1.24,1.24,0,1,0,0,2.44A2,2,0,0,0,369.67,174.13Z" transform="translate(-136.15 -145.13)"/><path d="M373,175.67v-6.76h1.47v1a2.94,2.94,0,0,1,2.2-1.15v1.45a2.55,2.55,0,0,0-.44,0,2.34,2.34,0,0,0-1.76.91v4.61Z" transform="translate(-136.15 -145.13)"/><path d="M377.83,177a1.55,1.55,0,0,0,.56.11.92.92,0,0,0,1-.58l.34-.77-2.79-6.85h1.58l2,5.07,2-5.07H384l-3.26,8a2.25,2.25,0,0,1-2.31,1.53,3.85,3.85,0,0,1-.83-.1Z" transform="translate(-136.15 -145.13)"/><path d="M297.88,185.28a3.48,3.48,0,1,1,3.47,3.56A3.37,3.37,0,0,1,297.88,185.28Zm5.42,0a2,2,0,1,0-1.95,2.26A2,2,0,0,0,303.3,185.28Z" transform="translate(-136.15 -145.13)"/><path d="M306.69,188.67v-5.49h-1.12v-1.27h1.12v-.38a2.08,2.08,0,0,1,2.13-2.34,2.15,2.15,0,0,1,1.62.59l-.57.91a1.08,1.08,0,0,0-.78-.3c-.58,0-.93.38-.93,1.14v.38h1.37v1.27h-1.37v5.49Z" transform="translate(-136.15 -145.13)"/><path d="M313.9,184a4.7,4.7,0,0,1,4.9-4.84,4.35,4.35,0,0,1,3.75,1.94l-1.33.77a3,3,0,0,0-2.42-1.25,3.38,3.38,0,0,0,0,6.75,3.33,3.33,0,0,0,2.21-.84V185.1h-2.8v-1.44h4.43v3.48a5,5,0,0,1-3.84,1.71A4.71,4.71,0,0,1,313.9,184Z" transform="translate(-136.15 -145.13)"/><path d="M323.89,185.28a3.42,3.42,0,0,1,3.43-3.54c2,0,3.32,1.54,3.32,3.67v.36h-5.21a2,2,0,0,0,2.15,1.86,2.84,2.84,0,0,0,1.93-.75l.67,1a4,4,0,0,1-2.74,1A3.4,3.4,0,0,1,323.89,185.28Zm3.42-2.34a1.85,1.85,0,0,0-1.89,1.78h3.81A1.82,1.82,0,0,0,327.31,182.94Z" transform="translate(-136.15 -145.13)"/><path d="M331.69,185.28a3.48,3.48,0,1,1,3.47,3.56A3.37,3.37,0,0,1,331.69,185.28Zm5.42,0a2,2,0,1,0-1.95,2.26A2,2,0,0,0,337.11,185.28Z" transform="translate(-136.15 -145.13)"/><path d="M340.13,188.67v-6.76h1.47v1a2.92,2.92,0,0,1,2.2-1.15v1.45a2.58,2.58,0,0,0-.45,0,2.32,2.32,0,0,0-1.75.91v4.61Z" transform="translate(-136.15 -145.13)"/><path d="M344.91,190.41l.68-1.07a2.67,2.67,0,0,0,2.16.87,1.79,1.79,0,0,0,2-1.89v-.77a2.72,2.72,0,0,1-2.17,1.14c-1.72,0-3-1.25-3-3.48s1.25-3.47,3-3.47a2.65,2.65,0,0,1,2.17,1.1v-.93h1.47v6.41c0,2.44-1.82,3.1-3.47,3.1A3.89,3.89,0,0,1,344.91,190.41Zm4.84-3.94v-2.53A2.24,2.24,0,0,0,348,183a2.18,2.18,0,0,0,0,4.33A2.24,2.24,0,0,0,349.75,186.47Z" transform="translate(-136.15 -145.13)"/><path d="M353,180.17a.91.91,0,1,1,1.82,0,.91.91,0,1,1-1.82,0Zm.16,8.5v-6.76h1.47v6.76Z" transform="translate(-136.15 -145.13)"/><path d="M360.64,188.67v-.74a2.83,2.83,0,0,1-2.2.91,2.25,2.25,0,0,1-2.33-2.24,2.16,2.16,0,0,1,2.33-2.21,2.83,2.83,0,0,1,2.2.86v-1c0-.79-.65-1.27-1.58-1.27a2.69,2.69,0,0,0-2,.87l-.62-1a4,4,0,0,1,2.85-1.09c1.51,0,2.82.63,2.82,2.43v4.5Zm0-1.54v-1a2,2,0,0,0-1.61-.7,1.24,1.24,0,1,0,0,2.44A2,2,0,0,0,360.64,187.13Z" transform="translate(-136.15 -145.13)"/></g></svg>