<svg xmlns="http://www.w3.org/2000/svg" width="198" height="46.05" viewBox="0 0 198 46.05"><defs><style>.cls-1{fill:#25408f;}.cls-2{fill:#23317d;}.cls-3{fill:#27357f;}.cls-4{fill:#2b3981;}.cls-5{fill:#2f3d83;}.cls-6{fill:#334186;}.cls-7{fill:#374588;}.cls-8{fill:#3b498a;}.cls-9{fill:#3f4d8d;}.cls-10{fill:#44518f;}.cls-11{fill:#485591;}.cls-12{fill:#4d5a94;}.cls-13{fill:#515e97;}.cls-14{fill:#566399;}.cls-15{fill:#5a689c;}.cls-16{fill:#5f6d9f;}.cls-17{fill:#6473a2;}.cls-18{fill:#6978a5;}.cls-19{fill:#6d7ea8;}.cls-20{fill:#7284ab;}.cls-21{fill:#788baf;}.cls-22{fill:#7d91b2;}.cls-23{fill:#8398b5;}.cls-24{fill:#899fb9;}.cls-25{fill:none;stroke:#000;stroke-width:0.63px;}</style></defs><title>logo-galileo</title><g id="Layer_1" data-name="Layer 1"><path class="cls-1" d="M334.83,484.81" transform="translate(90.21 -378.98)"/><path class="cls-2" d="M334.83,484.81" transform="translate(90.21 -378.98)"/><path class="cls-3" d="M334.83,484.81" transform="translate(90.21 -378.98)"/><path class="cls-4" d="M334.83,484.81" transform="translate(90.21 -378.98)"/><path class="cls-5" d="M334.83,484.81" transform="translate(90.21 -378.98)"/><path class="cls-6" d="M334.83,484.81" transform="translate(90.21 -378.98)"/><path class="cls-7" d="M334.83,484.81" transform="translate(90.21 -378.98)"/><path class="cls-8" d="M334.83,484.81" transform="translate(90.21 -378.98)"/><path class="cls-9" d="M334.83,484.81" transform="translate(90.21 -378.98)"/><path class="cls-10" d="M334.83,484.81" transform="translate(90.21 -378.98)"/><path class="cls-11" d="M334.83,484.81" transform="translate(90.21 -378.98)"/><path class="cls-12" d="M334.83,484.81" transform="translate(90.21 -378.98)"/><path class="cls-13" d="M334.83,484.81" transform="translate(90.21 -378.98)"/><path class="cls-14" d="M334.83,484.81" transform="translate(90.21 -378.98)"/><path class="cls-15" d="M334.83,484.81" transform="translate(90.21 -378.98)"/><path class="cls-16" d="M334.83,484.81" transform="translate(90.21 -378.98)"/><path class="cls-17" d="M334.83,484.81" transform="translate(90.21 -378.98)"/><path class="cls-18" d="M334.83,484.81" transform="translate(90.21 -378.98)"/><path class="cls-19" d="M334.83,484.81" transform="translate(90.21 -378.98)"/><path class="cls-20" d="M334.83,484.81" transform="translate(90.21 -378.98)"/><path class="cls-21" d="M334.83,484.81" transform="translate(90.21 -378.98)"/><path class="cls-22" d="M334.83,484.81" transform="translate(90.21 -378.98)"/><path class="cls-23" d="M334.83,484.81" transform="translate(90.21 -378.98)"/><path class="cls-24" d="M334.83,484.81" transform="translate(90.21 -378.98)"/></g><g id="Layer_2" data-name="Layer 2"><path d="M106.73,409.28a1.35,1.35,0,0,1,.56.55,1.46,1.46,0,0,1,.2.75,1.55,1.55,0,0,1-.19.75,1.41,1.41,0,0,1-.56.55,1.52,1.52,0,0,1-.74.2,1.56,1.56,0,0,1-.75-.2,1.33,1.33,0,0,1-.55-.55,1.46,1.46,0,0,1-.2-.75,1.56,1.56,0,0,1,.2-.75,1.41,1.41,0,0,1,.56-.55,1.52,1.52,0,0,1,1.47,0Zm-1.61-.26a1.66,1.66,0,0,0-.67.67,1.74,1.74,0,0,0,0,1.78,1.66,1.66,0,0,0,.67.67,1.76,1.76,0,0,0,.89.23,1.79,1.79,0,0,0,.89-.23,1.7,1.7,0,0,0,.66-.67,1.77,1.77,0,0,0,0-1.78,1.73,1.73,0,0,0-.67-.67,1.89,1.89,0,0,0-.88-.23A1.86,1.86,0,0,0,105.12,409Zm.41,2.56v-.83h.18a.37.37,0,0,1,.25.07,1.52,1.52,0,0,1,.32.45l.17.31h.38l-.23-.38a2.17,2.17,0,0,0-.29-.39.49.49,0,0,0-.16-.1.6.6,0,0,0,.4-.18.49.49,0,0,0,.15-.36.52.52,0,0,0-.09-.29.47.47,0,0,0-.25-.18,1.48,1.48,0,0,0-.49-.05h-.66v1.93Zm0-1.67h.35a1.12,1.12,0,0,1,.32,0,.45.45,0,0,1,.13.1.3.3,0,0,1,0,.16.3.3,0,0,1-.1.21.65.65,0,0,1-.37.08h-.38Z" transform="translate(90.21 -378.98)"/><path class="cls-1" d="M24.48,396.07" transform="translate(90.21 -378.98)"/><path class="cls-2" d="M24.48,396.07" transform="translate(90.21 -378.98)"/><path class="cls-3" d="M24.48,396.07" transform="translate(90.21 -378.98)"/><path class="cls-4" d="M24.48,396.07" transform="translate(90.21 -378.98)"/><path class="cls-5" d="M24.48,396.07" transform="translate(90.21 -378.98)"/><path class="cls-6" d="M24.48,396.07" transform="translate(90.21 -378.98)"/><path class="cls-7" d="M24.48,396.07" transform="translate(90.21 -378.98)"/><path class="cls-8" d="M24.48,396.07" transform="translate(90.21 -378.98)"/><path class="cls-9" d="M24.48,396.07" transform="translate(90.21 -378.98)"/><path class="cls-10" d="M24.48,396.07" transform="translate(90.21 -378.98)"/><path class="cls-11" d="M24.48,396.07" transform="translate(90.21 -378.98)"/><path class="cls-12" d="M24.48,396.07" transform="translate(90.21 -378.98)"/><path class="cls-13" d="M24.48,396.07" transform="translate(90.21 -378.98)"/><path class="cls-14" d="M24.48,396.07" transform="translate(90.21 -378.98)"/><path class="cls-15" d="M24.48,396.07" transform="translate(90.21 -378.98)"/><path class="cls-16" d="M24.48,396.07" transform="translate(90.21 -378.98)"/><path class="cls-17" d="M24.48,396.07" transform="translate(90.21 -378.98)"/><path class="cls-18" d="M24.48,396.07" transform="translate(90.21 -378.98)"/><path class="cls-19" d="M24.48,396.07" transform="translate(90.21 -378.98)"/><path class="cls-20" d="M24.48,396.07" transform="translate(90.21 -378.98)"/><path class="cls-21" d="M24.48,396.07" transform="translate(90.21 -378.98)"/><path class="cls-22" d="M24.48,396.07" transform="translate(90.21 -378.98)"/><path class="cls-23" d="M24.48,396.07" transform="translate(90.21 -378.98)"/><path class="cls-24" d="M24.48,396.07" transform="translate(90.21 -378.98)"/><line class="cls-25" x1="0.02" y1="35.43" x2="197.79" y2="35.43"/><path class="cls-1" d="M21.44,392" transform="translate(90.21 -378.98)"/><path class="cls-2" d="M21.44,392" transform="translate(90.21 -378.98)"/><path class="cls-3" d="M21.44,392" transform="translate(90.21 -378.98)"/><path class="cls-4" d="M21.44,392" transform="translate(90.21 -378.98)"/><path class="cls-5" d="M21.44,392" transform="translate(90.21 -378.98)"/><path class="cls-6" d="M21.44,392" transform="translate(90.21 -378.98)"/><path class="cls-7" d="M21.44,392" transform="translate(90.21 -378.98)"/><path class="cls-8" d="M21.44,392" transform="translate(90.21 -378.98)"/><path class="cls-9" d="M21.44,392" transform="translate(90.21 -378.98)"/><path class="cls-10" d="M21.44,392" transform="translate(90.21 -378.98)"/><path class="cls-11" d="M21.44,392" transform="translate(90.21 -378.98)"/><path class="cls-12" d="M21.44,392" transform="translate(90.21 -378.98)"/><path class="cls-13" d="M21.44,392" transform="translate(90.21 -378.98)"/><path class="cls-14" d="M21.44,392" transform="translate(90.21 -378.98)"/><path class="cls-15" d="M21.44,392" transform="translate(90.21 -378.98)"/><path class="cls-16" d="M21.44,392" transform="translate(90.21 -378.98)"/><path class="cls-17" d="M21.44,392" transform="translate(90.21 -378.98)"/><path class="cls-18" d="M21.44,392" transform="translate(90.21 -378.98)"/><path class="cls-19" d="M21.44,392" transform="translate(90.21 -378.98)"/><path class="cls-20" d="M21.44,392" transform="translate(90.21 -378.98)"/><path class="cls-21" d="M21.44,392" transform="translate(90.21 -378.98)"/><path class="cls-22" d="M21.44,392" transform="translate(90.21 -378.98)"/><path class="cls-23" d="M21.44,392" transform="translate(90.21 -378.98)"/><path class="cls-24" d="M21.44,392" transform="translate(90.21 -378.98)"/><path d="M-86.64,418.28l1,2.66H-87.7Zm-2,5,.67-1.7h2.61l.67,1.7h.94l-2.4-6.14H-87l-2.44,6.14Z" transform="translate(90.21 -378.98)"/><path d="M-82.82,423.29v-4.5H-82v.84a1.93,1.93,0,0,1,1.59-.94,1.21,1.21,0,0,1,.94.37,1.42,1.42,0,0,1,.35,1v3.23h-.82v-3a1.27,1.27,0,0,0-.15-.71.54.54,0,0,0-.49-.22,1.84,1.84,0,0,0-1.42,1v2.92Z" transform="translate(90.21 -378.98)"/><path d="M-74.89,423.29v-6.14H-74v6.14Z" transform="translate(90.21 -378.98)"/><path d="M-72.42,423.29v-4.5h.82v.84a1.9,1.9,0,0,1,1.59-.94,1.2,1.2,0,0,1,.93.37,1.42,1.42,0,0,1,.35,1v3.23h-.81v-3a1.27,1.27,0,0,0-.15-.71.54.54,0,0,0-.49-.22,1.82,1.82,0,0,0-1.42,1v2.92Z" transform="translate(90.21 -378.98)"/><path d="M-67.15,423.29v-4.5h.82v4.5Zm0-5.33v-.81h.82V418Z" transform="translate(90.21 -378.98)"/><path d="M-62.69,423.29a2.45,2.45,0,0,1-.65.1,1.32,1.32,0,0,1-1-.35,1.37,1.37,0,0,1-.35-1V419.4h-.56v-.61h.56V418l.82-.07v.9h1.17v.61h-1.17v2.49c0,.59.25.89.76.89a1.55,1.55,0,0,0,.39-.06Z" transform="translate(90.21 -378.98)"/><path d="M-61.51,423.29v-4.5h.81v4.5Zm0-5.33v-.81h.81V418Z" transform="translate(90.21 -378.98)"/><path d="M-57.92,422.73a.69.69,0,0,1-.5-.2.67.67,0,0,1-.21-.5.76.76,0,0,1,.42-.67,2.06,2.06,0,0,1,1.1-.25h.26v1.16A1.71,1.71,0,0,1-57.92,422.73Zm1.92.66a1.39,1.39,0,0,0,.61-.13l-.06-.45h-.16c-.28,0-.43-.23-.43-.7v-2a1.4,1.4,0,0,0-.35-1.06,1.55,1.55,0,0,0-1.11-.34,4.21,4.21,0,0,0-1.56.33v.67a3,3,0,0,1,1.39-.38c.55,0,.82.26.82.78v.54H-57a3.39,3.39,0,0,0-1.79.4,1.27,1.27,0,0,0-.62,1.13,1.17,1.17,0,0,0,.37.88,1.28,1.28,0,0,0,.93.35,2.14,2.14,0,0,0,1.42-.67C-56.63,423.17-56.38,423.39-56,423.39Z" transform="translate(90.21 -378.98)"/><path d="M-52.36,423.29a2.52,2.52,0,0,1-.66.1,1.32,1.32,0,0,1-1-.35,1.37,1.37,0,0,1-.35-1V419.4h-.56v-.61h.56V418l.82-.07v.9h1.17v.61h-1.17v2.49c0,.59.25.89.76.89a1.68,1.68,0,0,0,.4-.06Z" transform="translate(90.21 -378.98)"/><path d="M-51.19,423.29v-4.5h.81v4.5Zm0-5.33v-.81h.81V418Z" transform="translate(90.21 -378.98)"/><path d="M-47.8,423.29l-1.68-4.5h.82l1.31,3.48,1.37-3.48h.78l-1.78,4.5Z" transform="translate(90.21 -378.98)"/><path d="M-42.77,419.31c.63,0,.94.41.94,1.25h-2C-43.75,419.72-43.4,419.31-42.77,419.31Zm1.74,3.18a3.71,3.71,0,0,1-1.26.29c-.93,0-1.45-.54-1.57-1.61H-41v-.24a2.67,2.67,0,0,0-.45-1.66,1.51,1.51,0,0,0-1.26-.58,1.79,1.79,0,0,0-1.42.65,2.52,2.52,0,0,0-.55,1.68,2.41,2.41,0,0,0,.62,1.71,2.15,2.15,0,0,0,1.63.66,5.19,5.19,0,0,0,1.41-.24Z" transform="translate(90.21 -378.98)"/><path d="M-36.07,422.32A2.14,2.14,0,0,1-36.4,421a2.14,2.14,0,0,1,.33-1.28,1.1,1.1,0,0,1,.94-.45,1.09,1.09,0,0,1,.94.45,2.07,2.07,0,0,1,.34,1.28,2.07,2.07,0,0,1-.34,1.28,1.1,1.1,0,0,1-.94.46A1.11,1.11,0,0,1-36.07,422.32Zm2.51.44A2.44,2.44,0,0,0-33,421a2.44,2.44,0,0,0-.58-1.72,2,2,0,0,0-1.57-.63,2,2,0,0,0-1.56.63,2.44,2.44,0,0,0-.58,1.72,2.44,2.44,0,0,0,.58,1.72,2,2,0,0,0,1.56.63A2,2,0,0,0-33.56,422.76Z" transform="translate(90.21 -378.98)"/><path d="M-31.55,423.29V419.4h-.64v-.61h.64v-.54q0-1.62,1.47-1.62a3.82,3.82,0,0,1,.93.14v.65a3.37,3.37,0,0,0-.89-.17.65.65,0,0,0-.55.19,1.24,1.24,0,0,0-.15.72v.63h1.13v.61h-1.13v3.89Z" transform="translate(90.21 -378.98)"/><path d="M-23.89,423.29a2.46,2.46,0,0,1-.66.1,1.3,1.3,0,0,1-1-.35,1.33,1.33,0,0,1-.35-1V419.4h-.57v-.61h.57V418l.81-.07v.9h1.18v.61H-25v2.49c0,.59.26.89.77.89a1.69,1.69,0,0,0,.39-.06Z" transform="translate(90.21 -378.98)"/><path d="M-22.72,423.29v-6.55h.82v2.89a1.9,1.9,0,0,1,1.58-.94,1.21,1.21,0,0,1,.94.37,1.42,1.42,0,0,1,.35,1v3.23h-.82v-3a1.38,1.38,0,0,0-.14-.71.55.55,0,0,0-.49-.22,1.81,1.81,0,0,0-1.42,1v2.92Z" transform="translate(90.21 -378.98)"/><path d="M-15.88,419.31c.63,0,.94.41.94,1.25h-2C-16.85,419.72-16.5,419.31-15.88,419.31Zm1.74,3.18a3.66,3.66,0,0,1-1.25.29c-.93,0-1.46-.54-1.57-1.61h2.84v-.24a2.73,2.73,0,0,0-.44-1.66,1.53,1.53,0,0,0-1.27-.58,1.8,1.8,0,0,0-1.42.65A2.57,2.57,0,0,0-17.8,421a2.37,2.37,0,0,0,.63,1.71,2.13,2.13,0,0,0,1.62.66,5.19,5.19,0,0,0,1.41-.24Z" transform="translate(90.21 -378.98)"/><path d="M-10.11,417.15h.88V421a2.09,2.09,0,0,0,.34,1.34,1.3,1.3,0,0,0,1.09.43,1.23,1.23,0,0,0,1-.4,2.26,2.26,0,0,0,.3-1.34v-3.9h.77V421a3.58,3.58,0,0,1-.16,1.23,1.7,1.7,0,0,1-.56.76,2.26,2.26,0,0,1-1.42.41,2.27,2.27,0,0,1-1.72-.59,2.64,2.64,0,0,1-.55-1.84Z" transform="translate(90.21 -378.98)"/><path d="M-4.14,423.29v-4.5h.81v.84a1.9,1.9,0,0,1,1.59-.94,1.24,1.24,0,0,1,.94.37,1.41,1.41,0,0,1,.34,1v3.23h-.81v-3a1.27,1.27,0,0,0-.15-.71.54.54,0,0,0-.49-.22,1.82,1.82,0,0,0-1.42,1v2.92Z" transform="translate(90.21 -378.98)"/><path d="M1.13,423.29v-4.5h.81v4.5Zm0-5.33v-.81h.81V418Z" transform="translate(90.21 -378.98)"/><path d="M4.52,423.29l-1.68-4.5h.82L5,422.27l1.38-3.48h.78l-1.78,4.5Z" transform="translate(90.21 -378.98)"/><path d="M9.55,419.31c.63,0,.94.41.94,1.25h-2C8.57,419.72,8.92,419.31,9.55,419.31Zm1.73,3.18a3.62,3.62,0,0,1-1.25.29c-.93,0-1.45-.54-1.57-1.61H11.3v-.24a2.67,2.67,0,0,0-.45-1.66,1.52,1.52,0,0,0-1.26-.58,1.79,1.79,0,0,0-1.42.65A2.52,2.52,0,0,0,7.63,421a2.37,2.37,0,0,0,.62,1.71,2.15,2.15,0,0,0,1.63.66,5.06,5.06,0,0,0,1.4-.24Z" transform="translate(90.21 -378.98)"/><path d="M12.71,423.29v-4.5h.81v.84a1.55,1.55,0,0,1,1.42-.94l.26,0v.77a1.13,1.13,0,0,0-.37-.07,1.53,1.53,0,0,0-1.31.92v3Z" transform="translate(90.21 -378.98)"/><path d="M16,423.13v-.75a3.34,3.34,0,0,0,1.39.4,1,1,0,0,0,.59-.19.62.62,0,0,0,.23-.48c0-.28-.22-.51-.65-.69l-.47-.2c-.71-.3-1.06-.72-1.06-1.27a1.11,1.11,0,0,1,.42-.92,1.71,1.71,0,0,1,1.14-.34,5.09,5.09,0,0,1,.93.1l.17,0v.69a3.9,3.9,0,0,0-1.09-.2,1,1,0,0,0-.57.15.5.5,0,0,0-.21.42c0,.24.2.45.59.62l.4.16a2.72,2.72,0,0,1,.94.6,1.16,1.16,0,0,1,.28.78,1.2,1.2,0,0,1-.47,1,1.8,1.8,0,0,1-1.2.38A4.7,4.7,0,0,1,16,423.13Z" transform="translate(90.21 -378.98)"/><path d="M20.51,423.29v-4.5h.82v4.5Zm0-5.33v-.81h.82V418Z" transform="translate(90.21 -378.98)"/><path d="M25,423.29a2.45,2.45,0,0,1-.65.1,1.31,1.31,0,0,1-1-.35,1.37,1.37,0,0,1-.35-1V419.4h-.56v-.61H23V418l.82-.07v.9H25v.61H23.82v2.49c0,.59.25.89.76.89a1.55,1.55,0,0,0,.39-.06Z" transform="translate(90.21 -378.98)"/><path d="M26.4,424.93l.74-1.65-1.74-4.49h.87l1.29,3.39,1.38-3.39h.78l-2.46,6.14Z" transform="translate(90.21 -378.98)"/><path d="M32.87,423.17v-.86a4.29,4.29,0,0,0,1.71.48,1.21,1.21,0,0,0,.82-.28.87.87,0,0,0,.31-.7.9.9,0,0,0-.2-.61,2.78,2.78,0,0,0-.76-.57l-.42-.24a3.84,3.84,0,0,1-1.1-.85,1.43,1.43,0,0,1-.32-.92,1.52,1.52,0,0,1,.51-1.17,1.94,1.94,0,0,1,1.31-.46,5.2,5.2,0,0,1,1.5.24v.8a4.33,4.33,0,0,0-1.45-.38,1.12,1.12,0,0,0-.74.24A.76.76,0,0,0,34,419a3.25,3.25,0,0,0,.78.57l.44.25a3.77,3.77,0,0,1,1.11.85,1.53,1.53,0,0,1,.32,1A1.58,1.58,0,0,1,36,423a2.38,2.38,0,0,1-1.57.49A6.11,6.11,0,0,1,32.87,423.17Z" transform="translate(90.21 -378.98)"/><path d="M38.1,424.93l.74-1.65-1.75-4.49H38l1.29,3.39,1.38-3.39h.78L39,424.93Z" transform="translate(90.21 -378.98)"/><path d="M42.12,423.13v-.75a3.31,3.31,0,0,0,1.39.4,1,1,0,0,0,.59-.19.62.62,0,0,0,.23-.48c0-.28-.22-.51-.65-.69l-.48-.2c-.7-.3-1.05-.72-1.05-1.27a1.13,1.13,0,0,1,.41-.92,1.74,1.74,0,0,1,1.14-.34,5.09,5.09,0,0,1,.93.1l.17,0v.69a3.78,3.78,0,0,0-1.08-.2,1,1,0,0,0-.57.15.51.51,0,0,0-.22.42c0,.24.2.45.6.62l.39.16a2.68,2.68,0,0,1,.95.6,1.16,1.16,0,0,1,.27.78,1.19,1.19,0,0,1-.46,1,1.84,1.84,0,0,1-1.2.38A4.64,4.64,0,0,1,42.12,423.13Z" transform="translate(90.21 -378.98)"/><path d="M48.61,423.29a2.4,2.4,0,0,1-.65.1,1.32,1.32,0,0,1-1-.35,1.37,1.37,0,0,1-.35-1V419.4h-.56v-.61h.56V418l.82-.07v.9h1.17v.61H47.46v2.49c0,.59.25.89.76.89a1.55,1.55,0,0,0,.39-.06Z" transform="translate(90.21 -378.98)"/><path d="M51.36,419.31c.63,0,.94.41.94,1.25h-2C50.38,419.72,50.73,419.31,51.36,419.31Zm1.73,3.18a3.62,3.62,0,0,1-1.25.29c-.93,0-1.45-.54-1.57-1.61h2.84v-.24a2.67,2.67,0,0,0-.45-1.66,1.52,1.52,0,0,0-1.26-.58,1.79,1.79,0,0,0-1.42.65,2.52,2.52,0,0,0-.55,1.68,2.37,2.37,0,0,0,.62,1.71,2.15,2.15,0,0,0,1.63.66,5.06,5.06,0,0,0,1.4-.24Z" transform="translate(90.21 -378.98)"/><path d="M54.52,423.29v-4.5h.81v.84a1.79,1.79,0,0,1,1.53-.94,1.24,1.24,0,0,1,1.23.94,1.74,1.74,0,0,1,1.51-.94,1.22,1.22,0,0,1,.92.35,1.37,1.37,0,0,1,.33,1v3.27H60v-3.13c0-.51-.21-.77-.62-.77s-.86.3-1.33.9v3h-.81v-3.14c0-.52-.21-.78-.62-.78s-.86.3-1.33.91v3Z" transform="translate(90.21 -378.98)"/><path d="M66,422.32a2.65,2.65,0,0,1,0-2.56,1.09,1.09,0,0,1,.94-.45,1.1,1.1,0,0,1,.94.45,2.58,2.58,0,0,1,0,2.56,1.11,1.11,0,0,1-.94.46A1.1,1.1,0,0,1,66,422.32Zm2.51.44a2.84,2.84,0,0,0,0-3.44,2.27,2.27,0,0,0-3.14,0,2.84,2.84,0,0,0,0,3.44,2.27,2.27,0,0,0,3.14,0Z" transform="translate(90.21 -378.98)"/><path d="M70.51,423.29V419.4h-.64v-.61h.64v-.54c0-1.08.49-1.62,1.46-1.62a3.69,3.69,0,0,1,.93.14v.65a3.25,3.25,0,0,0-.88-.17.65.65,0,0,0-.55.19,1.24,1.24,0,0,0-.15.72v.63h1.13v.61H71.32v3.89Z" transform="translate(90.21 -378.98)"/><path d="M80.76,423.12a7.36,7.36,0,0,1-2,.32,3,3,0,0,1-2.25-.83,3.37,3.37,0,0,1-.78-2.39,3.32,3.32,0,0,1,.8-2.38,2.92,2.92,0,0,1,2.23-.85,7.58,7.58,0,0,1,1.94.28v.8a6.77,6.77,0,0,0-2-.42,1.88,1.88,0,0,0-1.54.67,2.91,2.91,0,0,0-.55,1.9,2.8,2.8,0,0,0,.59,1.89,2.07,2.07,0,0,0,1.65.68,3.37,3.37,0,0,0,.94-.16v-2h.87Z" transform="translate(90.21 -378.98)"/><path d="M83.87,419.31c.63,0,.94.41.94,1.25h-2C82.89,419.72,83.24,419.31,83.87,419.31Zm1.74,3.18a3.71,3.71,0,0,1-1.26.29c-.92,0-1.45-.54-1.57-1.61h2.85v-.24a2.67,2.67,0,0,0-.45-1.66,1.51,1.51,0,0,0-1.26-.58,1.79,1.79,0,0,0-1.42.65A2.52,2.52,0,0,0,82,421a2.41,2.41,0,0,0,.62,1.71,2.15,2.15,0,0,0,1.63.66,5.19,5.19,0,0,0,1.41-.24Z" transform="translate(90.21 -378.98)"/><path d="M87.88,422.32a2.65,2.65,0,0,1,0-2.56,1.22,1.22,0,0,1,1.89,0,2.65,2.65,0,0,1,0,2.56,1.2,1.2,0,0,1-1.89,0Zm2.52.44a2.88,2.88,0,0,0,0-3.44,2.27,2.27,0,0,0-3.14,0,2.84,2.84,0,0,0,0,3.44,2.27,2.27,0,0,0,3.14,0Z" transform="translate(90.21 -378.98)"/><path d="M92.25,423.29v-4.5h.81v.84a1.55,1.55,0,0,1,1.42-.94l.26,0v.77a1.13,1.13,0,0,0-.37-.07,1.53,1.53,0,0,0-1.31.92v3Z" transform="translate(90.21 -378.98)"/><path d="M97.29,422.46c-.7,0-1.05-.48-1.05-1.46a2.13,2.13,0,0,1,.32-1.24,1,1,0,0,1,.89-.45,1.61,1.61,0,0,1,1.17.55v1.86A1.73,1.73,0,0,1,97.29,422.46ZM97.24,425a2.22,2.22,0,0,0,1.68-.57,1.67,1.67,0,0,0,.41-.83,8.26,8.26,0,0,0,.11-1.56v-3.27h-.82v.51a1.69,1.69,0,0,0-1.3-.61,1.75,1.75,0,0,0-1.4.65,2.47,2.47,0,0,0-.55,1.67,2.43,2.43,0,0,0,.48,1.59,1.58,1.58,0,0,0,1.3.58,1.63,1.63,0,0,0,.87-.24,1.64,1.64,0,0,0,.6-.7V423c0,1-.46,1.46-1.38,1.46a3.29,3.29,0,0,1-1.4-.33l-.1.71A5,5,0,0,0,97.24,425Z" transform="translate(90.21 -378.98)"/><path d="M101,423.29v-4.5h.81v4.5Zm0-5.33v-.81h.81V418Z" transform="translate(90.21 -378.98)"/><path d="M104.62,422.73a.73.73,0,0,1-.51-.2.67.67,0,0,1-.21-.5.76.76,0,0,1,.42-.67,2.08,2.08,0,0,1,1.1-.25h.26v1.16A1.71,1.71,0,0,1,104.62,422.73Zm1.91.66a1.36,1.36,0,0,0,.61-.13l-.06-.45h-.15c-.29,0-.43-.23-.43-.7v-2a1.4,1.4,0,0,0-.36-1.06,1.55,1.55,0,0,0-1.11-.34,4.21,4.21,0,0,0-1.56.33v.67a3.07,3.07,0,0,1,1.39-.38c.55,0,.82.26.82.78v.54h-.19a3.35,3.35,0,0,0-1.78.4,1.25,1.25,0,0,0-.63,1.13,1.17,1.17,0,0,0,.37.88,1.29,1.29,0,0,0,.94.35,2.14,2.14,0,0,0,1.41-.67C105.91,423.17,106.15,423.39,106.53,423.39Z" transform="translate(90.21 -378.98)"/><path d="M-17.12,385.81a7.71,7.71,0,0,1-2.09.34,3.1,3.1,0,0,1-2.4-.89,3.57,3.57,0,0,1-.84-2.56,3.55,3.55,0,0,1,.85-2.54,3.1,3.1,0,0,1,2.39-.91,7.86,7.86,0,0,1,2.08.3v.86a7.38,7.38,0,0,0-2.08-.46,2,2,0,0,0-1.66.72,3.18,3.18,0,0,0-.59,2,3,3,0,0,0,.63,2,2.23,2.23,0,0,0,1.77.72,3.47,3.47,0,0,0,1-.16v-2.14h.93Z" transform="translate(90.21 -378.98)"/><path d="M-13.79,381.72c.67,0,1,.45,1,1.34h-2.14C-14.84,382.17-14.47,381.72-13.79,381.72Zm1.86,3.41a3.77,3.77,0,0,1-1.34.31c-1,0-1.56-.57-1.69-1.72h3.05v-.27a2.81,2.81,0,0,0-.48-1.76,1.57,1.57,0,0,0-1.35-.63,1.91,1.91,0,0,0-1.51.7,2.68,2.68,0,0,0-.6,1.8,2.58,2.58,0,0,0,.67,1.83,2.31,2.31,0,0,0,1.74.71,5.3,5.3,0,0,0,1.51-.27Z" transform="translate(90.21 -378.98)"/><path d="M-9.49,385a2.26,2.26,0,0,1-.36-1.37,2.31,2.31,0,0,1,.36-1.38,1.19,1.19,0,0,1,1-.48,1.2,1.2,0,0,1,1,.48,2.31,2.31,0,0,1,.36,1.38A2.26,2.26,0,0,1-7.46,385a1.18,1.18,0,0,1-1,.49A1.18,1.18,0,0,1-9.49,385Zm2.7.47a2.64,2.64,0,0,0,.62-1.84,2.63,2.63,0,0,0-.62-1.84,2.18,2.18,0,0,0-1.68-.68,2.2,2.2,0,0,0-1.69.68,2.63,2.63,0,0,0-.62,1.84,2.64,2.64,0,0,0,.62,1.84,2.2,2.2,0,0,0,1.69.68A2.18,2.18,0,0,0-6.79,385.42Z" transform="translate(90.21 -378.98)"/><path d="M-4.81,386v-4.82h.87v.91a1.64,1.64,0,0,1,1.52-1l.28,0v.82a1.41,1.41,0,0,0-.4-.08,1.63,1.63,0,0,0-1.4,1V386Z" transform="translate(90.21 -378.98)"/><path d="M.59,385.11c-.75,0-1.13-.52-1.13-1.57a2.27,2.27,0,0,1,.35-1.34,1.1,1.1,0,0,1,1-.48,1.71,1.71,0,0,1,1.26.6v2A1.9,1.9,0,0,1,.59,385.11Zm0,2.74a2.36,2.36,0,0,0,1.8-.61,1.92,1.92,0,0,0,.44-.89,8.44,8.44,0,0,0,.12-1.67v-3.51H2v.55a1.78,1.78,0,0,0-1.39-.66,1.86,1.86,0,0,0-1.51.7,2.66,2.66,0,0,0-.58,1.79,2.63,2.63,0,0,0,.51,1.7,1.69,1.69,0,0,0,1.39.63,1.72,1.72,0,0,0,1.58-1v.76c0,1-.49,1.57-1.48,1.57a3.47,3.47,0,0,1-1.5-.36l-.11.75A5.17,5.17,0,0,0,.54,387.85Z" transform="translate(90.21 -378.98)"/><path d="M4.59,386v-4.82h.87V386Zm0-5.7v-.88h.87v.88Z" transform="translate(90.21 -378.98)"/><path d="M8.44,385.39a.77.77,0,0,1-.54-.22.74.74,0,0,1-.23-.54.81.81,0,0,1,.45-.72,2.27,2.27,0,0,1,1.18-.27h.28v1.25A1.88,1.88,0,0,1,8.44,385.39Zm2.05.71a1.38,1.38,0,0,0,.65-.15l-.06-.48-.17,0c-.3,0-.46-.25-.46-.75v-2.18a1.51,1.51,0,0,0-.38-1.13,1.63,1.63,0,0,0-1.19-.37,4.41,4.41,0,0,0-1.66.36v.71a3.35,3.35,0,0,1,1.48-.41c.59,0,.88.28.88.84v.58h-.2a3.58,3.58,0,0,0-1.91.42,1.35,1.35,0,0,0-.67,1.21,1.22,1.22,0,0,0,.4,1,1.37,1.37,0,0,0,1,.38,2.29,2.29,0,0,0,1.52-.73C9.82,385.86,10.08,386.1,10.49,386.1Z" transform="translate(90.21 -378.98)"/><path d="M12.08,381.39,11.86,379H13l-.21,2.41Z" transform="translate(90.21 -378.98)"/><path d="M14.16,385.81V385a3.39,3.39,0,0,0,1.49.43,1,1,0,0,0,.63-.2.66.66,0,0,0,.25-.51c0-.3-.23-.55-.7-.74l-.51-.22c-.76-.32-1.13-.77-1.13-1.35a1.22,1.22,0,0,1,.44-1,1.92,1.92,0,0,1,1.23-.36,6,6,0,0,1,1,.11l.18,0v.72a4.53,4.53,0,0,0-1.17-.21,1,1,0,0,0-.61.16.53.53,0,0,0-.23.45c0,.26.21.49.64.67l.42.17a3,3,0,0,1,1,.64,1.2,1.2,0,0,1,.3.84,1.29,1.29,0,0,1-.5,1,2,2,0,0,1-1.29.41A4.74,4.74,0,0,1,14.16,385.81Z" transform="translate(90.21 -378.98)"/><path d="M23.62,386l-2.48-6.58h.93l2,5.39,2-5.39h.82L24.5,386Z" transform="translate(90.21 -378.98)"/><path d="M27.8,386v-4.82h.87V386Zm0-5.7v-.88h.87v.88Z" transform="translate(90.21 -378.98)"/><path d="M30.43,386v-4.82h.87v.91a1.63,1.63,0,0,1,1.51-1l.28,0v.82a1.34,1.34,0,0,0-.4-.08,1.62,1.62,0,0,0-1.39,1V386Z" transform="translate(90.21 -378.98)"/><path d="M36.3,386a2.86,2.86,0,0,1-.7.11,1.36,1.36,0,0,1-1-.39,1.43,1.43,0,0,1-.37-1.06v-2.83h-.61v-.65h.61v-.88l.87-.08v1h1.26v.65H35.06v2.68c0,.63.27.94.82.94a1.91,1.91,0,0,0,.42-.06Z" transform="translate(90.21 -378.98)"/><path d="M40.58,386v-.91a2,2,0,0,1-1.7,1,1.32,1.32,0,0,1-1-.4,1.5,1.5,0,0,1-.37-1.07v-3.46h.87v3.17a1.36,1.36,0,0,0,.16.77.59.59,0,0,0,.52.23,2,2,0,0,0,1.52-1v-3.12h.87V386Z" transform="translate(90.21 -378.98)"/><path d="M44.42,385.39a.77.77,0,0,1-.54-.22.73.73,0,0,1-.22-.54.8.8,0,0,1,.44-.72,2.27,2.27,0,0,1,1.18-.27h.28v1.25A1.83,1.83,0,0,1,44.42,385.39Zm2,.71a1.38,1.38,0,0,0,.65-.15l-.06-.48-.17,0c-.3,0-.46-.25-.46-.75v-2.18a1.47,1.47,0,0,0-.38-1.13,1.62,1.62,0,0,0-1.18-.37,4.41,4.41,0,0,0-1.67.36v.71a3.35,3.35,0,0,1,1.48-.41c.59,0,.88.28.88.84v.58h-.2a3.58,3.58,0,0,0-1.91.42,1.35,1.35,0,0,0-.67,1.21,1.26,1.26,0,0,0,.4,1,1.37,1.37,0,0,0,1,.38,2.29,2.29,0,0,0,1.52-.73C45.8,385.86,46.06,386.1,46.47,386.1Z" transform="translate(90.21 -378.98)"/><path d="M48.23,386v-7h.87v7Z" transform="translate(90.21 -378.98)"/><path d="M53.72,386v-6.58h.93v5.88h3v.7Z" transform="translate(90.21 -378.98)"/><path d="M58.59,386v-4.82h.87V386Zm0-5.7v-.88h.87v.88Z" transform="translate(90.21 -378.98)"/><path d="M62.09,382.62a2,2,0,0,1,1.44-.79c.74,0,1.12.57,1.12,1.69a2.59,2.59,0,0,1-.33,1.42,1.06,1.06,0,0,1-.94.5,2,2,0,0,1-1.29-.6ZM62,386.05l.11-.61a1.82,1.82,0,0,0,1.43.66,1.79,1.79,0,0,0,1.49-.74,3.06,3.06,0,0,0,.57-1.93,2.74,2.74,0,0,0-.5-1.73,1.64,1.64,0,0,0-1.37-.64,1.74,1.74,0,0,0-1.62,1V379h-.87v7.07Z" transform="translate(90.21 -378.98)"/><path d="M66.94,386v-4.82h.88v.91a1.63,1.63,0,0,1,1.51-1l.28,0v.82a1.34,1.34,0,0,0-.4-.08,1.61,1.61,0,0,0-1.39,1V386Z" transform="translate(90.21 -378.98)"/><path d="M71.89,385.39a.76.76,0,0,1-.54-.22.74.74,0,0,1-.23-.54.81.81,0,0,1,.45-.72,2.27,2.27,0,0,1,1.18-.27H73v1.25A1.88,1.88,0,0,1,71.89,385.39Zm2,.71a1.41,1.41,0,0,0,.65-.15l-.06-.48-.17,0c-.31,0-.46-.25-.46-.75v-2.18a1.51,1.51,0,0,0-.38-1.13,1.65,1.65,0,0,0-1.19-.37,4.41,4.41,0,0,0-1.66.36v.71a3.32,3.32,0,0,1,1.48-.41c.59,0,.88.28.88.84v.58h-.21a3.61,3.61,0,0,0-1.91.42,1.36,1.36,0,0,0-.66,1.21,1.22,1.22,0,0,0,.4,1,1.37,1.37,0,0,0,1,.38,2.29,2.29,0,0,0,1.52-.73C73.27,385.86,73.53,386.1,73.94,386.1Z" transform="translate(90.21 -378.98)"/><path d="M75.69,386v-4.82h.88v.91a1.63,1.63,0,0,1,1.51-1l.28,0v.82a1.34,1.34,0,0,0-.4-.08,1.61,1.61,0,0,0-1.39,1V386Z" transform="translate(90.21 -378.98)"/><path d="M79.7,387.75l.78-1.76-1.86-4.82h.94l1.38,3.64,1.48-3.64h.83l-2.64,6.58Z" transform="translate(90.21 -378.98)"/><path d="M-10.8,391.61a9.45,9.45,0,0,0-1.7-1.08,11.81,11.81,0,0,0-2.08-.75,10,10,0,0,0-2.44-.29,11.7,11.7,0,0,0-3.93.65,8.45,8.45,0,0,0-3.17,2,9.35,9.35,0,0,0-2.11,3.41,14,14,0,0,0-.77,4.89,14.08,14.08,0,0,0,.68,4.5,9.08,9.08,0,0,0,2,3.39,8.81,8.81,0,0,0,3.2,2.13,11.48,11.48,0,0,0,4.27.75c.48,0,1,0,1.5-.07s1-.12,1.51-.21a10,10,0,0,0,1.36-.34,4.94,4.94,0,0,0,1.08-.47c0-.68,0-1.37.05-2.05s0-1.37,0-2.07,0-1.59-.05-2.39-.09-1.55-.14-2.28a9,9,0,0,0,1.67.17l.76,0a4.17,4.17,0,0,0,.72-.14c-.05.52-.08,1.35-.11,2.47s0,2.61,0,4.46c0,.45,0,.91,0,1.38s0,.93,0,1.38a18.73,18.73,0,0,1-1.79.56,19.11,19.11,0,0,1-2.28.48c-.81.13-1.62.24-2.42.34a18.22,18.22,0,0,1-2.2.16,18.85,18.85,0,0,1-5.47-.74,10.65,10.65,0,0,1-4.15-2.27,10.1,10.1,0,0,1-2.62-3.82,14,14,0,0,1-.92-5.29,13.2,13.2,0,0,1,.95-5.17,10.62,10.62,0,0,1,2.69-3.83A11.52,11.52,0,0,1-22.48,389a17.16,17.16,0,0,1,5.47-.82,21.82,21.82,0,0,1,3.08.19,15.24,15.24,0,0,1,2.38.5,14.54,14.54,0,0,1,1.82.65c.53.23,1,.44,1.4.65a5.61,5.61,0,0,0-.49,1.23,7.14,7.14,0,0,0-.29,1.4h-.41A8.92,8.92,0,0,0-10.8,391.61Z" transform="translate(90.21 -378.98)"/><path d="M16.31,412.1a5.88,5.88,0,0,0-.9-.08H13.6a5.9,5.9,0,0,0-.91.08c-.15-.53-.37-1.16-.64-1.9s-.58-1.51-.91-2.31l-1-2.46-1-2.37L7,403c-.75,0-1.5,0-2.25,0s-1.4,0-2.08,0l-2.08.05q-1.09,2.65-2,5.06c-.59,1.61-1,2.93-1.33,4A9.77,9.77,0,0,0-4,412a9.77,9.77,0,0,0-1.26.08q2.76-6,5.39-11.87t5.28-12H6l1.78,4.28c.63,1.53,1.28,3.09,1.94,4.66l2,4.67q1,2.31,1.86,4.31c.58,1.33,1.1,2.52,1.57,3.57S16,411.55,16.31,412.1ZM1.2,401.49l1.84,0c.64,0,1.25,0,1.84,0s1.28,0,1.91,0l1.91-.05-3.78-8.67Z" transform="translate(90.21 -378.98)"/><path d="M20.17,393.08q-.08-2.16-.18-4.41l.85.1a7.52,7.52,0,0,0,.82.05,7.67,7.67,0,0,0,.82-.05l.85-.1q-.1,2.25-.18,4.41c-.06,1.45-.08,2.92-.08,4.42q0,4.31,0,7.45c0,2.11,0,4,.08,5.65,1.61,0,3.16,0,4.64-.05a44.86,44.86,0,0,0,4.77-.4,4.13,4.13,0,0,0-.17,1,3.35,3.35,0,0,0,.17.93c-1-.05-2.09-.08-3.14-.08H23.16c-1,0-2.07,0-3.17.08.07-1.41.13-2.85.18-4.3s.08-2.93.08-4.43V397.5C20.25,396,20.23,394.53,20.17,393.08Z" transform="translate(90.21 -378.98)"/><path d="M37.23,393.08q-.07-2.16-.18-4.41l.86.1a7.34,7.34,0,0,0,.81.05,7.52,7.52,0,0,0,.82-.05l.85-.1c-.07,1.5-.12,3-.18,4.41s-.08,2.92-.08,4.42v5.87c0,1.5,0,3,.08,4.43s.11,2.89.18,4.3c-.52-.05-1.08-.08-1.67-.08s-1.14,0-1.67.08c.07-1.41.13-2.85.18-4.3s.09-2.93.09-4.43V397.5C37.32,396,37.29,394.53,37.23,393.08Z" transform="translate(90.21 -378.98)"/><path d="M46.72,393.08q-.07-2.16-.18-4.41l.85.1a7.52,7.52,0,0,0,.82.05,7.67,7.67,0,0,0,.82-.05l.85-.1q-.1,2.25-.18,4.41c-.06,1.45-.08,2.92-.08,4.42q0,4.31,0,7.45c0,2.11.05,4,.08,5.65,1.61,0,3.16,0,4.64-.05a44.86,44.86,0,0,0,4.77-.4,4.13,4.13,0,0,0-.17,1,3.35,3.35,0,0,0,.17.93c-1-.05-2.09-.08-3.14-.08H49.71c-1,0-2.07,0-3.17.08.07-1.41.13-2.85.18-4.3s.08-2.93.08-4.43V397.5C46.8,396,46.78,394.53,46.72,393.08Z" transform="translate(90.21 -378.98)"/><path d="M63.79,393l-.18-4.36,3.06.1c1,0,2,.05,3.06.05s2,0,3-.05l3-.1a5.35,5.35,0,0,0,0,2.06l-2-.15-1.91-.15c-.67-.05-1.4-.09-2.2-.13s-1.75-.06-2.86-.06c0,.73-.06,1.43-.09,2.09s-.06,1.41-.06,2.26,0,1.75,0,2.6,0,1.48,0,1.91c1,0,1.9,0,2.69,0s1.52-.05,2.18-.09l1.83-.1q.84,0,1.59-.12a5.29,5.29,0,0,0-.11,1.06,5.05,5.05,0,0,0,.11,1c-.6-.07-1.28-.12-2.07-.17s-1.57-.07-2.35-.08l-2.22,0H66.72c0,.2,0,.42,0,.66s0,.54,0,.9v3.38c0,1.3,0,2.37,0,3.21s0,1.47,0,1.91h2.39c.87,0,1.71,0,2.54-.05s1.62-.08,2.36-.14a14.44,14.44,0,0,0,1.92-.26,2.81,2.81,0,0,0-.08.53c0,.19,0,.37,0,.53a3.58,3.58,0,0,0,.1.89c-1-.05-2-.08-3-.08H66.72c-1,0-2.07,0-3.11.08q.09-2.19.18-4.35c.05-1.45.08-2.92.08-4.42v-5.86C63.87,396,63.84,394.49,63.79,393Z" transform="translate(90.21 -378.98)"/><path d="M80,395.26a10.61,10.61,0,0,1,2.63-3.83,11.11,11.11,0,0,1,4-2.39A16.71,16.71,0,0,1,97,389a11.24,11.24,0,0,1,4,2.39,10.71,10.71,0,0,1,2.62,3.83,14.69,14.69,0,0,1,0,10.34,10.84,10.84,0,0,1-2.62,3.84,10.73,10.73,0,0,1-4,2.34,17.74,17.74,0,0,1-10.34,0,10.61,10.61,0,0,1-4-2.34A10.73,10.73,0,0,1,80,405.6a14.69,14.69,0,0,1,0-10.34Zm20.57.28a9.31,9.31,0,0,0-2-3.4,7.91,7.91,0,0,0-3-2,11,11,0,0,0-7.44,0,7.91,7.91,0,0,0-3,2,9.31,9.31,0,0,0-2,3.4,17,17,0,0,0,0,9.79,9.36,9.36,0,0,0,2,3.41,8,8,0,0,0,3,2,11.13,11.13,0,0,0,7.44,0,8,8,0,0,0,3-2,9.36,9.36,0,0,0,2-3.41,17,17,0,0,0,0-9.79Z" transform="translate(90.21 -378.98)"/><path d="M-10.8,391.61a9.45,9.45,0,0,0-1.7-1.08,11.81,11.81,0,0,0-2.08-.75,10,10,0,0,0-2.44-.29,11.7,11.7,0,0,0-3.93.65,8.45,8.45,0,0,0-3.17,2,9.35,9.35,0,0,0-2.11,3.41,14,14,0,0,0-.77,4.89,14.08,14.08,0,0,0,.68,4.5,9.08,9.08,0,0,0,2,3.39,8.81,8.81,0,0,0,3.2,2.13,11.48,11.48,0,0,0,4.27.75c.48,0,1,0,1.5-.07s1-.12,1.51-.21a10,10,0,0,0,1.36-.34,4.94,4.94,0,0,0,1.08-.47c0-.68,0-1.37.05-2.05s0-1.37,0-2.07,0-1.59-.05-2.39-.09-1.55-.14-2.28a9,9,0,0,0,1.67.17l.76,0a4.17,4.17,0,0,0,.72-.14c-.05.52-.08,1.35-.11,2.47s0,2.61,0,4.46c0,.45,0,.91,0,1.38s0,.93,0,1.38a18.73,18.73,0,0,1-1.79.56,19.11,19.11,0,0,1-2.28.48c-.81.13-1.62.24-2.42.34a18.22,18.22,0,0,1-2.2.16,18.85,18.85,0,0,1-5.47-.74,10.65,10.65,0,0,1-4.15-2.27,10.1,10.1,0,0,1-2.62-3.82,14,14,0,0,1-.92-5.29,13.2,13.2,0,0,1,.95-5.17,10.62,10.62,0,0,1,2.69-3.83A11.52,11.52,0,0,1-22.48,389a17.16,17.16,0,0,1,5.47-.82,21.82,21.82,0,0,1,3.08.19,15.24,15.24,0,0,1,2.38.5,14.54,14.54,0,0,1,1.82.65c.53.23,1,.44,1.4.65a5.61,5.61,0,0,0-.49,1.23,7.14,7.14,0,0,0-.29,1.4h-.41A8.92,8.92,0,0,0-10.8,391.61Z" transform="translate(90.21 -378.98)"/><path d="M16.31,412.1a5.88,5.88,0,0,0-.9-.08H13.6a5.9,5.9,0,0,0-.91.08c-.15-.53-.37-1.16-.64-1.9s-.58-1.51-.91-2.31l-1-2.46-1-2.37L7,403c-.75,0-1.5,0-2.25,0s-1.4,0-2.08,0l-2.08.05q-1.09,2.65-2,5.06c-.59,1.61-1,2.93-1.33,4A9.77,9.77,0,0,0-4,412a9.77,9.77,0,0,0-1.26.08q2.76-6,5.39-11.87t5.28-12H6l1.78,4.28c.63,1.53,1.28,3.09,1.94,4.66l2,4.67q1,2.31,1.86,4.31c.58,1.33,1.1,2.52,1.57,3.57S16,411.55,16.31,412.1ZM1.2,401.49l1.84,0c.64,0,1.25,0,1.84,0s1.28,0,1.91,0l1.91-.05-3.78-8.67Z" transform="translate(90.21 -378.98)"/><path d="M20.17,393.08q-.08-2.16-.18-4.41l.85.1a7.52,7.52,0,0,0,.82.05,7.67,7.67,0,0,0,.82-.05l.85-.1q-.1,2.25-.18,4.41c-.06,1.45-.08,2.92-.08,4.42q0,4.31,0,7.45c0,2.11,0,4,.08,5.65,1.61,0,3.16,0,4.64-.05a44.86,44.86,0,0,0,4.77-.4,4.13,4.13,0,0,0-.17,1,3.35,3.35,0,0,0,.17.93c-1-.05-2.09-.08-3.14-.08H23.16c-1,0-2.07,0-3.17.08.07-1.41.13-2.85.18-4.3s.08-2.93.08-4.43V397.5C20.25,396,20.23,394.53,20.17,393.08Z" transform="translate(90.21 -378.98)"/><path d="M37.23,393.08q-.07-2.16-.18-4.41l.86.1a7.34,7.34,0,0,0,.81.05,7.52,7.52,0,0,0,.82-.05l.85-.1c-.07,1.5-.12,3-.18,4.41s-.08,2.92-.08,4.42v5.87c0,1.5,0,3,.08,4.43s.11,2.89.18,4.3c-.52-.05-1.08-.08-1.67-.08s-1.14,0-1.67.08c.07-1.41.13-2.85.18-4.3s.09-2.93.09-4.43V397.5C37.32,396,37.29,394.53,37.23,393.08Z" transform="translate(90.21 -378.98)"/><path d="M46.72,393.08q-.07-2.16-.18-4.41l.85.1a7.52,7.52,0,0,0,.82.05,7.67,7.67,0,0,0,.82-.05l.85-.1q-.1,2.25-.18,4.41c-.06,1.45-.08,2.92-.08,4.42q0,4.31,0,7.45c0,2.11.05,4,.08,5.65,1.61,0,3.16,0,4.64-.05a44.86,44.86,0,0,0,4.77-.4,4.13,4.13,0,0,0-.17,1,3.35,3.35,0,0,0,.17.93c-1-.05-2.09-.08-3.14-.08H49.71c-1,0-2.07,0-3.17.08.07-1.41.13-2.85.18-4.3s.08-2.93.08-4.43V397.5C46.8,396,46.78,394.53,46.72,393.08Z" transform="translate(90.21 -378.98)"/><path d="M63.79,393l-.18-4.36,3.06.1c1,0,2,.05,3.06.05s2,0,3-.05l3-.1a5.35,5.35,0,0,0,0,2.06l-2-.15-1.91-.15c-.67-.05-1.4-.09-2.2-.13s-1.75-.06-2.86-.06c0,.73-.06,1.43-.09,2.09s-.06,1.41-.06,2.26,0,1.75,0,2.6,0,1.48,0,1.91c1,0,1.9,0,2.69,0s1.52-.05,2.18-.09l1.83-.1q.84,0,1.59-.12a5.29,5.29,0,0,0-.11,1.06,5.05,5.05,0,0,0,.11,1c-.6-.07-1.28-.12-2.07-.17s-1.57-.07-2.35-.08l-2.22,0H66.72c0,.2,0,.42,0,.66s0,.54,0,.9v3.38c0,1.3,0,2.37,0,3.21s0,1.47,0,1.91h2.39c.87,0,1.71,0,2.54-.05s1.62-.08,2.36-.14a14.44,14.44,0,0,0,1.92-.26,2.81,2.81,0,0,0-.08.53c0,.19,0,.37,0,.53a3.58,3.58,0,0,0,.1.89c-1-.05-2-.08-3-.08H66.72c-1,0-2.07,0-3.11.08q.09-2.19.18-4.35c.05-1.45.08-2.92.08-4.42v-5.86C63.87,396,63.84,394.49,63.79,393Z" transform="translate(90.21 -378.98)"/><path d="M80,395.26a10.61,10.61,0,0,1,2.63-3.83,11.11,11.11,0,0,1,4-2.39A16.71,16.71,0,0,1,97,389a11.24,11.24,0,0,1,4,2.39,10.71,10.71,0,0,1,2.62,3.83,14.69,14.69,0,0,1,0,10.34,10.84,10.84,0,0,1-2.62,3.84,10.73,10.73,0,0,1-4,2.34,17.74,17.74,0,0,1-10.34,0,10.61,10.61,0,0,1-4-2.34A10.73,10.73,0,0,1,80,405.6a14.69,14.69,0,0,1,0-10.34Zm20.57.28a9.31,9.31,0,0,0-2-3.4,7.91,7.91,0,0,0-3-2,11,11,0,0,0-7.44,0,7.91,7.91,0,0,0-3,2,9.31,9.31,0,0,0-2,3.4,17,17,0,0,0,0,9.79,9.36,9.36,0,0,0,2,3.41,8,8,0,0,0,3,2,11.13,11.13,0,0,0,7.44,0,8,8,0,0,0,3-2,9.36,9.36,0,0,0,2-3.41,17,17,0,0,0,0-9.79Z" transform="translate(90.21 -378.98)"/><polygon points="42.81 33.79 42.77 33.81 43.29 33.81 43.25 33.78 42.81 33.79"/><path d="M-60.14,386.28a30.14,30.14,0,0,0-30.07,26.51h38.94l-.08,0-1.32-.15-.35-.27-.32-.49-.24-.47-.59-.29-.41.06-.24,0-.38-.31-.24-.31-.9-.35-.41,0h-.45l-.35.18-.39,0-.5-.13-.72-.23-.55-.24-.46-.08-.83-.38-.5.31-.65-.12-.51-.55-.31-.65-.49-.21L-64,408l-.28-.44-.59-.57-.34-.26-.31-.28-.79-1.14-.35-.6-.24-.28-.42-.29-.38-.32-.41-.15v.63l.16.53.16.33.08.16.26.32.19.38.27.3.41.62-.8-.12-.54-.67-.45-.71-.86-1.32-.23-.31-.42-.25-.48-.2-.61-.2-.51-.26-.34-.41L-72,402l-.43-.88-.13-.37,0-.29.26-.49-.07-.59-.27-.54.31-.28.36-.17V398l-.19-.34-.72-.74-.35-.55-.3-.29-.39-.76-.87-.57-.28-.43-.27-.11-1.06.38-.33.23-.56.19-.53.11-.33.24-1.39.44.19-.37.28-.29.75-.57.38-1,.55-.39,0-.24.38-.1.51,0,1-.24.32-.38.23-.39.12-.06h.46l.58.15h.44l1.6-.33.91-.07.53,0,.41,0h.44l.48,0,.53.18.35.26.56.24,1.15-.47.86.09.3.28.61.35.53,0,.44-.14.41-.05,1.18.16h.88l.41-.06.94-.3.29-.27.71-.34,1.06.35.39,0,1,.15.09.16-.06.32-.21.17-.91.08v.29l-.54.25h-.45l-.47.23-.21.32.06.39-.06.32-.33.67,0,.41.23.43-.06.33.27.52.15.44.16.07.39-.11.27.08.3.29.7-.05.3-.28.27-.35.09,0,.37.59.29.16.59-.15.3.44.28.3.24.31.59.3.42-.06.37-.1.34-.38.18-.53,0-.94.16-.44.33-.22.33-.66,0-.21-.24-.46-.11-.37.06,0,.74.15.82.46.67.33h.44l.42-.05.33-.22.7-.06.24.32.29.3,1.2.93.54.32.49.12.94.41h.44l1.07.36.23.62v.28l-.35.17L-43,399h-.88l-.48-.07-.5-.11-.41.19-.54.4-.24.4-.38.25-.18.23.08.18.21.11.41-.05.57-.19.94-.17.27.09-.13.2.36.12.42-.21.4.1-.17.37-.78.22-.42.06-.61.22-.42.06-.56.34-.86.49-.41.2-.24.39-.82,1.76-.24.54.2.84,0,.23-.32-.06-.44-.43-.37-1.06-.68-.31h-.44l-.43.05h-.43l-.53-.18-.32.09-.69.53-.41-.1-.58-.28-.6.14-1.16.77-.41.05-.18-.06-.91.22-.24.4-.07.47.31.85.76,1.15.86.37.16.5.36.12.53-.11.29-.58L-54,408l.37,0,.82,1.47.55.24.66.13.14.28-.09.55v.86l.27.31.49.22.6.06h.44l.49.07.41-.06.73.11.28-.34.32-.23.36-.17h.3l.67.47h.44l.34-.08.29-.59.29-.14.33.56.42.22.45-.13.61-.86.64-.17.89,0,.41-.06.41-.2.32.05,1.25.57.34.26.52.27.28.28.63.78v0h7.31A30.15,30.15,0,0,0-60.14,386.28Zm-2.29,5.24-1.33-.21-.61-.25-.15-.12.12-.14.75-.2.88.24.54.49Zm.24-1.58-1-.22-.41,0-.24,0-.26-.37L-64,389l.8-.3.87.3.6.28.1.39Zm2.14,2-.31.1-.18,0-.27-.25-.28-.1-.36-.24,0-.3.13-.12.32-.08h.38l.37.16.24.27.1.19v.24Zm2.33-.94-.45.09-.44-.11-.71-.24-.58-.31-.23-.11-.17-.33.12-.17h.37l.37-.14,1.19.24.62.59Zm.23-1.34h-.4l-1.07-.32-.22-.64.24-.16.39-.05.85,0,.56.5Zm1.36-.18-.42.05-.18-.4.08-.26.56-.34,0-.08.41-.06.65.13.18.18-.27.64-.41.49-.45-.29Zm6.1,4-.53.27-.67-.33-.49-.06.32-.44-.13-.38-.47-.19-.49-.12-.57.06-1,0,.1-.55-.82-.32-1.18-.58,0-.09.59.13.41-.05.56.09.47-.08.39,0,1.37.57.66,0,.17.05.38.61.11.37.3.29.56.09Zm6.11.9-.43-.29-.51-.12-.5,0-.19-.69-.71-1-.23-.56-.55-.27h-.45l-.47.09-.48-.07-.36-.32-.25-.32-.47-.21-.49-.11-.31-.3-1-.49-1.27-.77-.41-.27v-.27l.09-.11.5-.15.86-.42,1.34.42,2,.79,2.35,1.1,1.52.83.19.12,0,1.19.07.43.19.21.31.48-.12.48.19.55Z" transform="translate(90.21 -378.98)"/></g></svg>