<svg xmlns="http://www.w3.org/2000/svg" width="300" height="75.74" viewBox="0 0 300 75.74"><defs><style>.cls-1{fill:#231f20;}.cls-2{fill:#7f2854;}.cls-3{fill:#924520;}.cls-4{fill:#265b88;}.cls-5{fill:#288891;}</style></defs><title>Asset 1</title><g id="Layer_2" data-name="Layer 2"><g id="Layer_1-2" data-name="Layer 1"><path class="cls-1" d="M79.26,56.87a1.9,1.9,0,0,1-.71,1.55,3,3,0,0,1-1.91.57,6,6,0,0,1-2.2-.31v-.55a5.51,5.51,0,0,0,2.15.36,2.46,2.46,0,0,0,1.53-.44,1.41,1.41,0,0,0,.56-1.16,1.28,1.28,0,0,0-.19-.73,1.59,1.59,0,0,0-.6-.53,7.58,7.58,0,0,0-1.24-.52A4.37,4.37,0,0,1,75,54.22a1.8,1.8,0,0,1-.45-1.28,1.74,1.74,0,0,1,.68-1.42A2.74,2.74,0,0,1,77,51a5.18,5.18,0,0,1,2.07.42l-.2.47A4.86,4.86,0,0,0,77,51.44a2.22,2.22,0,0,0-1.38.4,1.32,1.32,0,0,0-.51,1.09,1.36,1.36,0,0,0,.16.71,1.29,1.29,0,0,0,.51.5,7.12,7.12,0,0,0,1.23.54,6.3,6.3,0,0,1,1.37.61,1.94,1.94,0,0,1,.67.67A1.83,1.83,0,0,1,79.26,56.87Z"/><path class="cls-1" d="M85.05,58.89V55.12a1.83,1.83,0,0,0-.37-1.28,1.5,1.5,0,0,0-1.14-.39A2,2,0,0,0,82,54a2.5,2.5,0,0,0-.48,1.71v3.21H81V50.57h.53v2.65l0,.74h0a2,2,0,0,1,.82-.76A2.86,2.86,0,0,1,83.6,53c1.31,0,2,.7,2,2.12v3.8Z"/><path class="cls-1" d="M91.2,58.89,91.06,58h0a2.69,2.69,0,0,1-.9.79A2.47,2.47,0,0,1,89,59a1.86,1.86,0,0,1-1.33-.44,1.55,1.55,0,0,1-.48-1.21A1.51,1.51,0,0,1,87.93,56a3.82,3.82,0,0,1,2-.49l1.11,0v-.38a2,2,0,0,0-.34-1.25,1.31,1.31,0,0,0-1.09-.42,3.65,3.65,0,0,0-1.67.45l-.19-.46A4.36,4.36,0,0,1,89.69,53a1.91,1.91,0,0,1,1.43.49A2.21,2.21,0,0,1,91.59,55v3.87Zm-2.14-.38A2,2,0,0,0,90.53,58a2,2,0,0,0,.53-1.48v-.57l-1,0a3.71,3.71,0,0,0-1.74.39,1.22,1.22,0,0,0-.19,1.85A1.36,1.36,0,0,0,89.06,58.51Z"/><path class="cls-1" d="M96,53a4.64,4.64,0,0,1,.8.07l-.11.51a3.08,3.08,0,0,0-.75-.09,1.48,1.48,0,0,0-1.22.63,2.54,2.54,0,0,0-.47,1.59v3.21h-.53V53.08h.45l0,1.05h0a2.43,2.43,0,0,1,.76-.9A1.73,1.73,0,0,1,96,53Z"/><path class="cls-1" d="M98.09,51.46c0-.34.11-.51.34-.51a.31.31,0,0,1,.26.14.63.63,0,0,1,.09.37.67.67,0,0,1-.09.38.29.29,0,0,1-.26.14C98.2,52,98.09,51.81,98.09,51.46Zm.6,7.43h-.53V53.08h.53Z"/><path class="cls-1" d="M104.91,58.89V55.12a1.88,1.88,0,0,0-.37-1.28,1.52,1.52,0,0,0-1.15-.39,2,2,0,0,0-1.52.52,2.5,2.5,0,0,0-.48,1.71v3.21h-.53V53.08h.45l.1.79h0a2.19,2.19,0,0,1,2-.9c1.32,0,2,.7,2,2.12v3.8Z"/><path class="cls-1" d="M112.06,53.08v.37l-1.2.07a2.07,2.07,0,0,1,.48,1.32,1.8,1.8,0,0,1-.56,1.36,2.14,2.14,0,0,1-1.5.52,2.34,2.34,0,0,1-.55,0,1.37,1.37,0,0,0-.48.39.74.74,0,0,0-.17.48.46.46,0,0,0,.21.41,1.53,1.53,0,0,0,.71.12h1a2.32,2.32,0,0,1,1.45.39,1.31,1.31,0,0,1,.5,1.13,1.58,1.58,0,0,1-.74,1.41,3.77,3.77,0,0,1-2.13.5,2.91,2.91,0,0,1-1.69-.42,1.35,1.35,0,0,1-.6-1.17,1.41,1.41,0,0,1,.37-1,2,2,0,0,1,1-.54,1,1,0,0,1-.42-.31.75.75,0,0,1-.16-.48,1.23,1.23,0,0,1,.74-1,1.65,1.65,0,0,1-.79-.66,1.86,1.86,0,0,1-.28-1,1.84,1.84,0,0,1,.55-1.4,2.08,2.08,0,0,1,1.49-.52,2.65,2.65,0,0,1,.89.11Zm-4.7,6.79c0,.8.59,1.2,1.78,1.2,1.52,0,2.28-.49,2.28-1.46a.85.85,0,0,0-.35-.76,2.16,2.16,0,0,0-1.16-.24h-1C107.89,58.61,107.36,59,107.36,59.87Zm.44-5a1.33,1.33,0,0,0,.41,1,1.55,1.55,0,0,0,1.09.38,1.59,1.59,0,0,0,1.12-.37,1.42,1.42,0,0,0,.38-1.07,1.48,1.48,0,0,0-.39-1.12,1.62,1.62,0,0,0-1.12-.37,1.38,1.38,0,0,0-1.49,1.51Z"/><path class="cls-1" d="M119.74,55h2.88v3.56a6.51,6.51,0,0,1-2.55.48,3.75,3.75,0,0,1-2.84-1,4.18,4.18,0,0,1-1-3,4.38,4.38,0,0,1,.49-2.11,3.39,3.39,0,0,1,1.4-1.43,4.28,4.28,0,0,1,2.09-.5,5.45,5.45,0,0,1,2.29.47l-.22.49a5,5,0,0,0-2.1-.47,3.2,3.2,0,0,0-2.45,1,3.54,3.54,0,0,0-.91,2.57,3.69,3.69,0,0,0,.86,2.65,3.34,3.34,0,0,0,2.53.89,4.94,4.94,0,0,0,1.83-.3V55.46h-2.32Z"/><path class="cls-1" d="M127,59a2.55,2.55,0,0,1-2-.78,3.14,3.14,0,0,1-.7-2.18A3.39,3.39,0,0,1,125,53.8a2.25,2.25,0,0,1,1.84-.83,2,2,0,0,1,1.62.71,3,3,0,0,1,.59,2v.42h-4.18a2.74,2.74,0,0,0,.56,1.83,2,2,0,0,0,1.57.63,4.51,4.51,0,0,0,.87-.07,4.35,4.35,0,0,0,1-.3v.48a3.73,3.73,0,0,1-.9.29A4.44,4.44,0,0,1,127,59Zm-.16-5.55a1.71,1.71,0,0,0-1.34.55,2.62,2.62,0,0,0-.6,1.59h3.59a2.44,2.44,0,0,0-.44-1.57A1.43,1.43,0,0,0,126.85,53.44Z"/><path class="cls-1" d="M135.69,56a3.28,3.28,0,0,1-.69,2.22,2.35,2.35,0,0,1-1.9.8,2.44,2.44,0,0,1-1.35-.37,2.31,2.31,0,0,1-.89-1,3.84,3.84,0,0,1-.31-1.6,3.27,3.27,0,0,1,.69-2.21,2.37,2.37,0,0,1,1.89-.79,2.32,2.32,0,0,1,1.88.8A3.33,3.33,0,0,1,135.69,56Zm-4.59,0a3,3,0,0,0,.53,1.87,2,2,0,0,0,3,0,3,3,0,0,0,.52-1.87,2.86,2.86,0,0,0-.53-1.86,1.8,1.8,0,0,0-1.49-.66,1.77,1.77,0,0,0-1.48.66A2.92,2.92,0,0,0,131.1,56Z"/><path class="cls-1" d="M139.8,53a4.45,4.45,0,0,1,.79.07l-.1.51a3.08,3.08,0,0,0-.75-.09,1.46,1.46,0,0,0-1.22.63,2.55,2.55,0,0,0-.48,1.59v3.21h-.53V53.08H138l.06,1.05h0a2.44,2.44,0,0,1,.77-.9A1.73,1.73,0,0,1,139.8,53Z"/><path class="cls-1" d="M146.52,53.08v.37l-1.2.07a2.07,2.07,0,0,1,.48,1.32,1.8,1.8,0,0,1-.56,1.36,2.14,2.14,0,0,1-1.5.52,2.39,2.39,0,0,1-.55,0,1.37,1.37,0,0,0-.48.39.8.8,0,0,0-.17.48.46.46,0,0,0,.21.41,1.53,1.53,0,0,0,.71.12h1a2.29,2.29,0,0,1,1.44.39,1.32,1.32,0,0,1,.51,1.13,1.59,1.59,0,0,1-.75,1.41,3.73,3.73,0,0,1-2.12.5,3,3,0,0,1-1.7-.42,1.35,1.35,0,0,1-.6-1.17,1.41,1.41,0,0,1,.37-1,2,2,0,0,1,1-.54,1,1,0,0,1-.42-.31.75.75,0,0,1-.16-.48,1.23,1.23,0,0,1,.74-1,1.7,1.7,0,0,1-.79-.66,1.86,1.86,0,0,1-.28-1,1.84,1.84,0,0,1,.55-1.4,2.09,2.09,0,0,1,1.5-.52,2.58,2.58,0,0,1,.88.11Zm-4.7,6.79c0,.8.59,1.2,1.78,1.2,1.52,0,2.29-.49,2.29-1.46a.83.83,0,0,0-.36-.76,2.16,2.16,0,0,0-1.16-.24h-1C142.35,58.61,141.82,59,141.82,59.87Zm.44-5a1.33,1.33,0,0,0,.41,1,1.82,1.82,0,0,0,2.21,0,1.42,1.42,0,0,0,.39-1.07,1.48,1.48,0,0,0-.4-1.12,1.62,1.62,0,0,0-1.12-.37,1.51,1.51,0,0,0-1.09.4A1.54,1.54,0,0,0,142.26,54.89Z"/><path class="cls-1" d="M147.86,51.46q0-.51.33-.51a.3.3,0,0,1,.26.14.56.56,0,0,1,.1.37.59.59,0,0,1-.1.38.28.28,0,0,1-.26.14C148,52,147.86,51.81,147.86,51.46Zm.6,7.43h-.53V53.08h.53Z"/><path class="cls-1" d="M154.15,58.89,154,58H154a2.69,2.69,0,0,1-.9.79A2.44,2.44,0,0,1,152,59a1.86,1.86,0,0,1-1.33-.44,1.54,1.54,0,0,1-.47-1.21,1.5,1.5,0,0,1,.7-1.32,3.85,3.85,0,0,1,2.05-.49l1.11,0v-.38a1.94,1.94,0,0,0-.34-1.25,1.29,1.29,0,0,0-1.08-.42,3.58,3.58,0,0,0-1.67.45l-.2-.46a4.43,4.43,0,0,1,1.89-.45,1.89,1.89,0,0,1,1.43.49,2.21,2.21,0,0,1,.47,1.55v3.87ZM152,58.51a2,2,0,0,0,1.47-.53A2,2,0,0,0,154,56.5v-.57l-1,0a3.78,3.78,0,0,0-1.74.39,1.24,1.24,0,0,0-.19,1.85A1.36,1.36,0,0,0,152,58.51Z"/><path class="cls-1" d="M157,51.07l.06.11a18.71,18.71,0,0,1-.93,2.57h-.35c.11-.34.21-.77.33-1.29s.2-1,.26-1.39Z"/><path class="cls-1" d="M162.05,57.37a1.38,1.38,0,0,1-.6,1.2,2.85,2.85,0,0,1-1.68.42,4,4,0,0,1-1.85-.36v-.57a4.13,4.13,0,0,0,1.85.44,2.58,2.58,0,0,0,1.31-.28.9.9,0,0,0,.44-.77.93.93,0,0,0-.35-.73,3.91,3.91,0,0,0-1.17-.59,6.6,6.6,0,0,1-1.22-.54,1.65,1.65,0,0,1-.53-.52,1.27,1.27,0,0,1-.18-.69,1.18,1.18,0,0,1,.54-1,2.63,2.63,0,0,1,1.53-.38,4.5,4.5,0,0,1,1.79.35l-.2.48a4.09,4.09,0,0,0-1.59-.35,2.25,2.25,0,0,0-1.12.23.73.73,0,0,0-.42.65.91.91,0,0,0,.32.73,4.81,4.81,0,0,0,1.27.61,6.52,6.52,0,0,1,1.14.51,1.59,1.59,0,0,1,.54.52A1.22,1.22,0,0,1,162.05,57.37Z"/><path class="cls-1" d="M172.61,58.89h-.55V55H167.5v3.85H167V51.07h.54v3.47h4.56V51.07h.55Z"/><path class="cls-1" d="M174.84,51.46q0-.51.33-.51a.3.3,0,0,1,.26.14.63.63,0,0,1,.09.37.67.67,0,0,1-.09.38.28.28,0,0,1-.26.14C175,52,174.84,51.81,174.84,51.46Zm.6,7.43h-.53V53.08h.53Z"/><path class="cls-1" d="M181.2,57.37a1.37,1.37,0,0,1-.59,1.2,2.88,2.88,0,0,1-1.68.42,4,4,0,0,1-1.85-.36v-.57a4.1,4.1,0,0,0,1.85.44,2.51,2.51,0,0,0,1.3-.28.89.89,0,0,0,.45-.77.91.91,0,0,0-.36-.73,3.71,3.71,0,0,0-1.16-.59,7.12,7.12,0,0,1-1.23-.54,1.88,1.88,0,0,1-.53-.52,1.27,1.27,0,0,1-.18-.69,1.19,1.19,0,0,1,.55-1A2.63,2.63,0,0,1,179.3,53a4.53,4.53,0,0,1,1.79.35l-.2.48a4.09,4.09,0,0,0-1.59-.35,2.29,2.29,0,0,0-1.13.23.74.74,0,0,0-.41.65.91.91,0,0,0,.32.73,4.87,4.87,0,0,0,1.26.61,6.35,6.35,0,0,1,1.15.51,1.47,1.47,0,0,1,.53.52A1.22,1.22,0,0,1,181.2,57.37Z"/><path class="cls-1" d="M184.45,58.52a4.48,4.48,0,0,0,.88-.08v.42a2.69,2.69,0,0,1-.89.13,1.44,1.44,0,0,1-1.13-.41,1.86,1.86,0,0,1-.37-1.29V53.54h-.86v-.31l.86-.24.27-1.32h.27v1.41h1.7v.46h-1.7v3.67a1.72,1.72,0,0,0,.23,1A.85.85,0,0,0,184.45,58.52Z"/><path class="cls-1" d="M191.6,56a3.33,3.33,0,0,1-.68,2.22A2.37,2.37,0,0,1,189,59a2.41,2.41,0,0,1-1.34-.37,2.25,2.25,0,0,1-.89-1,3.84,3.84,0,0,1-.31-1.6,3.32,3.32,0,0,1,.68-2.21,2.38,2.38,0,0,1,1.9-.79,2.3,2.3,0,0,1,1.87.8A3.27,3.27,0,0,1,191.6,56ZM187,56a3,3,0,0,0,.53,1.87,2,2,0,0,0,3,0,3,3,0,0,0,.53-1.87,2.92,2.92,0,0,0-.53-1.86,1.82,1.82,0,0,0-1.5-.66,1.78,1.78,0,0,0-1.48.66A2.92,2.92,0,0,0,187,56Z"/><path class="cls-1" d="M195.72,53a4.53,4.53,0,0,1,.79.07l-.1.51a3.16,3.16,0,0,0-.76-.09,1.45,1.45,0,0,0-1.21.63,2.55,2.55,0,0,0-.48,1.59v3.21h-.53V53.08h.45l.05,1.05h0a2.36,2.36,0,0,1,.77-.9A1.71,1.71,0,0,1,195.72,53Z"/><path class="cls-1" d="M196.94,53.08h.54l1.23,3.26c.37,1,.61,1.67.71,2h0c.15-.46.4-1.14.73-2l1.23-3.23H202l-2.6,6.75a5.81,5.81,0,0,1-.53,1.11,1.55,1.55,0,0,1-.5.43,1.47,1.47,0,0,1-.69.14,2.19,2.19,0,0,1-.68-.11v-.46a2.34,2.34,0,0,0,.66.09.88.88,0,0,0,.49-.13,1.31,1.31,0,0,0,.37-.4,5.54,5.54,0,0,0,.39-.85l.29-.76Z"/><path class="cls-1" d="M205.89,56.9a2,2,0,0,1,.4-1.25,4.6,4.6,0,0,1,1.46-1.1l-.4-.44a3,3,0,0,1-.52-.74,1.8,1.8,0,0,1-.17-.76,1.53,1.53,0,0,1,.51-1.21,2,2,0,0,1,1.37-.45,1.93,1.93,0,0,1,1.31.43,1.54,1.54,0,0,1,.48,1.2,1.59,1.59,0,0,1-.37,1,5,5,0,0,1-1.35,1L211,57.09a4.24,4.24,0,0,0,.56-.84,5.72,5.72,0,0,0,.4-1.07h.51a5.81,5.81,0,0,1-1.11,2.27l1.42,1.44h-.72l-1-1.06a4.79,4.79,0,0,1-.88.71,3.42,3.42,0,0,1-.84.33,4.13,4.13,0,0,1-1,.12,2.6,2.6,0,0,1-1.76-.55A2,2,0,0,1,205.89,56.9Zm2.44,1.61a3.39,3.39,0,0,0,1.25-.23,3.68,3.68,0,0,0,1.12-.78l-2.58-2.59a5.64,5.64,0,0,0-1.05.65,1.67,1.67,0,0,0-.47.58,1.72,1.72,0,0,0-.15.74,1.52,1.52,0,0,0,.5,1.2A2,2,0,0,0,208.33,58.51Zm-1.1-5.91a1.52,1.52,0,0,0,.21.78,5.27,5.27,0,0,0,.82.93,4,4,0,0,0,1.18-.85,1.35,1.35,0,0,0,.33-.9,1,1,0,0,0-.33-.81,1.25,1.25,0,0,0-.9-.32,1.42,1.42,0,0,0-1,.31A1.11,1.11,0,0,0,207.23,52.6Z"/><path class="cls-1" d="M220.76,51.45a3,3,0,0,0-2.32.94A3.74,3.74,0,0,0,217.6,55a3.83,3.83,0,0,0,.8,2.6,2.85,2.85,0,0,0,2.27.92,6.09,6.09,0,0,0,1.81-.25v.48a6,6,0,0,1-1.94.27A3.29,3.29,0,0,1,218,57.93a4.32,4.32,0,0,1-.94-3,4.64,4.64,0,0,1,.45-2.1,3.21,3.21,0,0,1,1.3-1.4,3.81,3.81,0,0,1,2-.5,4.64,4.64,0,0,1,2.05.43l-.22.49A4,4,0,0,0,220.76,51.45Z"/><path class="cls-1" d="M224.76,53.08v3.76a1.85,1.85,0,0,0,.37,1.27,1.49,1.49,0,0,0,1.15.4A2,2,0,0,0,227.8,58a2.44,2.44,0,0,0,.49-1.71v-3.2h.52v5.81h-.45l-.09-.81h0a2.18,2.18,0,0,1-2,.91c-1.32,0-2-.71-2-2.12V53.08Z"/><path class="cls-1" d="M231.51,58.89H231V50.57h.53Z"/><path class="cls-1" d="M235.2,58.52a4.48,4.48,0,0,0,.88-.08v.42a2.69,2.69,0,0,1-.89.13,1.44,1.44,0,0,1-1.13-.41,1.86,1.86,0,0,1-.37-1.29V53.54h-.86v-.31l.86-.24.27-1.32h.27v1.41h1.7v.46h-1.7v3.67a1.72,1.72,0,0,0,.23,1A.85.85,0,0,0,235.2,58.52Z"/><path class="cls-1" d="M238,53.08v3.76a1.8,1.8,0,0,0,.37,1.27,1.48,1.48,0,0,0,1.14.4,2,2,0,0,0,1.53-.52,2.44,2.44,0,0,0,.49-1.71v-3.2h.52v5.81h-.45l-.09-.81h0a2.15,2.15,0,0,1-2,.91c-1.32,0-2-.71-2-2.12V53.08Z"/><path class="cls-1" d="M246.51,53a4.45,4.45,0,0,1,.79.07l-.1.51a3.08,3.08,0,0,0-.75-.09,1.46,1.46,0,0,0-1.22.63,2.55,2.55,0,0,0-.48,1.59v3.21h-.53V53.08h.45l.06,1.05h0a2.44,2.44,0,0,1,.77-.9A1.73,1.73,0,0,1,246.51,53Z"/><path class="cls-1" d="M251.05,59a2.55,2.55,0,0,1-2-.78,3.14,3.14,0,0,1-.7-2.18,3.39,3.39,0,0,1,.68-2.23,2.23,2.23,0,0,1,1.84-.83,2,2,0,0,1,1.62.71,3,3,0,0,1,.59,2v.42h-4.18a2.74,2.74,0,0,0,.56,1.83,2,2,0,0,0,1.57.63,4.51,4.51,0,0,0,.87-.07,4.35,4.35,0,0,0,1-.3v.48a3.73,3.73,0,0,1-.9.29A4.44,4.44,0,0,1,251.05,59Zm-.16-5.55a1.71,1.71,0,0,0-1.34.55,2.62,2.62,0,0,0-.6,1.59h3.59a2.51,2.51,0,0,0-.43-1.57A1.46,1.46,0,0,0,250.89,53.44Z"/><path class="cls-1" d="M264.69,55a4.36,4.36,0,0,1-.93,2.94,3.59,3.59,0,0,1-5.13,0,5.11,5.11,0,0,1,0-5.89A3.25,3.25,0,0,1,261.2,51,3.18,3.18,0,0,1,263.76,52,4.36,4.36,0,0,1,264.69,55Zm-6.39,0a4,4,0,0,0,.74,2.59,3,3,0,0,0,4.31,0,4,4,0,0,0,.74-2.6,4,4,0,0,0-.74-2.59,3,3,0,0,0-4.3,0A3.93,3.93,0,0,0,258.3,55Z"/><path class="cls-1" d="M270.62,58.89V55.12a1.88,1.88,0,0,0-.37-1.28,1.52,1.52,0,0,0-1.15-.39,2,2,0,0,0-1.52.52,2.49,2.49,0,0,0-.49,1.71v3.21h-.52V53.08H267l.11.79h0a2.19,2.19,0,0,1,2-.9c1.32,0,2,.7,2,2.12v3.8Z"/><path class="cls-1" d="M273.77,58.89h-.53V50.57h.53Z"/><path class="cls-1" d="M275.86,51.46q0-.51.33-.51a.3.3,0,0,1,.26.14.63.63,0,0,1,.1.37.66.66,0,0,1-.1.38.28.28,0,0,1-.26.14C276,52,275.86,51.81,275.86,51.46Zm.6,7.43h-.53V53.08h.53Z"/><path class="cls-1" d="M282.67,58.89V55.12a1.83,1.83,0,0,0-.37-1.28,1.48,1.48,0,0,0-1.14-.39,2,2,0,0,0-1.52.52,2.44,2.44,0,0,0-.49,1.71v3.21h-.53V53.08h.45l.1.79h0a2.17,2.17,0,0,1,2-.9c1.32,0,2,.7,2,2.12v3.8Z"/><path class="cls-1" d="M287.64,59a2.52,2.52,0,0,1-2-.78A3.1,3.1,0,0,1,285,56a3.45,3.45,0,0,1,.68-2.23,2.25,2.25,0,0,1,1.85-.83,2,2,0,0,1,1.61.71,3,3,0,0,1,.6,2v.42h-4.19a2.79,2.79,0,0,0,.56,1.83,2,2,0,0,0,1.57.63,4.51,4.51,0,0,0,.87-.07,4.57,4.57,0,0,0,1-.3v.48a3.8,3.8,0,0,1-.91.29A4.38,4.38,0,0,1,287.64,59Zm-.15-5.55a1.74,1.74,0,0,0-1.35.55,2.56,2.56,0,0,0-.59,1.59h3.59A2.51,2.51,0,0,0,288.7,54,1.44,1.44,0,0,0,287.49,53.44Z"/><path class="cls-1" d="M84.73,35.67a6.32,6.32,0,0,1-1.8,4.85,7.34,7.34,0,0,1-5.21,1.69H74.09V29.38h4A6.8,6.8,0,0,1,83,31,6.1,6.1,0,0,1,84.73,35.67Zm-2.83.07c0-2.75-1.21-4.13-3.65-4.13H76.81V40H78C80.59,40,81.9,38.56,81.9,35.74Z"/><path class="cls-1" d="M87.24,29.87c0-.88.49-1.31,1.46-1.31s1.45.43,1.45,1.31a1.29,1.29,0,0,1-.36,1,1.53,1.53,0,0,1-1.09.34C87.73,31.18,87.24,30.74,87.24,29.87ZM90,42.21H87.36V32.4H90Z"/><path class="cls-1" d="M101.55,32.4v1.36l-1.53.4a2.66,2.66,0,0,1,.42,1.47,3,3,0,0,1-1.1,2.46,4.78,4.78,0,0,1-3.06.88l-.48,0-.4,0a.91.91,0,0,0-.41.7c0,.39.49.58,1.47.58h1.67a3.8,3.8,0,0,1,2.46.69,2.49,2.49,0,0,1,.85,2A3,3,0,0,1,100,45.58a7.46,7.46,0,0,1-4.11.94,5.68,5.68,0,0,1-3.14-.71,2.28,2.28,0,0,1-1.08-2,2.1,2.1,0,0,1,.55-1.49,3.13,3.13,0,0,1,1.62-.85,1.94,1.94,0,0,1-.72-.57,1.41,1.41,0,0,1-.31-.85,1.34,1.34,0,0,1,.33-.93,3.8,3.8,0,0,1,.94-.74,2.59,2.59,0,0,1-1.22-1.07,3.17,3.17,0,0,1-.46-1.73,3,3,0,0,1,1-2.48,4.47,4.47,0,0,1,3-.88,7.61,7.61,0,0,1,1,.07l.72.11ZM94,43.59a1,1,0,0,0,.53.87,2.94,2.94,0,0,0,1.49.32,5.12,5.12,0,0,0,2.25-.4,1.19,1.19,0,0,0,.82-1.08.77.77,0,0,0-.48-.76,4,4,0,0,0-1.49-.21H95.71a2.1,2.1,0,0,0-1.23.35A1.06,1.06,0,0,0,94,43.59Zm1-8a2,2,0,0,0,.36,1.26,1.32,1.32,0,0,0,1.11.47,1.29,1.29,0,0,0,1.1-.47,2,2,0,0,0,.36-1.26c0-1.18-.49-1.77-1.46-1.77S95,34.43,95,35.61Z"/><path class="cls-1" d="M103.23,29.87c0-.88.49-1.31,1.46-1.31s1.45.43,1.45,1.31a1.29,1.29,0,0,1-.36,1,1.53,1.53,0,0,1-1.09.34C103.72,31.18,103.23,30.74,103.23,29.87ZM106,42.21h-2.67V32.4H106Z"/><path class="cls-1" d="M113.14,40.25a5.86,5.86,0,0,0,1.68-.3v2a6.1,6.1,0,0,1-2.45.44,3,3,0,0,1-2.34-.81,3.51,3.51,0,0,1-.73-2.43V34.41H108V33.28l1.47-.9.77-2.07H112V32.4h2.75v2H112v4.73a1,1,0,0,0,.32.84A1.29,1.29,0,0,0,113.14,40.25Z"/><path class="cls-1" d="M123.21,42.21l-.51-1.34h-.08a3.86,3.86,0,0,1-1.38,1.18,4.51,4.51,0,0,1-1.87.33,3,3,0,0,1-2.22-.8,3.12,3.12,0,0,1-.81-2.3,2.57,2.57,0,0,1,1.09-2.3,6.23,6.23,0,0,1,3.29-.82l1.7-.06v-.43a1.33,1.33,0,0,0-1.52-1.49,7,7,0,0,0-2.77.71l-.88-1.8A8,8,0,0,1,121,32.2a4.69,4.69,0,0,1,3,.86,3.17,3.17,0,0,1,1,2.61v6.54Zm-.79-4.55-1,0a3.26,3.26,0,0,0-1.74.42,1.33,1.33,0,0,0-.57,1.18c0,.75.43,1.13,1.3,1.13a2.07,2.07,0,0,0,1.49-.54,1.87,1.87,0,0,0,.55-1.42Z"/><path class="cls-1" d="M130.69,42.21H128V28.56h2.67Z"/><path class="cls-1" d="M138.73,42.21V29.38h2.72V40h5.2v2.25Z"/><path class="cls-1" d="M148.74,29.87c0-.88.48-1.31,1.45-1.31s1.46.43,1.46,1.31a1.26,1.26,0,0,1-.37,1,1.52,1.52,0,0,1-1.09.34C149.22,31.18,148.74,30.74,148.74,29.87Zm2.79,12.34h-2.68V32.4h2.68Z"/><path class="cls-1" d="M160,32.22a3.18,3.18,0,0,1,2.72,1.35,6.27,6.27,0,0,1,1,3.72,6.14,6.14,0,0,1-1,3.76,3.29,3.29,0,0,1-2.76,1.33,3.23,3.23,0,0,1-2.71-1.25H157l-.44,1.08h-2.05V28.56h2.68v3.18c0,.4,0,1.05-.11,1.93h.11A3.08,3.08,0,0,1,160,32.22Zm-.86,2.14a1.69,1.69,0,0,0-1.45.61,3.51,3.51,0,0,0-.47,2v.29a4,4,0,0,0,.47,2.26,1.66,1.66,0,0,0,1.48.69,1.52,1.52,0,0,0,1.32-.76,4.17,4.17,0,0,0,.48-2.21,3.87,3.87,0,0,0-.49-2.17A1.54,1.54,0,0,0,159.11,34.36Z"/><path class="cls-1" d="M171.53,32.22a3.88,3.88,0,0,1,.91.08l-.2,2.5a3.56,3.56,0,0,0-.79-.08,2.88,2.88,0,0,0-2,.65,2.38,2.38,0,0,0-.71,1.85v5h-2.68V32.4h2l.39,1.65h.13a3.77,3.77,0,0,1,1.24-1.33A3.06,3.06,0,0,1,171.53,32.22Z"/><path class="cls-1" d="M180.63,42.21l-.52-1.34H180a3.8,3.8,0,0,1-1.39,1.18,4.51,4.51,0,0,1-1.87.33,3,3,0,0,1-2.22-.8,3.12,3.12,0,0,1-.81-2.3,2.57,2.57,0,0,1,1.09-2.3,6.27,6.27,0,0,1,3.3-.82l1.7-.06v-.43a1.34,1.34,0,0,0-1.53-1.49,7,7,0,0,0-2.76.71l-.89-1.8a8,8,0,0,1,3.76-.89,4.68,4.68,0,0,1,3,.86,3.17,3.17,0,0,1,1.06,2.61v6.54Zm-.79-4.55-1,0a3.29,3.29,0,0,0-1.74.42,1.35,1.35,0,0,0-.57,1.18c0,.75.44,1.13,1.3,1.13a2.05,2.05,0,0,0,1.49-.54,1.87,1.87,0,0,0,.56-1.42Z"/><path class="cls-1" d="M190.9,32.22a3.79,3.79,0,0,1,.9.08l-.2,2.5a3.5,3.5,0,0,0-.79-.08,2.86,2.86,0,0,0-2,.65,2.39,2.39,0,0,0-.72,1.85v5h-2.67V32.4h2l.4,1.65H188a3.83,3.83,0,0,1,1.23-1.33A3.09,3.09,0,0,1,190.9,32.22Z"/><path class="cls-1" d="M192.36,32.4h2.93l1.85,5.52a7.65,7.65,0,0,1,.33,1.7h.05a7.14,7.14,0,0,1,.38-1.7l1.81-5.52h2.87l-4.15,11.06a4.74,4.74,0,0,1-1.63,2.3,4.06,4.06,0,0,1-2.46.76,6.1,6.1,0,0,1-1.36-.15V44.25a4.32,4.32,0,0,0,1.05.12,1.92,1.92,0,0,0,1.24-.44,2.83,2.83,0,0,0,.83-1.31l.16-.48Z"/><path class="cls-1" d="M217.92,37.29A5.27,5.27,0,0,1,216.66,41a4.59,4.59,0,0,1-3.52,1.35,4.94,4.94,0,0,1-2.49-.61A4.2,4.2,0,0,1,209,40a6,6,0,0,1-.58-2.7,5.22,5.22,0,0,1,1.26-3.74,4.58,4.58,0,0,1,3.52-1.33,4.94,4.94,0,0,1,2.49.61,4.09,4.09,0,0,1,1.66,1.76A5.9,5.9,0,0,1,217.92,37.29Zm-6.78,0a4.1,4.1,0,0,0,.48,2.2,1.71,1.71,0,0,0,1.56.75,1.69,1.69,0,0,0,1.54-.75,4.19,4.19,0,0,0,.46-2.2,4.05,4.05,0,0,0-.47-2.19,2,2,0,0,0-3.1,0A4.1,4.1,0,0,0,211.14,37.29Z"/><path class="cls-1" d="M225.73,34.41h-2.31v7.8h-2.68v-7.8h-1.47V33.12l1.47-.72v-.72a3.2,3.2,0,0,1,.83-2.44,3.72,3.72,0,0,1,2.64-.78,6.75,6.75,0,0,1,2.46.42l-.68,2a5,5,0,0,0-1.49-.25,1,1,0,0,0-.83.33,1.42,1.42,0,0,0-.25.87v.61h2.31Z"/><path class="cls-1" d="M237.37,35h5.09v6.64a14.57,14.57,0,0,1-2.33.57,14.91,14.91,0,0,1-2.23.16,5.64,5.64,0,0,1-4.44-1.7,7.1,7.1,0,0,1-1.53-4.9,6.46,6.46,0,0,1,1.78-4.84,6.72,6.72,0,0,1,4.92-1.74,9.46,9.46,0,0,1,3.81.79l-.9,2.17a6.57,6.57,0,0,0-2.92-.7,3.62,3.62,0,0,0-2.83,1.19,4.58,4.58,0,0,0-1.06,3.18,5.12,5.12,0,0,0,.86,3.19,3,3,0,0,0,2.48,1.1A9.3,9.3,0,0,0,239.8,40V37.27h-2.43Z"/><path class="cls-1" d="M249.92,42.38a5.06,5.06,0,0,1-3.7-1.3,5,5,0,0,1-1.33-3.7,5.47,5.47,0,0,1,1.23-3.82,4.41,4.41,0,0,1,3.4-1.34,4.31,4.31,0,0,1,3.24,1.18,4.49,4.49,0,0,1,1.16,3.27V38H247.6a2.52,2.52,0,0,0,.67,1.78,2.36,2.36,0,0,0,1.77.64,7.59,7.59,0,0,0,1.68-.18,8.46,8.46,0,0,0,1.65-.59v2.07a6.34,6.34,0,0,1-1.5.52A9.12,9.12,0,0,1,249.92,42.38Zm-.38-8.26a1.7,1.7,0,0,0-1.33.54,2.47,2.47,0,0,0-.55,1.53h3.75a2.19,2.19,0,0,0-.52-1.53A1.74,1.74,0,0,0,249.54,34.12Z"/><path class="cls-1" d="M265.19,37.29A5.23,5.23,0,0,1,263.92,41a4.57,4.57,0,0,1-3.51,1.35,4.89,4.89,0,0,1-2.49-.61A4.14,4.14,0,0,1,256.26,40a5.9,5.9,0,0,1-.58-2.7,5.26,5.26,0,0,1,1.25-3.74,4.61,4.61,0,0,1,3.53-1.33,4.94,4.94,0,0,1,2.49.61,4.15,4.15,0,0,1,1.66,1.76A6,6,0,0,1,265.19,37.29Zm-6.78,0a4.21,4.21,0,0,0,.47,2.2,1.71,1.71,0,0,0,1.56.75,1.68,1.68,0,0,0,1.54-.75,4.18,4.18,0,0,0,.47-2.2A4.14,4.14,0,0,0,262,35.1a1.74,1.74,0,0,0-1.56-.73,1.72,1.72,0,0,0-1.54.73A4,4,0,0,0,258.41,37.29Z"/><path class="cls-1" d="M273.05,32.22a3.84,3.84,0,0,1,.9.08l-.2,2.5a3.5,3.5,0,0,0-.79-.08,2.86,2.86,0,0,0-2,.65,2.39,2.39,0,0,0-.72,1.85v5h-2.67V32.4h2l.4,1.65h.13a3.65,3.65,0,0,1,1.23-1.33A3.09,3.09,0,0,1,273.05,32.22Z"/><path class="cls-1" d="M284.45,32.4v1.36l-1.54.4a2.66,2.66,0,0,1,.42,1.47,3,3,0,0,1-1.1,2.46,4.73,4.73,0,0,1-3.05.88l-.49,0-.39,0a.88.88,0,0,0-.41.7c0,.39.49.58,1.47.58H281a3.83,3.83,0,0,1,2.46.69,2.51,2.51,0,0,1,.84,2,3,3,0,0,1-1.43,2.67,7.5,7.5,0,0,1-4.12.94,5.64,5.64,0,0,1-3.13-.71,2.27,2.27,0,0,1-1.09-2,2.1,2.1,0,0,1,.56-1.49,3.06,3.06,0,0,1,1.62-.85,1.79,1.79,0,0,1-.72-.57,1.4,1.4,0,0,1,0-1.78,3.73,3.73,0,0,1,.93-.74,2.63,2.63,0,0,1-1.22-1.07,3.26,3.26,0,0,1-.45-1.73,3.07,3.07,0,0,1,1-2.48,4.5,4.5,0,0,1,3-.88,7.35,7.35,0,0,1,1,.07l.73.11Zm-7.57,11.19a1,1,0,0,0,.53.87,2.92,2.92,0,0,0,1.49.32,5.12,5.12,0,0,0,2.25-.4A1.21,1.21,0,0,0,282,43.3a.76.76,0,0,0-.49-.76,4,4,0,0,0-1.49-.21h-1.38a2.11,2.11,0,0,0-1.24.35A1.05,1.05,0,0,0,276.88,43.59Zm1-8a2,2,0,0,0,.37,1.26,1.32,1.32,0,0,0,1.11.47,1.29,1.29,0,0,0,1.1-.47,2.07,2.07,0,0,0,.35-1.26c0-1.18-.48-1.77-1.45-1.77S277.85,34.43,277.85,35.61Z"/><path class="cls-1" d="M286.13,29.87c0-.88.48-1.31,1.45-1.31S289,29,289,29.87a1.29,1.29,0,0,1-.36,1,1.56,1.56,0,0,1-1.1.34C286.61,31.18,286.13,30.74,286.13,29.87Zm2.79,12.34h-2.68V32.4h2.68Z"/><path class="cls-1" d="M298.13,42.21l-.52-1.34h-.07a3.8,3.8,0,0,1-1.39,1.18,4.43,4.43,0,0,1-1.86.33,3,3,0,0,1-2.22-.8,3.08,3.08,0,0,1-.82-2.3,2.58,2.58,0,0,1,1.1-2.3,6.2,6.2,0,0,1,3.29-.82l1.7-.06v-.43a1.33,1.33,0,0,0-1.52-1.49,7,7,0,0,0-2.77.71l-.88-1.8a8,8,0,0,1,3.75-.89,4.69,4.69,0,0,1,3,.86A3.17,3.17,0,0,1,300,35.67v6.54Zm-.79-4.55-1,0a3.26,3.26,0,0,0-1.74.42A1.33,1.33,0,0,0,294,39.3c0,.75.43,1.13,1.3,1.13a2.07,2.07,0,0,0,1.49-.54,1.87,1.87,0,0,0,.55-1.42Z"/><path class="cls-2" d="M21.23,37.65a1.22,1.22,0,0,0-2.39.35l-7,1.34v0a2.67,2.67,0,0,0-4.9-.62,2.62,2.62,0,0,0-.26,2,2.68,2.68,0,0,0,1.25,1.62,2.73,2.73,0,0,0,1.33.35,2.94,2.94,0,0,0,.71-.09,2.69,2.69,0,0,0,1.62-1.26,2.66,2.66,0,0,0,.32-1.63l7-1.33a1.22,1.22,0,0,0,2.33-.74Zm-10,3.51A2.29,2.29,0,0,1,7,40.63a2.21,2.21,0,0,1,.22-1.74A2.25,2.25,0,0,1,8.6,37.82a2.06,2.06,0,0,1,.6-.08,2.29,2.29,0,0,1,2,3.42Zm9.08-2.38a.84.84,0,0,1-.45-1.62.91.91,0,0,1,.23,0,.86.86,0,0,1,.81.62A.84.84,0,0,1,20.27,38.78Z"/><circle class="cls-3" cx="18.06" cy="21.1" r="3.55"/><path class="cls-4" d="M44.48,68.23A1.61,1.61,0,0,0,43,69.52l-7.17-.65a2.78,2.78,0,0,0-.08-.75,2.68,2.68,0,0,0-3.29-1.87,2.29,2.29,0,0,0-.62.27L28.6,61.76a5.38,5.38,0,1,0-3.17,1A5.3,5.3,0,0,0,28.27,62l3.21,4.75a2.64,2.64,0,0,0-1,1.94l-16.54.25a1.63,1.63,0,0,0-1.69-1.41,1.51,1.51,0,0,0-.37.06l-1.67-4a1.21,1.21,0,0,0,.59-1,1.23,1.23,0,1,0-1.23,1.23,1.26,1.26,0,0,0,.28-.05l1.68,4a1.61,1.61,0,0,0-.83,1.48,1.63,1.63,0,0,0,3.25.1l16.52-.25a4,4,0,0,0,.08.48,2.7,2.7,0,0,0,2.59,2,2.42,2.42,0,0,0,.7-.1,2.68,2.68,0,0,0,1.93-2.15l7.16.65v0a1.63,1.63,0,1,0,1.55-1.7Zm-24-10.81a5,5,0,1,1,5,5A5,5,0,0,1,20.43,57.42ZM8.73,62.55a.84.84,0,0,1,1.68,0,.84.84,0,0,1-1.68,0Zm25,8.49a2.29,2.29,0,0,1-1.21-4.42,2.47,2.47,0,0,1,.6-.08,2.29,2.29,0,0,1,.61,4.5Z"/><path class="cls-3" d="M51.18,41.52a1,1,0,0,0-1.62.84l-6.17.93a2.47,2.47,0,0,0-.18-.52h0a2.69,2.69,0,0,0-3.55-1.32A2.68,2.68,0,0,0,38.34,45a2.82,2.82,0,0,0,.54.76l-3.11,3.56a1.67,1.67,0,0,0-1.26-.25,1.63,1.63,0,1,0,1.94,1.26,1.59,1.59,0,0,0-.39-.75L39.18,46a2.68,2.68,0,0,0,1.6.56,2.74,2.74,0,0,0,1.11-.24,2.68,2.68,0,0,0,1.55-2.64l6.18-.93a1,1,0,0,0,.4.53,1.05,1.05,0,0,0,1.16-1.76ZM41.73,46a2.29,2.29,0,0,1-3-1.13,2.26,2.26,0,0,1-.07-1.75,2.32,2.32,0,0,1,1.2-1.28,2.24,2.24,0,0,1,.94-.2,2.28,2.28,0,0,1,1,4.36Z"/><path class="cls-3" d="M33.37.12a1.22,1.22,0,0,0-1.21,1.1l-2.47.13a1.63,1.63,0,0,0-3.23.36,1.61,1.61,0,0,0,.48,1.07l-4,5.1a2.67,2.67,0,1,0-2.56,4.61l-1,3.41a5.66,5.66,0,0,0-1.31-.17A5.37,5.37,0,0,0,14.62,17L3.92,5.15a2.26,2.26,0,0,0,.6-1.42l9.67-.32a1.6,1.6,0,1,0,0-.39L4.5,3.34A2.26,2.26,0,1,0,2.27,5.87h.1l.44,3.23a1.21,1.21,0,0,0-.87,1.16A1.23,1.23,0,1,0,3.2,9l-.44-3.2a2.49,2.49,0,0,0,.87-.41l10.7,11.85A5.38,5.38,0,1,0,19.75,16l1-3.4a2.6,2.6,0,0,0,.56.06A2.69,2.69,0,0,0,24,10a2.63,2.63,0,0,0-.76-1.85l4-5.11a1.63,1.63,0,0,0,2.47-1.29l2.48-.13a1.21,1.21,0,0,0,1.18,1,1.23,1.23,0,1,0,0-2.46ZM4,10.25a.84.84,0,1,1-.84-.84A.85.85,0,0,1,4,10.25ZM2.27,5.48A1.87,1.87,0,1,1,4.14,3.61,1.88,1.88,0,0,1,2.27,5.48ZM23.06,21.12a5,5,0,1,1-5-5A5,5,0,0,1,23.06,21.12ZM23.58,10A2.29,2.29,0,1,1,21.3,7.71,2.29,2.29,0,0,1,23.58,10Zm9.79-7.8a.84.84,0,1,1,.84-.84A.85.85,0,0,1,33.37,2.19Z"/><path class="cls-5" d="M36,10.18a1.16,1.16,0,0,0-.68.23l-2.78-3a1.61,1.61,0,0,0,.39-1.13,1.63,1.63,0,1,0-1.55,1.7,1.6,1.6,0,0,0,.87-.3l2.79,3a1.17,1.17,0,0,0,.23,1.71l-3.57,6.83A2.64,2.64,0,0,0,30.6,19a2.67,2.67,0,0,0-.21,5.33l0,6.43a5.39,5.39,0,0,0-4.83,3.38l-14.12-5a2.52,2.52,0,0,0-.72-2.53A2.56,2.56,0,0,0,8.24,26L6.36,21.12a1.63,1.63,0,0,0-.84-3.07,1.63,1.63,0,1,0,.15,3.26,1.13,1.13,0,0,0,.32,0l1.89,4.88a2.38,2.38,0,0,0-.78.57,2.54,2.54,0,0,0,3.74,3.43,2.48,2.48,0,0,0,.44-.68l14.12,5a5.15,5.15,0,0,0-.26,1.63,5.38,5.38,0,0,0,2.4,4.47l-2.62,4.26a2.56,2.56,0,0,0-1.23-.32A2.68,2.68,0,0,0,21,47.22a1.86,1.86,0,0,0,0,.34L10.54,49.72a1.21,1.21,0,0,0-1.14-.79,1.23,1.23,0,1,0,1.23,1.23s0,0,0,0L21.13,48a2.47,2.47,0,0,0,.29.67l-9.94,7.14a1.63,1.63,0,0,0-2.83,1.18,1.63,1.63,0,0,0,3.26-.15,1.67,1.67,0,0,0-.2-.71l9.94-7.15a2.65,2.65,0,0,0,2,1,2.68,2.68,0,0,0,2.68-2.68,2.64,2.64,0,0,0-1.12-2.16l2.62-4.25a5.44,5.44,0,0,0,2.66.7,5.38,5.38,0,0,0,.22-10.76l0-6.42A2.66,2.66,0,0,0,32,19.4l3.56-6.84a1.29,1.29,0,0,0,.39.08,1.23,1.23,0,0,0,0-2.46ZM9.4,51a.84.84,0,1,1,.84-.84A.85.85,0,0,1,9.4,51ZM26,47.22a2.29,2.29,0,1,1-2.29-2.29A2.3,2.3,0,0,1,26,47.22Zm9.54-11.09a5,5,0,1,1-5-5A5,5,0,0,1,35.52,36.13ZM32.89,21.67a2.29,2.29,0,1,1-2.29-2.29A2.29,2.29,0,0,1,32.89,21.67ZM36,12.25a.84.84,0,1,1,.84-.84A.84.84,0,0,1,36,12.25Z"/><path class="cls-2" d="M61.5,41.86a5.29,5.29,0,0,0-1.78.31L56.2,33.23a2,2,0,1,0-2.88-1.88l-8.45.37a2.53,2.53,0,0,0-4.37-1.37,2.54,2.54,0,1,0,4.39,1.76l8.44-.37a2,2,0,0,0,2.06,1.71,2.11,2.11,0,0,0,.45-.08l3.51,8.94a5.38,5.38,0,0,0,1,10.19L57.72,67.28a1.21,1.21,0,0,0-1.15.86l-4.15-.63a.56.56,0,0,0,0-.13,1.62,1.62,0,0,0-1.7-1.55,1.93,1.93,0,0,0-.36.06L45.13,53.17a1.59,1.59,0,0,0,.49-.37,1.84,1.84,0,0,0,.47-1.31A1.83,1.83,0,1,0,43,52.93a1.87,1.87,0,0,0,1.23.47h.09a1.84,1.84,0,0,0,.42-.08L50,66A1.62,1.62,0,0,0,50.21,69l-.35,1.46a2.3,2.3,0,0,0-.45,0,2.71,2.71,0,1,0,.82.14l.37-1.46a1.23,1.23,0,0,0,.27,0,1.63,1.63,0,0,0,1.49-1.2l4.14.63a1.23,1.23,0,1,0,1.61-1.16l2.63-14.79a6.48,6.48,0,0,0,.76.06,5.39,5.39,0,1,0,0-10.77ZM44.33,53a1.41,1.41,0,0,1-1-.37,1.43,1.43,0,0,1-.47-1,1.4,1.4,0,0,1,.37-1,1.41,1.41,0,0,1,1-.47h.07a1.44,1.44,0,0,1,1.06,2.4A1.47,1.47,0,0,1,44.33,53Zm7.36,20.06a2.29,2.29,0,1,1-2.28-2.29A2.28,2.28,0,0,1,51.69,73.07Zm6.87-4.56a.84.84,0,1,1-.83-.84A.84.84,0,0,1,58.56,68.51ZM61.5,52.23a5,5,0,1,1,5-5A5,5,0,0,1,61.5,52.23Z"/><circle class="cls-5" cx="30.52" cy="36.11" r="3.55"/><circle class="cls-4" cx="25.42" cy="57.4" r="3.55"/><circle class="cls-2" cx="61.5" cy="47.23" r="3.55"/><path class="cls-4" d="M50.2,24.49a1.19,1.19,0,0,0-.72.27L43,18.46a2.54,2.54,0,1,0-.27.29L49.21,25a1.19,1.19,0,0,0-.24.68,1.23,1.23,0,1,0,1.23-1.23Zm0,2.07a.84.84,0,1,1,.84-.84A.83.83,0,0,1,50.2,26.56Z"/></g></g></svg>