<?xml version="1.0" standalone="no"?>
<!DOCTYPE svg PUBLIC "-//W3C//DTD SVG 20010904//EN"
 "http://www.w3.org/TR/2001/REC-SVG-20010904/DTD/svg10.dtd">
<svg version="1.0" xmlns="http://www.w3.org/2000/svg"
 width="323.000000pt" height="323.000000pt" viewBox="0 0 323.000000 323.000000"
 preserveAspectRatio="xMidYMid meet">
<metadata>
Created by potrace 1.11, written by Peter Selinger 2001-2013
</metadata>
<g transform="translate(0.000000,323.000000) scale(0.100000,-0.100000)"
fill="#000000" stroke="none">
<path d="M1341 3213 c-24 -19 -29 -43 -18 -84 5 -18 1 -33 -11 -47 -9 -11 -46
-57 -81 -102 -48 -60 -68 -79 -80 -74 -63 27 -129 5 -156 -53 -22 -46 -13 -94
27 -133 30 -30 30 -32 18 -78 -7 -26 -14 -54 -16 -63 -3 -12 -21 -18 -73 -21
-47 -4 -81 -12 -104 -27 l-35 -21 -123 137 c-68 76 -126 140 -129 143 -3 3
-49 53 -102 112 -95 104 -97 107 -85 137 9 25 17 31 42 31 16 1 107 3 202 7
168 5 171 5 183 -16 16 -30 53 -43 87 -30 34 13 43 26 43 65 0 80 -112 92
-142 15 -2 -5 -93 -11 -203 -15 l-200 -7 -12 31 c-13 35 -64 61 -106 53 -39
-8 -77 -57 -77 -100 0 -40 45 -93 79 -93 16 0 21 -9 26 -47 3 -27 8 -56 10
-66 2 -10 -5 -27 -16 -38 -24 -24 -24 -51 -1 -72 25 -23 55 -21 77 3 22 24 13
70 -15 77 -19 5 -33 57 -35 123 0 29 26 38 46 17 51 -52 425 -470 427 -477 2
-5 -9 -27 -23 -49 -35 -53 -45 -143 -21 -204 62 -162 272 -198 390 -67 42 46
60 106 53 176 -7 79 -42 129 -126 185 l-24 15 18 67 c18 66 19 67 51 67 74 0
130 95 95 163 l-17 33 80 102 c76 97 82 102 117 102 31 0 43 6 63 33 21 28 33
34 70 36 36 1 47 -2 56 -19 15 -29 65 -27 85 4 17 26 6 75 -17 77 -7 0 -21 2
-30 4 -10 2 -26 -7 -36 -20 -13 -16 -32 -24 -64 -27 -42 -4 -49 -2 -68 24 -24
33 -66 38 -99 11z m301 -27 c12 -18 -12 -47 -35 -44 -25 3 -34 32 -17 53 12
14 40 10 52 -9z m-1332 -37 c58 -21 71 -98 22 -135 -27 -21 -70 -16 -97 11
-35 35 -33 76 6 109 36 30 28 29 69 15z m858 -284 c74 -86 -49 -207 -132 -130
-14 13 -26 28 -27 32 0 4 -2 17 -5 28 -17 85 105 137 164 70z m-808 -69 c0
-20 -27 -39 -45 -32 -25 9 -30 37 -10 52 20 15 55 2 55 -20z m682 -275 c139
-60 171 -239 61 -343 -104 -99 -274 -65 -334 66 -78 172 99 353 273 277z"/>
<path d="M880 2457 c-127 -85 -71 -277 79 -277 113 0 187 114 137 213 -42 84
-143 114 -216 64z"/>
<path d="M1471 3004 c-27 -34 -26 -54 1 -89 18 -23 27 -26 59 -22 36 5 40 2
91 -56 40 -46 52 -67 50 -88 -2 -15 2 -30 7 -34 7 -4 -16 -60 -64 -153 l-76
-147 -45 3 c-39 4 -48 0 -79 -31 -29 -29 -35 -42 -35 -77 0 -50 27 -92 70
-110 l30 -12 0 -132 0 -132 -52 -14 c-39 -10 -64 -25 -100 -61 -26 -26 -48
-53 -48 -60 0 -14 0 -14 -165 46 -71 26 -148 53 -170 61 -22 7 -89 31 -150 52
l-110 40 -6 41 c-3 22 -13 49 -23 60 -21 23 -80 45 -100 38 -9 -4 -26 26 -53
97 -39 101 -39 104 -21 126 24 30 23 62 -5 88 -38 36 -88 28 -111 -17 -24 -46
10 -101 63 -101 16 0 23 -14 77 -162 13 -35 12 -39 -10 -63 -31 -34 -40 -69
-26 -111 28 -82 133 -101 190 -33 17 21 -31 36 404 -120 110 -39 201 -71 202
-71 1 0 -1 -20 -4 -45 -7 -63 14 -128 59 -178 l37 -43 -52 -84 -53 -84 -41 2
c-67 5 -116 -33 -125 -97 -2 -14 -8 -26 -13 -28 -5 -2 -103 -23 -219 -47 -170
-35 -213 -41 -225 -31 -26 21 -47 24 -68 10 -26 -19 -33 -49 -15 -74 21 -31
63 -27 93 8 22 25 40 32 155 55 72 14 165 33 209 42 112 23 117 7 18 -64 -43
-31 -115 -83 -162 -117 -175 -127 -176 -128 -198 -116 -72 38 -141 -67 -77
-118 49 -38 119 1 113 61 -3 27 11 39 205 178 l209 149 28 -21 c34 -25 99 -21
132 9 48 42 55 116 16 160 l-20 21 53 87 c50 81 54 86 78 78 46 -14 163 -8
198 10 135 72 165 257 60 365 -37 38 -74 59 -123 68 l-33 6 1 133 1 133 39 15
c28 11 42 25 53 51 21 50 19 78 -10 120 l-25 37 72 139 c59 113 77 140 94 140
24 0 38 14 48 47 10 30 -27 67 -59 59 -19 -5 -33 5 -78 55 -51 57 -54 63 -50
104 5 36 2 45 -18 59 -35 24 -74 20 -98 -10z m273 -240 c12 -12 13 -20 6 -35
-11 -20 -19 -23 -44 -13 -19 7 -21 35 -4 52 16 16 23 15 42 -4z m-194 -384
c54 -38 47 -125 -11 -155 -67 -35 -127 -1 -136 76 -5 42 -3 48 27 72 38 32 81
35 120 7z m18 -496 c171 -71 176 -309 8 -385 -136 -61 -296 42 -296 191 0 143
157 249 288 194z m-325 -585 c23 -11 38 -31 51 -72 3 -10 -1 -31 -9 -47 -55
-107 -187 -60 -176 62 2 27 53 68 83 68 15 0 38 -5 51 -11z m-623 -199 c7 -13
5 -21 -5 -30 -33 -27 -72 12 -45 45 14 16 37 10 50 -15z"/>
<path d="M1463 1840 c-74 -16 -123 -76 -123 -150 0 -145 185 -207 271 -91 25
35 30 50 30 100 -1 85 -94 159 -178 141z"/>
<path d="M1873 2598 c-34 -24 -43 -44 -43 -95 0 -70 91 -125 151 -91 26 15 26
15 164 -116 113 -108 137 -136 133 -153 -7 -28 17 -63 43 -63 36 0 59 19 59
50 0 37 -23 59 -57 55 -24 -3 -48 16 -161 124 l-134 128 11 41 c28 104 -79
181 -166 120z m485 -467 c-2 -20 -8 -26 -28 -26 -20 0 -26 6 -28 27 -2 19 2
27 15 30 31 7 44 -3 41 -31z"/>
<path d="M2512 1969 c-12 -5 -32 -24 -43 -43 -11 -19 -28 -34 -37 -34 -9 1
-87 -2 -173 -6 l-157 -7 -6 26 c-8 33 -61 65 -106 65 -96 0 -138 -127 -64
-191 62 -54 174 -11 174 66 0 11 13 15 48 16 106 2 249 9 274 13 21 4 31 -1
52 -28 16 -22 39 -37 61 -42 36 -9 37 -10 106 -184 38 -96 69 -179 69 -185 -1
-5 -18 -22 -39 -36 -86 -60 -115 -187 -65 -287 23 -47 91 -112 118 -112 30 -1
37 -17 27 -61 -5 -24 -12 -60 -15 -79 -3 -19 -10 -57 -15 -85 -5 -27 -12 -70
-16 -95 -3 -25 -8 -53 -11 -63 -3 -10 -7 -30 -9 -45 -2 -15 -11 -65 -20 -112
-8 -47 -15 -88 -15 -92 0 -5 -6 -8 -14 -8 -7 0 -20 -7 -27 -16 -13 -15 -44
-15 -124 0 -11 3 -28 5 -38 5 -10 1 -21 11 -26 24 -11 29 -34 48 -61 50 -16 1
-28 16 -46 54 -13 30 -24 57 -24 62 0 4 -6 21 -14 37 -25 51 -156 374 -156
384 0 6 4 10 9 10 10 0 28 48 25 68 -1 6 -2 16 -3 22 0 5 -11 18 -23 30 -31
29 -74 26 -108 -9 -26 -26 -28 -32 -20 -62 11 -40 43 -69 75 -69 20 0 31 -21
96 -177 40 -98 89 -218 110 -268 20 -49 34 -92 29 -95 -32 -21 -33 -84 -2
-110 27 -23 14 -63 -23 -70 -74 -16 -111 -64 -102 -134 4 -30 14 -48 39 -69
29 -25 39 -28 81 -24 61 5 96 37 104 94 6 47 -17 99 -51 114 -31 14 -23 56 13
72 14 6 33 19 42 30 14 17 21 18 97 7 66 -10 84 -16 96 -35 19 -29 49 -36 75
-18 25 17 28 65 6 83 -16 14 -16 22 5 130 6 30 13 71 16 90 3 19 21 120 40
224 19 104 34 190 34 191 0 1 10 1 23 0 38 -4 114 20 153 50 50 38 86 118 83
187 -6 135 -100 222 -240 222 l-67 0 -37 95 c-21 53 -53 136 -72 185 l-34 89
21 21 c59 64 -15 166 -98 135z m406 -575 c59 -35 93 -89 99 -161 9 -101 -45
-182 -143 -216 -133 -47 -274 59 -274 204 0 49 42 132 80 159 78 55 158 60
238 14z m-804 -320 c9 -8 17 -20 17 -25 1 -5 2 -15 3 -21 3 -18 -34 -58 -54
-58 -28 0 -60 30 -60 57 0 53 59 83 94 47z m564 -758 c5 -26 -26 -50 -45 -35
-14 12 -17 41 -6 53 13 13 48 1 51 -18z m-344 -116 c29 -11 56 -57 56 -95 0
-16 -12 -38 -29 -56 -75 -75 -198 11 -150 104 26 50 70 67 123 47z"/>
<path d="M2764 1363 c-72 -14 -125 -120 -98 -197 57 -159 296 -120 296 49 0
103 -89 170 -198 148z"/>
<path d="M1013 1651 c-12 -11 -23 -24 -24 -30 -6 -15 -293 -70 -298 -57 -8 25
-56 65 -82 71 -16 4 -45 1 -64 -5 -79 -26 -102 -119 -44 -185 26 -29 38 -35
73 -35 61 0 103 30 118 83 l11 44 145 26 c127 23 146 25 159 12 30 -30 93 -5
93 36 0 44 -56 69 -87 40z m61 -27 c8 -21 -11 -44 -36 -44 -21 0 -33 22 -24
45 7 20 52 19 60 -1z m-434 -31 c37 -34 46 -73 25 -113 -31 -59 -103 -69 -150
-20 -82 86 37 212 125 133z"/>
<path d="M1900 1469 c-68 -15 -107 -97 -76 -160 18 -36 23 -27 -58 -119 -42
-48 -52 -54 -82 -51 -68 5 -103 -70 -57 -121 21 -23 75 -23 96 0 20 22 27 61
16 84 -8 16 0 27 103 141 14 16 21 17 50 8 38 -12 70 -8 103 13 20 13 32 34
48 87 4 12 23 19 59 24 29 4 62 9 73 11 78 15 124 16 145 1 35 -24 70 -4 70
40 0 32 -35 49 -66 32 -13 -7 -24 -18 -24 -24 0 -8 -23 -15 -57 -20 -32 -4
-67 -8 -78 -10 -11 -2 -44 -7 -72 -11 -46 -5 -54 -4 -60 12 -17 46 -79 75
-133 63z m88 -38 c28 -20 40 -87 23 -119 -17 -32 -67 -55 -101 -47 -16 4 -41
20 -55 37 -44 52 -18 129 49 146 37 10 53 7 84 -17z"/>
<path d="M1180 994 c-133 -58 -177 -232 -90 -355 51 -71 172 -106 259 -75 25
9 48 13 51 9 4 -5 35 -49 69 -100 38 -58 57 -94 50 -99 -6 -3 -17 -21 -25 -39
l-13 -33 -218 -2 c-120 -1 -275 -3 -344 -5 l-127 -3 -21 28 c-12 16 -32 30
-47 32 -23 3 -32 14 -61 81 -25 60 -30 83 -23 97 33 61 -31 114 -80 68 -30
-28 -9 -88 30 -88 12 0 28 -24 53 -82 35 -82 35 -82 16 -106 -23 -30 -18 -70
12 -95 32 -26 67 -21 101 15 l29 32 345 4 c309 4 344 2 344 -12 0 -9 12 -30
28 -46 54 -61 152 -48 186 25 10 19 20 34 24 31 4 -2 47 -7 95 -11 49 -4 96
-8 105 -10 10 -2 34 -4 55 -4 26 -1 37 -5 37 -16 0 -23 37 -55 64 -55 34 0 76
37 76 66 0 70 -77 100 -124 49 -23 -25 -27 -25 -112 -19 -49 4 -96 8 -104 10
-8 1 -32 3 -52 3 -35 1 -40 5 -59 46 -27 57 -66 80 -124 71 l-42 -5 -65 97
-65 98 28 28 c30 30 56 90 62 141 10 85 -46 183 -127 221 -60 28 -142 31 -196
8z m212 -40 c104 -73 120 -229 31 -318 -41 -41 -82 -59 -143 -62 -185 -9 -285
216 -157 354 63 69 190 82 269 26z m-764 -398 c-4 -28 -43 -34 -57 -9 -11 21
-4 37 19 45 21 8 41 -12 38 -36z m1015 -177 c67 -30 71 -131 6 -164 -39 -20
-72 -19 -102 5 -36 28 -48 69 -32 107 23 55 75 76 128 52z"/>
<path d="M1218 926 c-90 -38 -123 -137 -73 -221 76 -130 278 -77 278 73 0 58
-30 115 -73 137 -38 20 -99 25 -132 11z"/>
</g>
</svg>
